<svg width="36" height="36" viewBox="0 0 36 36" fill="none" xmlns="http://www.w3.org/2000/svg">
<path d="M29.3344 14.175C29.3344 14.175 30.7687 14.9063 31.5562 16.6782C32.3718 18.4782 32.8781 19.0688 33.3562 19.125L33.1594 19.1813C33.1594 19.1813 32.175 19.0125 31.4156 17.4657C30.6281 15.9188 29.3344 15.5532 29.3344 15.5532V14.175Z" fill="#DBA567"/>
<path d="M33.2156 18.1407C33.6094 18.2251 33.975 18.422 34.2 18.7313C34.0031 18.6751 33.8063 18.647 33.6094 18.6751C34.0875 18.9001 34.4531 19.2938 34.5938 19.772C34.7344 20.2501 34.6781 20.7845 34.425 21.2345C34.3969 20.7282 34.0875 20.2501 33.6094 20.0251C33.8344 20.1095 33.8625 20.3626 33.8906 20.5876C33.7219 20.4188 33.525 20.2782 33.3 20.1938C33.1313 20.1376 32.9625 20.1095 32.8219 20.0532C32.6531 19.9688 32.5125 19.8563 32.4 19.7157C32.0906 19.3501 31.9219 18.8438 31.9781 18.3657C32.0062 18.0845 32.175 18.1126 32.4281 18.0845C32.6813 18.0845 32.9625 18.0845 33.2156 18.1407Z" fill="#995220"/>
<path d="M14.6812 20.5031C15.0187 21.5438 14.9344 22.725 14.4281 23.6813C14.2312 24.075 13.95 24.4688 13.8375 24.8906C13.7531 25.3406 13.8375 25.7906 13.8094 26.2125C13.7531 26.6344 13.5562 27.0563 13.4437 27.4781C13.275 28.0688 13.2469 28.7156 13.3594 29.3063C13.4437 29.7281 13.6125 30.1781 13.4719 30.6C13.4156 30.7688 13.3031 30.9375 13.275 31.1063C13.275 31.2188 13.3031 31.3313 13.3312 31.4156C13.4437 31.9219 13.275 32.5125 12.8531 32.8781C12.4312 33.2438 11.8406 33.3563 11.3062 33.1875C11.025 33.1031 10.8 32.9344 10.575 32.7938C10.4906 32.7375 10.3781 32.6531 10.3219 32.5688C10.1812 32.3156 10.4062 32.0063 10.6594 31.8375C10.9125 31.6969 11.2219 31.6125 11.4187 31.3875C11.5312 31.2469 11.5875 31.0781 11.6437 30.9094C11.7281 30.6281 11.9812 30.375 12.0656 30.0938C12.2906 29.4469 12.3469 28.7156 12.2344 28.0688C12.15 27.7031 11.9812 27.3375 11.8406 26.9719C11.7 26.6063 11.6156 26.2125 11.7562 25.8469C11.8125 25.7344 11.8687 25.5938 11.925 25.4813C11.9812 25.2844 11.9812 25.0875 11.9812 24.9188C11.9812 24.1313 12.0094 23.3438 11.8125 22.5844C11.5594 21.5719 10.9687 20.6719 10.8281 19.6313C10.7156 18.9844 10.35 18.3656 10.2094 17.7188C11.0531 18 11.9531 18.225 12.7406 18.6469C13.5562 19.0406 14.4 19.6594 14.6812 20.5031ZM25.3687 25.65C25.6781 26.0719 26.0437 26.5219 25.9875 27.0281C25.9594 27.1969 25.9031 27.3375 25.8469 27.5063C25.5375 28.2938 25.2562 29.0813 24.9469 29.8688C24.8625 30.0938 24.4125 30.4875 24.2437 30.6844C24.1312 30.7969 23.9906 30.8813 23.8781 30.9938C23.6812 31.2188 23.6812 31.5563 23.4844 31.8094C23.3156 32.0344 23.0344 32.1188 22.8375 32.2875C22.6125 32.4563 22.4437 32.7375 22.5844 32.9625C22.6125 33.0188 22.6969 33.075 22.7531 33.1313C23.0625 33.4125 23.4 33.6656 23.7937 33.7781C24.1594 33.8906 24.5531 33.8344 24.9187 33.7781C25.2281 33.7219 25.5375 33.6375 25.7906 33.4688C26.0437 33.2719 26.1844 32.9625 26.1 32.6813C26.0719 32.5969 26.0156 32.5125 26.0156 32.4C26.0156 32.3156 26.0719 32.2594 26.1281 32.2031C26.3531 31.8656 26.1844 31.4156 26.2406 30.9938C26.2687 30.825 26.3531 30.6563 26.4094 30.5156C27.5625 27.7031 28.0125 28.3219 28.4062 27.0563C28.8 25.875 28.6031 24.5813 28.2656 23.3719C27.9 22.1063 27.3656 20.8406 26.4094 19.9406C26.1562 19.6875 25.8469 19.4625 25.4812 19.4906C25.2844 19.4906 25.1156 19.575 24.9469 19.6594C24.4125 19.9125 23.85 20.1938 23.4844 20.6719C23.1187 21.15 23.3156 21.6 23.4281 22.1344C23.6531 23.4563 24.5531 24.5813 25.3687 25.65Z" fill="#A87042"/>
<path d="M10.3782 32.0063C10.2938 32.1188 10.2657 32.2875 10.2375 32.4281C10.2375 32.5125 10.2375 32.625 10.2657 32.7094C10.2938 32.7938 10.35 32.85 10.4063 32.9063C10.5469 33.0188 10.7157 33.1031 10.8844 33.075C10.9688 33.2719 11.1938 33.4125 11.4469 33.4406C11.6719 33.4688 11.8969 33.4406 12.1219 33.3844C12.4313 33.3 12.7688 33.2156 12.9938 32.9906C13.1907 32.7938 13.275 32.4844 13.275 32.2031C13.275 32.4281 13.1344 32.6531 12.9375 32.7937C12.7407 32.9344 12.5157 33.0187 12.2907 33.075C12.2907 32.9062 12.2907 32.7094 12.2344 32.5406C12.1782 32.4 12.0375 32.2875 11.8969 32.2312C11.7563 32.175 11.5875 32.175 11.4188 32.2312C11.5594 32.0344 11.7844 31.8938 12.0094 31.7812C11.8125 31.8094 11.6157 31.8938 11.475 32.0344C11.4469 32.0625 11.3907 32.0906 11.3344 32.0906C11.3063 32.0906 11.3063 32.0625 11.2782 32.0625C11.0813 31.7812 10.575 31.7531 10.3782 32.0063Z" fill="#77512F"/>
<path d="M11.1937 32.5125C11.3062 32.3718 11.475 32.2875 11.6437 32.2875C11.7844 32.3156 11.925 32.3718 12.0094 32.4843C12.0937 32.5968 12.1219 32.7375 12.1219 32.8781C12.1219 32.9625 12.1219 33.0187 12.0656 33.075C12.0094 33.1593 11.8969 33.1593 11.8125 33.1875C11.6156 33.2156 11.3062 33.2156 11.1375 33.0468C11.025 32.9625 11.1094 32.6531 11.1937 32.5125ZM11.1937 32.3156C11.1656 32.3718 11.1375 32.4562 11.1094 32.5125L10.9406 32.7656C10.8562 32.8218 10.7156 32.8218 10.6312 32.7375C10.5469 32.6531 10.5187 32.5687 10.4906 32.4562C10.4906 32.3718 10.4906 32.2875 10.5187 32.2031C10.5469 32.1187 10.6031 32.0343 10.6875 32.0062C10.7437 31.9781 10.8 31.9781 10.8562 31.9781C10.9969 31.95 11.3625 32.0625 11.1937 32.3156Z" fill="#E0C870"/>
<path d="M12.4031 3.62817C12.8812 6.04692 11.7281 8.40942 11.7 10.8844C11.7 11.9813 11.8687 13.1063 12.5156 13.9782C13.1625 14.85 14.4281 15.3844 15.4406 14.9344C16.3406 14.5407 16.7906 13.5844 17.5781 13.05C18.1406 12.6563 18.8437 12.4875 19.3781 12.0657C20.3344 11.3344 20.7844 10.5188 21.9375 10.1532C22.7531 9.90005 23.6531 10.2938 24.3 10.8282C24.9469 11.3625 25.4812 11.5032 26.1562 12.0094C27.1406 12.7688 28.4625 13.1625 29.3625 14.0063C30.5156 15.075 30.8812 16.6782 31.05 18.1969C31.1344 18.9282 31.1625 19.6594 31.1062 20.3907C30.9937 21.4875 30.9094 21.9094 30.7687 22.9782C30.6281 24.075 30.4312 25.875 31.1625 26.7188C31.4437 27.0563 31.4719 27.5344 31.3594 27.9563C31.2469 28.3782 31.05 28.7719 30.8812 29.1657C30.7125 29.5875 30.4594 30.0375 30.4031 30.4875C30.2625 31.3313 29.8969 31.9219 30.2062 33.0188C30.2344 33.1594 30.1219 33.2719 30.1219 33.4125C30.1219 33.6938 30.3469 33.9188 30.4031 34.2C30.5156 34.6219 30.2625 35.0719 29.8969 35.2969C29.5312 35.55 29.0812 35.6344 28.6312 35.6625C28.4344 35.6907 28.2375 35.6907 28.0687 35.6344C27.9 35.5782 27.7312 35.3813 27.7594 35.2125C27.5344 35.325 27.225 35.1844 27.1125 34.9594C27 34.7344 27.0562 34.4532 27.1687 34.2282C27.2812 34.0032 27.4781 33.8344 27.7031 33.7219C27.9844 33.6094 28.125 33.4125 28.2375 33.1313C28.6875 32.2313 28.7156 30.9094 28.9125 29.925C28.9969 29.5313 29.0531 29.1375 29.0812 28.7438C29.1375 27.4219 28.4906 26.1563 27.7875 25.0032C27.0844 23.85 26.2969 22.725 26.0156 21.4032C24.9469 22.3875 23.5125 23.0063 22.05 23.3157C20.6156 23.625 19.0969 23.5688 17.6344 23.3157C16.2 23.0625 14.8219 22.5844 13.5 22.0219C12.7969 21.7125 12.0937 21.4032 11.4469 20.9532C10.35 20.1938 9.47812 19.125 9 17.9157C8.57812 17.6344 8.38125 17.1282 8.26875 16.6219C7.95937 15.2438 7.81875 13.8094 7.79063 12.4032C7.79063 11.475 7.84687 10.5469 7.70625 9.64692C7.59375 8.74692 7.25625 7.8188 6.60938 7.1438C6.83437 6.94692 6.975 6.72192 7.2 6.52505C7.62188 6.18755 8.04375 5.85005 8.46562 5.48442C8.97187 5.06255 9.47812 4.6688 10.0687 4.35942C10.7156 4.13442 11.8687 4.02192 12.4031 3.62817Z" fill="#DBA567"/>
<path d="M11.475 7.05938C11.475 7.05938 10.4906 9.19688 7.59374 8.04376C6.49686 7.62188 6.04686 8.07188 5.90624 8.80313C5.90624 8.80313 5.42811 10.35 3.76874 9.50626C3.29061 9.90001 1.74374 10.35 2.47499 8.97188C2.47499 8.97188 1.04061 9.36563 1.63124 7.50938C1.63124 7.50938 0.42186 5.09063 2.67186 4.30313C2.67186 4.30313 3.88124 4.05001 4.66874 4.30313C5.42811 4.55626 6.41249 3.54376 6.94686 2.61563C7.50936 1.68751 8.88749 2.08126 8.88749 2.08126C8.88749 2.08126 10.575 1.18126 11.475 1.85626C12.375 2.53126 13.2187 5.68126 11.8969 7.95938L11.475 7.05938Z" fill="#DBA567"/>
<path d="M2.58755 5.96253C2.67192 5.85003 2.78442 5.70941 2.92505 5.65316C3.06567 5.59691 3.26255 5.59691 3.34692 5.70941C3.4313 5.79378 3.4313 5.90628 3.40317 6.01878C3.34692 6.38441 3.06567 6.69378 2.7563 6.91878C2.44692 7.14378 1.91255 7.34066 1.65942 7.62191C1.82817 7.34066 2.13755 7.00316 2.27817 6.69378C2.33442 6.55316 2.4188 6.41253 2.4188 6.30003C2.47505 6.18753 2.50317 6.10316 2.58755 5.96253Z" fill="#F1BC7A"/>
<path d="M2.41872 5.96253C2.5031 5.85003 2.6156 5.70941 2.75622 5.65316C2.89685 5.59691 3.09372 5.59691 3.1781 5.70941C3.26247 5.79378 3.26247 5.90628 3.23435 6.01878C3.1781 6.38441 2.89685 6.69378 2.58747 6.91878C2.2781 7.14378 1.9406 7.34066 1.65935 7.59378C1.8281 7.31253 1.96872 7.00316 2.10935 6.69378C2.1656 6.55316 2.24997 6.41253 2.24997 6.30003C2.30622 6.18753 2.33435 6.10316 2.41872 5.96253ZM5.45622 7.05941C5.45622 7.05941 4.49997 8.91566 2.47497 8.94378C2.47497 8.94378 1.18122 9.25316 1.8281 8.01566C1.8281 8.01566 1.88435 8.71878 2.30622 8.63441C3.12185 8.49378 3.57185 8.88753 5.45622 7.05941Z" fill="#B27B43"/>
<path d="M2.39062 6.07511C2.475 5.93448 2.61562 5.82198 2.78437 5.79386C2.95312 5.76573 3.12188 5.87823 3.12188 6.04698C3.12188 6.13136 3.06563 6.18761 3.0375 6.27198C2.95313 6.38448 2.86875 6.52511 2.78437 6.60948C2.72812 6.66573 2.64375 6.72198 2.55938 6.77823C2.39063 6.89073 2.19375 7.08761 1.96875 7.17198C2.05313 6.97511 2.10937 6.80636 2.16562 6.60948C2.19375 6.55323 2.30625 6.07511 2.39062 6.07511Z" fill="#341A0D"/>
<path d="M9.05631 4.92178C8.91568 5.48428 8.35318 5.84991 7.84693 5.70928C7.34068 5.56866 7.03131 5.00616 7.17193 4.44366C7.31256 3.88116 7.87506 3.51554 8.38131 3.65616C8.91568 3.79679 9.22506 4.35928 9.05631 4.92178Z" fill="#B27B43"/>
<path d="M8.97183 4.97817C8.8312 5.45629 8.38121 5.76567 7.93121 5.65317C7.48121 5.54067 7.22808 5.06254 7.36871 4.55629C7.50933 4.07817 7.95933 3.76879 8.40933 3.88129C8.85933 3.99379 9.11245 4.50004 8.97183 4.97817Z" fill="white"/>
<path d="M7.98748 5.42817C7.56561 5.31567 7.34061 4.92192 7.39686 4.47192C7.36873 4.50005 7.36873 4.5563 7.36873 4.58442C7.22811 5.06255 7.50936 5.5688 7.93123 5.6813C8.38123 5.7938 8.83123 5.48442 8.97186 5.0063C8.97186 4.97817 8.99998 4.92192 8.99998 4.8938C8.83123 5.28755 8.40936 5.54067 7.98748 5.42817Z" fill="#E7E5E6"/>
<path d="M8.21252 4.21867C8.6344 4.33117 8.91565 4.64054 8.9719 5.00617V4.97804C9.11252 4.49992 8.83127 3.99367 8.4094 3.88117C8.0719 3.79679 7.70627 3.96554 7.5094 4.24679C7.70627 4.16242 7.9594 4.13429 8.21252 4.21867Z" fill="#EEAD6B"/>
<path d="M8.71869 4.92199C8.63432 5.20324 8.35307 5.34386 8.09994 5.28761C7.81869 5.23136 7.64994 4.95011 7.73432 4.66886C7.81869 4.38761 8.09994 4.24699 8.35307 4.30324C8.63432 4.38761 8.80307 4.64074 8.71869 4.92199Z" fill="#DD0800"/>
<path d="M8.74688 4.75322C8.6625 4.86572 8.46563 4.89385 8.35313 4.7251C8.35313 4.7251 8.38125 4.7251 8.35313 4.7251H8.2125C8.12813 4.75322 8.07187 4.8376 8.01562 4.89385C7.93125 4.9501 7.81875 4.97822 7.73438 4.92197C7.7625 5.09072 7.90312 5.25947 8.1 5.2876C8.38125 5.34385 8.6625 5.20322 8.71875 4.92197C8.74687 4.86572 8.74688 4.80947 8.74688 4.75322Z" fill="#AD0901"/>
<path d="M8.55001 4.86558C8.49376 5.03433 8.32501 5.11871 8.15626 5.09058C7.98751 5.03433 7.87501 4.89371 7.93126 4.72496C7.98751 4.55621 8.15626 4.47183 8.32501 4.49996C8.49376 4.55621 8.60626 4.72496 8.55001 4.86558Z" fill="#151314"/>
<path d="M8.15631 4.66886C8.12818 4.72511 8.07193 4.78136 8.01568 4.75323C7.95943 4.72511 7.90318 4.66886 7.93131 4.61261C7.95943 4.55636 8.01568 4.50011 8.07193 4.52823C8.12818 4.52823 8.15631 4.58448 8.15631 4.66886Z" fill="white"/>
<path d="M19.3781 19.6875C19.6031 20.3625 17.4937 22.6125 17.4093 23.3156C17.325 23.8219 17.1843 24.3 16.9312 24.7781C16.7062 25.2281 16.3968 25.65 16.2843 26.1281C16.1718 26.6062 16.2843 27.1125 16.2281 27.6187C16.1718 28.0969 15.9468 28.5469 15.8062 29.025C15.6093 29.6719 15.5812 30.4031 15.7218 31.05C15.8343 31.5281 16.0031 32.0062 15.8343 32.4844C15.7781 32.6812 15.6375 32.85 15.6375 33.0469C15.6375 33.1594 15.6656 33.2719 15.6937 33.4125C15.8343 33.975 15.6093 34.6219 15.1593 35.0156C14.7093 35.4094 14.0343 35.55 13.4437 35.3531C13.1343 35.2406 12.8812 35.0719 12.6281 34.9031C12.5156 34.8469 12.4031 34.7625 12.3468 34.65C12.1781 34.3687 12.4312 34.0031 12.7125 33.8344C12.9937 33.6656 13.3312 33.5812 13.5562 33.3281C13.6968 33.1875 13.7531 32.9906 13.8093 32.7937C13.9218 32.4844 14.175 32.2031 14.2875 31.8937C14.5125 31.1625 14.5968 30.375 14.4562 29.6437C14.3718 29.2219 14.175 28.8281 14.0343 28.4344C13.8937 28.0406 13.8093 27.5906 13.95 27.1687C14.0062 27.0281 14.0906 26.8875 14.1187 26.7469C14.175 26.55 14.2031 26.325 14.2031 26.1C14.2031 25.2281 14.2312 24.3562 14.0343 23.5125C13.7531 22.3875 13.1062 21.375 12.9375 20.25C12.825 19.5469 12.4031 18.8437 12.2625 18.1406C13.2187 18.45 14.175 18.7312 15.075 19.1531C15.975 19.6031 19.0687 18.7594 19.3781 19.6875Z" fill="#DBA567"/>
<path d="M22.725 32.4C22.6125 32.5406 22.5844 32.7093 22.5563 32.9062C22.5563 33.0187 22.5563 33.1312 22.5844 33.2156C22.6125 33.3 22.6688 33.3562 22.7532 33.4406C22.8938 33.5812 23.1188 33.6656 23.3157 33.6375C23.4282 33.8906 23.6813 34.0312 23.9625 34.0593C24.2438 34.0875 24.4969 34.0312 24.7782 33.975C25.1438 33.8906 25.5375 33.7781 25.7906 33.4968C26.0156 33.2437 26.2406 32.9625 26.0719 32.625C26.0719 32.9062 25.9313 33.1031 25.7063 33.2718C25.4813 33.4406 25.2281 33.525 24.9469 33.6093C24.975 33.4125 24.9469 33.1875 24.8625 32.9906C24.7782 32.8218 24.6375 32.7093 24.4688 32.625C24.3 32.5687 24.1032 32.5406 23.9344 32.625C24.1032 32.3718 24.3844 32.2312 24.6375 32.0906C24.4125 32.1468 24.1875 32.2312 23.9907 32.3718C23.9344 32.4 23.8782 32.4562 23.85 32.4281C23.8219 32.4281 23.8219 32.4 23.7938 32.4C23.5406 32.1468 22.95 32.1187 22.725 32.4Z" fill="#77512F"/>
<path d="M23.6813 33.0188C23.7938 32.85 24.0188 32.7375 24.2157 32.7656C24.3844 32.7938 24.5251 32.8781 24.6376 32.9906C24.7219 33.1313 24.7782 33.2719 24.7782 33.4406C24.7782 33.525 24.7501 33.6094 24.7219 33.6656C24.6657 33.75 24.5251 33.7781 24.4407 33.8062C24.1876 33.8344 23.8501 33.8344 23.6813 33.6656C23.4844 33.525 23.5688 33.1875 23.6813 33.0188ZM23.6532 32.7937C23.5969 32.85 23.5969 32.9344 23.5407 33.0188C23.4844 33.1313 23.4282 33.2156 23.3157 33.3C23.2032 33.3844 23.0626 33.3563 22.9501 33.2719C22.8376 33.1875 22.8094 33.0469 22.7813 32.9344C22.7532 32.8219 22.7813 32.7375 22.8094 32.625C22.8376 32.5406 22.9219 32.4281 23.0063 32.4C23.0626 32.3719 23.1469 32.3719 23.2032 32.3438C23.4563 32.3438 23.8501 32.5125 23.6532 32.7937Z" fill="#E0C870"/>
<path d="M8.88745 1.65928C8.4937 1.54678 8.07183 1.49053 7.76245 1.20928C8.0437 1.32178 8.35308 1.37803 8.66245 1.32178C8.91558 1.29365 9.14058 1.20928 9.3937 1.18115C9.64683 1.15303 9.92808 1.2374 10.0406 1.43428C10.0687 1.0124 9.7312 0.562402 9.2812 0.449902C9.59058 0.421777 9.92808 0.534277 10.1812 0.731152C10.4343 0.928027 10.6312 1.18115 10.8 1.4624C10.7718 0.928027 11.25 0.393652 11.7843 0.337402C11.5593 0.787402 11.7843 1.3499 12.0656 1.77178C12.3468 2.19365 12.7125 2.64365 12.7125 3.1499C12.8531 2.98115 13.1062 2.95303 13.3312 2.98115C13.8375 3.00928 14.3156 3.29053 14.6249 3.68428C14.3718 3.57178 14.1187 3.43115 13.8656 3.43115C13.5843 3.40303 13.2749 3.51553 13.1624 3.76865C13.4156 3.68428 13.6968 3.90928 13.8375 4.1624C14.0624 4.55615 14.1468 5.00615 14.0624 5.45615C14.0062 5.79365 13.8656 6.10303 13.7812 6.44053C13.6968 6.77803 13.7249 7.14365 13.9218 7.4249C13.5562 7.25615 13.2468 6.94678 13.0781 6.58115C13.1343 6.89053 13.1343 7.1999 13.0218 7.50928C12.8531 8.07178 12.4031 8.52178 12.15 9.05615C11.8687 9.64678 11.8687 10.3499 12.0937 10.9405C10.9125 10.1812 11.7562 8.60615 11.8406 8.40928C11.9531 8.0999 12.0656 7.95928 12.15 7.5374C11.9531 7.93115 11.7562 8.3249 11.5312 8.69053C11.475 7.9874 11.8406 7.34053 12.0374 6.66553C12.15 6.2999 12.2062 5.93428 12.2624 5.56865C12.3468 5.0624 12.4031 4.55615 12.2624 4.07803C12.1499 3.7124 11.925 3.3749 11.6437 3.12178C11.1937 2.67178 10.7156 2.44678 10.0968 2.3624C9.6187 2.2499 9.36558 1.7999 8.88745 1.65928Z" fill="#995220"/>
<path d="M10.5469 3.45947C10.1531 3.06572 9.56251 2.86885 9.00001 2.98135C9.14064 3.2626 9.30939 3.51572 9.39376 3.8251C9.47814 4.13447 9.50626 4.44385 9.36564 4.7251C9.30939 4.35947 9.14064 4.02197 8.85939 3.76885C8.57814 3.51572 8.21251 3.3751 7.84689 3.43135C7.42501 3.4876 7.05939 3.79697 6.77814 4.10635C6.63751 4.2751 6.49689 4.47197 6.35626 4.6126C6.18751 4.78135 5.99064 4.89385 5.76564 4.89385C5.48439 4.92197 5.23126 4.75322 4.95001 4.64072C4.38751 4.3876 3.74064 4.33135 3.12189 4.44385C2.86876 4.5001 2.61564 4.58447 2.44689 4.78135C2.10939 5.14697 2.19376 5.70947 1.96876 6.15947C1.88439 6.1876 1.77189 6.1876 1.68751 6.10322C1.63126 6.01885 1.60314 5.93447 1.60314 5.8501C1.54689 5.31572 1.94064 4.78135 2.44689 4.55635C2.95314 4.33135 3.54376 4.33135 4.07814 4.41572C4.52814 4.5001 5.00626 4.64072 5.45626 4.52822C6.04689 4.3876 6.44064 3.85322 6.75001 3.34697C6.89064 3.12197 7.03126 2.89697 7.25626 2.72822C7.45314 2.55947 7.76251 2.4751 8.01564 2.55947C8.04376 2.53135 8.01564 2.50322 7.98751 2.4751C7.95939 2.4751 7.90314 2.44697 7.90314 2.41885C7.87501 2.3626 7.93126 2.30635 7.98751 2.27822C8.55001 2.0251 9.19689 2.0251 9.75939 2.27822C9.98439 2.39072 10.2375 2.53135 10.4906 2.44697C10.4063 2.8126 10.2938 3.23447 10.5469 3.45947Z" fill="#F1BC7A"/>
<path d="M30.7969 23.0345C30.9375 21.9376 31.0219 21.5157 31.1344 20.447C31.2187 19.7157 31.1625 18.9845 31.0781 18.2532C30.9375 16.9032 30.6 15.497 29.7562 14.4282C29.8687 14.5688 29.9812 14.7095 30.0094 14.7938C30.15 15.1032 30.2906 15.4407 30.3469 15.7782C30.5437 16.5938 30.5719 17.4657 30.5719 18.3095C30.5719 19.2095 30.5719 20.0814 30.4031 20.9532C30.15 22.3595 29.475 23.7657 29.925 25.1439C29.9812 25.3689 30.0937 25.5657 30.1219 25.7907C30.15 25.9876 30.0937 26.1845 30.1781 26.3532C30.2906 26.6064 30.5719 26.7189 30.7687 26.9157C31.05 27.197 31.0781 27.6189 30.9937 28.0126C30.9094 28.3782 30.7125 28.7157 30.5437 29.0814C30.0094 30.1501 29.7281 31.3032 29.7 32.4845C29.7 32.9626 29.7281 33.4689 29.925 33.8907C30.0375 34.1439 30.1781 34.4814 29.925 34.5939C29.7844 34.6501 29.6437 34.5939 29.5312 34.5095C29.1656 34.3126 28.7719 34.1157 28.4062 33.9189C28.2375 33.8345 28.0406 33.722 27.8719 33.6939C27.8437 33.722 27.8156 33.722 27.7594 33.7501C27.5062 33.8626 27.3375 34.0314 27.225 34.2564C27.1125 34.4814 27.0562 34.7626 27.1687 34.9876C27.2812 35.2126 27.5906 35.3532 27.8156 35.2407C27.7875 35.4376 27.9562 35.6064 28.125 35.6626C28.2937 35.7189 28.5187 35.7189 28.6875 35.6907C29.1375 35.6626 29.5875 35.5782 29.9531 35.3251C30.3187 35.072 30.5719 34.6501 30.4594 34.2282C30.4031 33.947 30.1781 33.722 30.1781 33.4407C30.1781 33.3001 30.2906 33.1595 30.2625 33.047C29.9531 31.9501 30.3469 31.3595 30.4594 30.5157C30.5437 30.0657 30.7687 29.6157 30.9375 29.1939C31.1062 28.8001 31.3312 28.4064 31.4156 27.9845C31.5281 27.5626 31.5 27.0845 31.2187 26.747C30.4594 25.9314 30.6281 24.1032 30.7969 23.0345Z" fill="#CC955E"/>
<path d="M27.0562 34.2281C26.9437 34.3687 26.9156 34.5375 26.8875 34.7343C26.8875 34.8468 26.8875 34.9593 26.9156 35.0437C26.9437 35.1281 27 35.1843 27.0843 35.2687C27.225 35.4093 27.45 35.4937 27.6468 35.4656C27.7593 35.6906 28.0125 35.8593 28.2937 35.8875C28.5468 35.9156 28.8281 35.8593 29.0812 35.8031C29.4468 35.7187 29.8406 35.6062 30.0937 35.325C30.3187 35.0718 30.4875 34.7625 30.4593 34.425C30.4593 34.7062 30.2625 34.9312 30.0375 35.1C29.8125 35.2687 29.5593 35.3531 29.2781 35.4375C29.3062 35.2406 29.2781 35.0156 29.1937 34.8187C29.1093 34.65 28.9687 34.5375 28.8 34.4531C28.6312 34.3968 28.4343 34.3968 28.2656 34.4531C28.4343 34.2 28.7156 34.0593 28.9687 33.9187C28.7437 33.975 28.5187 34.0593 28.35 34.2C28.2937 34.2281 28.2375 34.2843 28.2093 34.2562C28.1812 34.2562 28.1812 34.2281 28.1531 34.2281C27.8718 33.975 27.2812 33.9187 27.0562 34.2281Z" fill="#77512F"/>
<path d="M28.0126 34.8188C28.1251 34.65 28.3501 34.5375 28.5469 34.5657C28.7157 34.5938 28.8563 34.6782 28.9688 34.7907C29.0532 34.9313 29.1094 35.0719 29.1094 35.2407C29.1094 35.325 29.0813 35.4094 29.0532 35.4657C28.9969 35.55 28.8844 35.5782 28.7719 35.6063C28.5469 35.6344 28.1813 35.6344 28.0126 35.4657C27.8157 35.325 27.9001 34.9875 28.0126 34.8188ZM28.0126 34.5938C27.9563 34.65 27.9563 34.7344 27.9001 34.8188C27.8438 34.9313 27.7876 35.0157 27.6751 35.1C27.5626 35.1844 27.4219 35.1563 27.3094 35.0719C27.1969 34.9875 27.1688 34.875 27.1407 34.7344C27.1126 34.6219 27.1407 34.5375 27.1688 34.425C27.1969 34.3407 27.2813 34.2282 27.3657 34.2C27.4219 34.1719 27.4782 34.1719 27.5626 34.1438C27.7876 34.1438 28.2094 34.3125 28.0126 34.5938Z" fill="#E0C870"/>
<path d="M26.8593 28.4343C26.9718 28.0687 26.8312 27.5624 27.1125 27.3093C27.225 27.2249 27.3656 27.1687 27.4781 27.0843C27.7031 26.8874 27.6468 26.5499 27.5906 26.2968C27.4218 25.5937 27.2531 24.8624 26.8875 24.2437C26.4937 23.6249 25.8468 23.1187 25.0875 23.0624C24.6375 23.0343 24.2437 23.203 23.85 23.3999C24.2437 24.1874 24.8343 24.9187 25.3687 25.6499C25.6781 26.0718 26.0437 26.5218 25.9875 27.028C25.9593 27.1968 25.9031 27.3374 25.8468 27.5062C25.5375 28.2937 25.2562 29.0812 24.9468 29.8687C24.8625 30.0937 24.4125 30.4874 24.2437 30.6843C24.1312 30.7968 23.9906 30.8812 23.8781 30.9937C23.6812 31.2187 23.6812 31.5562 23.4843 31.8093C23.4 31.8937 23.3156 31.978 23.2312 32.0343C23.5968 32.0624 23.9625 32.1187 24.3281 32.1468C24.4406 32.1468 24.5531 32.1749 24.6375 32.2312C24.8625 32.3437 24.975 32.6249 25.1437 32.8218L25.2281 32.9062C25.3125 32.9343 25.3968 32.8499 25.425 32.7655C25.4531 32.6812 25.3968 32.5968 25.3968 32.4843C25.3406 32.1187 25.5375 31.7812 25.65 31.4437C25.7062 31.1905 25.7343 30.9655 25.7625 30.7124C25.7906 30.5155 25.8468 30.3468 25.9031 30.1499C26.0156 29.7843 26.1843 29.4468 26.4093 29.1374C26.5781 28.9124 26.775 28.6874 26.8593 28.4343Z" fill="#BC8550"/>
<path d="M13.6969 17.9437C13.3875 18.1687 13.0781 18.4219 12.7688 18.675C12.4313 18.9281 12.0656 19.2094 11.6438 19.2094C11.25 19.2094 10.8844 19.0125 10.6031 18.7312C10.0688 18.1969 9.7875 17.4094 9.9 16.6781C9.98438 15.9469 10.4625 15.2437 11.1094 14.85C10.3219 15.0469 9.675 15.6656 9.39375 16.3969C9.02813 15.4406 9.05625 14.3719 9.50625 13.4437C9.3375 13.5844 9.225 13.7812 9.19688 14.0062C8.63438 11.7281 9.39375 9.19687 11.1375 7.59375C10.2937 8.26875 9.08438 8.49375 8.04375 8.12812C7.7625 8.01562 7.45312 7.875 7.17188 7.90313C7.48125 8.4375 7.67813 9.08438 7.7625 9.70312C7.875 10.6031 7.84687 11.5312 7.84687 12.4594C7.84687 13.8937 8.01563 15.3 8.325 16.6781C8.4375 17.1844 8.63438 17.6906 9.05625 17.9719C9.53438 19.1813 10.4063 20.2781 11.5031 21.0094C12.1219 21.4312 12.825 21.7688 13.5563 22.0781C11.8969 19.4344 13.6969 17.9437 13.6969 17.9437Z" fill="#CC955E"/>
<path d="M10.3782 3.74072C10.3782 3.74072 11.1375 4.97822 10.8563 5.99072C10.575 7.0876 9.64692 8.46572 7.90317 7.81885C6.15942 7.17197 5.73755 8.3251 5.73755 8.3251C5.73755 8.3251 6.30005 7.67822 6.89067 7.7626C7.4813 7.84697 8.07192 8.2126 8.29692 8.26885C8.52192 8.3251 10.125 8.7751 11.1375 7.50947C12.15 6.24385 11.8407 4.0501 11.8407 4.0501L10.3782 3.74072Z" fill="#CE965F"/>
<path d="M11.8125 4.64062C11.8125 4.64062 12.7125 8.15625 9.3938 8.40937C9.3938 8.38125 12.0375 7.90312 11.8125 4.64062Z" fill="#B27B43"/>
<path d="M8.35313 8.2968H8.38125H8.35313ZM6.44063 7.64993C6.1875 7.70618 5.99063 7.8468 5.82188 8.04368C5.90625 7.87493 5.99063 7.67805 6.01875 7.45305C6.1875 6.55305 5.625 6.74993 5.625 6.74993L5.7375 7.1718L5.11875 8.49368L3.79688 9.56242C5.4 10.3499 5.87813 8.83118 5.87813 8.83118C6.01875 8.09993 6.46875 7.64993 7.56563 8.0718C7.81875 8.15618 8.04375 8.24055 8.26875 8.2968C7.48125 8.0718 7.28438 7.48118 6.44063 7.64993Z" fill="#B27B43"/>
<path d="M5.23122 6.8343C5.17497 6.8343 5.93434 6.4968 5.87809 7.11555C5.82184 7.9593 4.66872 9.22493 3.82497 9.59055C3.82497 9.59055 2.89684 10.0687 2.47497 9.92805C2.24997 9.84368 2.13747 9.59055 2.47497 8.9718L3.00934 8.80305C3.00934 8.80305 2.36247 9.95618 3.79684 9.11243C5.23122 8.26868 5.70934 7.25618 5.68122 7.0593C5.68122 6.89055 5.54059 6.77805 5.23122 6.8343Z" fill="#B27B43"/>
<path d="M5.45624 7.05933C5.45624 7.05933 4.16249 9.53433 2.64374 9.36558C2.64374 9.36558 2.27811 9.22495 2.69999 8.9437C2.69999 8.9437 4.35936 8.91558 5.45624 7.05933Z" fill="#210D0E"/>
<path d="M5.87808 7.0874C5.87808 7.0874 5.62496 8.8874 3.79683 9.6749C1.96871 10.4905 2.27808 9.47803 2.27808 9.47803C2.27808 9.47803 2.10933 10.378 4.07808 9.30928C5.28746 8.71865 5.87808 7.0874 5.87808 7.0874Z" fill="#F1BC7A"/>
<path d="M10.2375 3.88125C10.2375 3.88125 9.92809 3.0375 10.6312 1.9125C11.3625 0.7875 12.8812 0.84375 13.5 0.140625C13.5 0.140625 13.9781 2.41875 12.7125 3.54375C11.4468 4.64062 10.5187 4.21875 10.5187 4.21875L10.2375 3.88125Z" fill="#DBA567"/>
<path d="M10.7156 3.57192C10.7156 3.57192 10.2094 2.81255 11.1094 1.94067C11.4469 1.60317 12.825 1.0688 13.1906 0.815674C13.1906 0.815674 12.2625 4.02192 10.7156 3.57192Z" fill="#B27B43"/>
<path d="M10.7719 3.48746C10.7719 3.48746 10.3219 2.78434 11.1375 1.96871C11.4469 1.65934 12.6282 1.34996 12.9657 1.12496C12.9657 1.09684 12.2344 3.93746 10.7719 3.48746Z" fill="#FCA27D"/>
<path d="M11.925 1.82817L12.3469 1.57505C12.4594 1.49067 12.6563 1.37817 12.7125 1.23755C12.2344 1.46255 11.3907 1.71567 11.1375 1.9688C10.3219 2.78442 10.7719 3.48755 10.7719 3.48755C11.1094 3.60005 11.4188 3.51567 11.7 3.3188H11.6157C11.475 3.3188 11.3625 3.26255 11.2782 3.17817C11.25 3.15005 11.2219 3.0938 11.1938 3.03755C11.1094 2.81255 11.1938 2.5313 11.3344 2.33442C11.475 2.10942 11.7 1.9688 11.925 1.82817Z" fill="#FC857D"/>
<path d="M13.5 0.140625C13.5 0.140625 14.0344 1.575 13.1906 3.12188C12.3469 4.66875 10.6594 4.24688 10.5469 4.44375C10.5469 4.44375 10.2938 4.10625 10.6594 3.96563C11.025 3.825 12.0938 4.07813 12.825 2.95313C13.5563 1.77188 13.5 0.140625 13.5 0.140625Z" fill="#B27B43"/>
<path d="M12.9938 30.1782C12.9656 29.925 12.825 29.7 12.7406 29.4469C12.6563 29.1375 12.6844 28.8 12.7406 28.4907C12.8813 27.4782 13.0219 26.4938 13.1625 25.4813C13.2188 25.0032 13.3031 24.525 13.2469 24.0469C13.1344 23.1469 12.5719 22.3313 11.7563 21.8813C11.7281 21.8532 11.6438 21.825 11.5594 21.7688C11.6719 22.0219 11.7563 22.3032 11.8125 22.5844C12.0094 23.3438 11.9813 24.1313 11.9813 24.9188C11.9813 25.1157 11.9813 25.3125 11.925 25.4813C11.8688 25.6219 11.8125 25.7344 11.7563 25.8469C11.6156 26.2125 11.7 26.6063 11.8406 26.9719C11.9813 27.3375 12.15 27.675 12.2344 28.0688C12.375 28.7438 12.2906 29.4469 12.0656 30.0938C11.9813 30.375 11.7281 30.6282 11.6438 30.9094C11.5875 31.0782 11.5313 31.2469 11.4188 31.3875L11.3063 31.5C11.6719 31.5844 12.0375 31.7813 12.2625 32.0907C12.3188 32.175 12.4031 32.2594 12.5156 32.2875C12.6844 32.3157 12.825 32.1469 12.8531 32.0063C12.8813 31.8376 12.825 31.6969 12.825 31.5282C12.7406 31.0782 13.05 30.6282 12.9938 30.1782Z" fill="#BC8550"/>
<path d="M34.5093 20.4468C34.3968 20.0812 34.0874 19.828 33.8062 19.5749C33.5249 19.378 33.2437 19.153 32.9624 18.9843C33.1031 19.153 33.1875 19.378 33.1593 19.603C33.075 19.3218 32.8218 19.1249 32.5968 18.928C32.4562 18.8155 32.3156 18.6749 32.2312 18.5062C32.1749 18.4218 32.1468 18.253 32.0625 18.1968C32.0343 18.2249 32.0343 18.2812 32.0062 18.3655C31.95 18.8437 32.1187 19.3499 32.4281 19.7155C32.5406 19.8562 32.6812 19.9968 32.85 20.053C32.9906 20.1093 33.1593 20.1374 33.3281 20.1937C33.5531 20.278 33.7499 20.4187 33.9187 20.5874C33.8906 20.3905 33.8625 20.1655 33.7218 20.053C34.1437 20.278 34.425 20.7562 34.4531 21.2062C34.4531 21.2062 34.4531 21.178 34.4812 21.178C34.5374 20.953 34.5937 20.6999 34.5093 20.4468Z" fill="#7C3F16"/>
<path d="M17.4094 22.5845L17.3812 23.3157C17.4656 23.3438 17.55 23.3438 17.6344 23.372C19.0969 23.6251 20.5875 23.6813 22.05 23.372C23.4844 23.0626 24.9469 22.4438 26.0156 21.4595L24.4687 19.2095C23.4281 23.2876 17.4094 22.5845 17.4094 22.5845Z" fill="#C48D5B"/>
<path d="M24.3282 17.1843C24.3282 17.1843 23.4 17.9156 26.0157 21.4593C26.0157 21.4593 22.8657 18.8437 24.3282 17.1843ZM17.775 21.825C18.0282 21.1218 18.1125 20.3625 18.0563 19.6312C17.8875 20.8125 17.2688 21.8812 17.0438 23.0343C16.9875 23.3156 16.9594 23.625 16.8469 23.9062C16.65 24.4125 16.2282 24.8062 15.9469 25.2562C15.6094 25.8187 15.4688 26.4937 15.5813 27.1406C15.6094 27.3656 15.6938 27.6187 15.6938 27.8437C15.6938 28.2375 15.4688 28.575 15.3563 28.9406C15.1594 29.475 15.1032 30.0375 15.1875 30.6C15.2719 31.1625 15.4969 31.725 15.3282 32.2875C15.2438 32.4843 15.1313 32.6812 15.1032 32.9062C15.0469 33.3843 15.525 33.8906 15.2719 34.3125C15.2438 34.3406 15.2438 34.3687 15.1875 34.3968C15.1032 34.425 15.0188 34.3687 14.9625 34.3125C14.5688 33.9749 14.1469 33.6937 13.6688 33.5812C13.5563 33.5531 13.4157 33.5249 13.3032 33.5249L12.7969 33.7781C12.5157 33.9468 12.2625 34.2843 12.4313 34.5937C12.4875 34.7062 12.6 34.7624 12.7125 34.8468C12.9657 35.0156 13.2469 35.1843 13.5282 35.2968C14.0907 35.4937 14.7938 35.3531 15.2438 34.9593C15.6938 34.5656 15.9188 33.9187 15.7782 33.3562C15.75 33.2437 15.7219 33.1312 15.7219 32.9906C15.7219 32.7937 15.8625 32.625 15.9188 32.4281C16.0875 31.9781 15.8907 31.4718 15.8063 30.9937C15.6657 30.3187 15.6938 29.6156 15.8907 28.9687C16.0313 28.4906 16.2563 28.0406 16.3125 27.5625C16.3688 27.0843 16.2563 26.5781 16.3688 26.0718C16.4813 25.5937 16.7907 25.1718 17.0157 24.7218C17.2407 24.2718 17.4094 23.7656 17.4938 23.2593C17.5219 23.1468 17.5782 22.9781 17.6907 22.8093C17.8594 22.1625 18.1969 21.3468 18.5907 20.8125C18.2532 21.1781 18 21.4875 17.775 21.825Z" fill="#CC955E"/>
<path d="M12.4594 33.9749C12.3469 34.1155 12.3187 34.2843 12.3187 34.453C12.3187 34.5655 12.3187 34.6499 12.3469 34.7624C12.375 34.8468 12.4312 34.903 12.4875 34.9593C12.6281 35.0999 12.825 35.1843 13.0219 35.128C13.1344 35.353 13.3875 35.4937 13.6406 35.5218C13.8937 35.5499 14.1469 35.4937 14.4 35.4374C14.7656 35.353 15.1312 35.2405 15.3562 34.9874C15.5812 34.7624 15.6656 34.4249 15.6656 34.1155C15.6656 34.3687 15.4969 34.6218 15.3 34.7624C15.1031 34.9312 14.8219 35.0155 14.5687 35.0999C14.5969 34.903 14.5687 34.7062 14.4844 34.5093C14.4 34.3687 14.2594 34.228 14.1187 34.1718C13.95 34.1155 13.7812 34.1155 13.6125 34.1718C13.7812 33.9468 14.0344 33.8062 14.2875 33.6655C14.0625 33.6937 13.8656 33.8062 13.6969 33.9468C13.6687 33.9749 13.6125 34.0312 13.5562 34.003C13.5281 34.003 13.5281 33.9749 13.5 33.9749C13.2469 33.7218 12.6844 33.6937 12.4594 33.9749Z" fill="#77512F"/>
<path d="M13.3593 34.5656C13.4718 34.3969 13.6687 34.3125 13.8656 34.3406C14.0343 34.3688 14.175 34.4531 14.2593 34.5656C14.3437 34.6781 14.4 34.8469 14.4 34.9875C14.4 35.0719 14.3718 35.1563 14.3437 35.2125C14.2875 35.2969 14.175 35.325 14.0625 35.325C13.8375 35.3531 13.5 35.3531 13.3312 35.1844C13.1906 35.0438 13.275 34.7063 13.3593 34.5656ZM13.3593 34.3406C13.3031 34.3969 13.3031 34.4813 13.2468 34.5656C13.1906 34.65 13.1343 34.7625 13.05 34.8469C12.9656 34.9313 12.7968 34.9031 12.7125 34.8188C12.6281 34.7344 12.5718 34.6219 12.5437 34.5094C12.5437 34.425 12.5437 34.3125 12.5718 34.2281C12.6 34.1438 12.6562 34.0594 12.7687 34.0031C12.825 33.975 12.8812 33.975 12.9656 33.9469C13.1625 33.9188 13.5562 34.0594 13.3593 34.3406Z" fill="#E0C870"/>
<path d="M26.1562 12.0374C25.4812 11.5312 24.975 11.3905 24.3 10.8562C24.1031 10.7155 23.9062 10.5749 23.6812 10.4624C24.1593 11.3343 24.6656 12.7687 23.2312 13.6124C21.0937 14.8218 20.8969 16.1718 20.8969 16.1718C22.3312 14.5405 27.1406 13.303 29.2219 15.2999C31.0219 17.0155 30.5156 19.4905 30.5156 19.4905L30.9656 17.6905C30.7687 16.3405 30.3469 14.9905 29.3344 14.0624C28.4625 13.1905 27.1687 12.8249 26.1562 12.0374Z" fill="#CC955E"/>
<path d="M18.1688 12.7407C17.9719 12.8532 17.775 12.9376 17.5781 13.0782C16.7906 13.6407 16.3125 14.597 15.4406 14.9626C14.85 15.2157 14.1469 15.1313 13.5563 14.8501C14.0344 15.2157 14.7656 15.5532 15.8344 15.3001C17.775 14.8501 17.0719 13.2751 18.1688 12.7407Z" fill="#F1BC7A"/>
<path d="M12.7969 14.3157C12.7969 14.3157 13.05 14.5688 13.6406 14.8782C14.3719 15.2719 15.5812 15.6375 17.325 15.0188C17.2969 15.0188 14.4563 16.7063 12.7969 14.3157Z" fill="#CC955E"/>
<path d="M13.2187 19.547C13.1906 20.1938 13.4156 20.8407 13.6406 21.4876C14.1749 23.1188 14.4843 24.8063 14.5687 26.522V26.6907C14.5406 26.8032 14.3999 26.8876 14.3156 26.972C14.0906 27.197 14.0624 27.5626 14.1187 27.872C14.2031 28.1813 14.3437 28.4626 14.4843 28.772C14.8499 29.7001 14.8499 30.7407 14.6531 31.697C14.5968 31.9782 14.5124 32.2313 14.3999 32.5126C14.2593 32.8501 14.0906 33.1595 13.8656 33.4126C14.0062 33.3845 14.1749 33.3563 14.3156 33.3282C14.3437 33.3282 14.3999 33.3001 14.4281 33.3282C14.4843 33.3563 14.4843 33.3845 14.5124 33.4126C14.5968 33.497 14.7374 33.5251 14.8218 33.4688C14.7374 32.9345 14.6531 32.4001 14.7374 31.8938C14.7656 31.6688 14.8499 31.4438 14.8781 31.2188C14.9624 30.797 14.9906 30.3751 14.9062 29.9532C14.8218 29.447 14.6249 28.8845 14.8781 28.4345C14.9906 28.2095 15.2156 28.0407 15.3281 27.8157C15.4124 27.647 15.4687 27.4501 15.4406 27.2813C15.4406 27.1688 15.3843 27.0563 15.2718 27.0001C15.0749 26.9438 14.9624 27.2251 14.9624 27.422C14.9624 27.6188 14.8499 27.9001 14.6531 27.8157C14.6531 27.5907 14.7093 27.3938 14.7937 27.197C14.5968 27.197 14.4281 27.3938 14.4281 27.5907C14.2593 27.5907 14.1468 27.3376 14.2593 27.2251C14.3156 27.1688 14.3718 27.1407 14.4281 27.0845C14.5406 27.0001 14.5687 26.8595 14.5968 26.747C14.7656 26.072 14.8218 25.3688 14.7656 24.6938C14.7093 23.6532 14.3999 22.6407 14.2593 21.6001C14.1749 21.0657 14.1187 20.5313 14.1468 19.997C14.1749 19.7157 14.2031 19.4345 14.2593 19.1813C14.3156 18.9563 14.5124 18.647 14.5406 18.422C14.5687 18.0282 14.0906 18.0563 13.8374 18.2532C13.4156 18.5063 13.2187 19.097 13.2187 19.547ZM26.5781 22.1345C27.3937 23.5407 28.1531 24.9751 28.7999 26.4376C29.1374 27.1688 29.4749 27.9563 29.4749 28.7438C29.5031 29.4751 29.2781 30.1782 29.0531 30.8813C28.7718 31.8095 28.4624 32.7657 28.1812 33.6938C28.4624 33.5251 28.8281 33.6095 29.0249 33.8626C29.1374 34.0313 29.2499 34.3126 29.4468 34.2563C29.6156 34.0032 29.5593 33.6376 29.3343 33.4407C29.2218 33.3563 29.1093 33.3001 29.0249 33.1876C28.9687 33.0751 28.9687 32.9626 28.9687 32.822C29.0531 31.3876 29.5031 29.9532 30.2906 28.7157C30.5718 28.2938 30.8531 27.7595 30.5437 27.3657C30.2906 27.3376 30.4874 27.872 30.2624 28.0126C30.1499 28.0688 29.9812 27.9845 29.9531 27.8438C29.9249 27.7032 29.9812 27.5907 30.0374 27.4501C29.7843 27.5345 29.5874 27.8157 29.6437 28.0688C29.5031 27.7876 29.5312 27.422 29.7281 27.1407C29.7562 27.0845 29.8124 27.0282 29.8406 26.972C29.8687 26.8595 29.7843 26.747 29.6999 26.6626C28.7156 25.5095 28.0968 24.1595 27.5343 22.7813C27.0562 21.6563 26.6062 20.5032 26.1562 19.3501C25.9874 18.9001 25.8187 18.4501 25.7906 17.972C25.7624 17.5782 25.7343 16.5938 25.0312 16.9313C24.5531 17.1563 24.7781 17.972 24.8343 18.3376C25.1437 19.7438 25.9031 20.9532 26.5781 22.1345Z" fill="#F2BD7B"/>
</svg>
