<svg width="42" height="42" viewBox="0 0 42 42" fill="none" xmlns="http://www.w3.org/2000/svg">
<path d="M21 37.7999C30.2783 37.7999 37.7999 30.2783 37.7999 21C37.7999 11.7216 30.2783 4.19995 21 4.19995C11.7216 4.19995 4.19995 11.7216 4.19995 21C4.19995 30.2783 11.7216 37.7999 21 37.7999Z" fill="#ECB751"/>
<path d="M21 4.19995C18.7937 4.19995 16.6091 4.63451 14.5709 5.47878C12.5326 6.32306 10.6806 7.56054 9.12057 9.12057C7.56054 10.6806 6.32306 12.5326 5.47878 14.5709C4.63451 16.6091 4.19995 18.7937 4.19995 21C4.20312 22.4475 4.39337 23.8886 4.76597 25.2875L25.2779 4.77554C23.8826 4.40052 22.4447 4.20706 21 4.19995ZM26.7599 5.24038L5.23491 26.7654C5.49232 27.4727 5.79698 28.162 6.14683 28.8285L28.8285 6.14683C28.1601 5.79862 27.469 5.49579 26.7599 5.24038ZM36.8416 15.4656L15.4656 36.8416C16.0653 37.0529 16.6765 37.23 17.2962 37.372L37.3666 17.3017C37.2265 16.6802 37.0512 16.0672 36.8416 15.4656Z" fill="#FDEFB4"/>
<path d="M21 34.3C28.3453 34.3 34.3 28.3453 34.3 21C34.3 13.6546 28.3453 7.69995 21 7.69995C13.6546 7.69995 7.69995 13.6546 7.69995 21C7.69995 28.3453 13.6546 34.3 21 34.3Z" fill="#FAD461"/>
<path d="M26.0819 8.71436C27.7994 9.94399 29.1993 11.565 30.1657 13.4432C31.1322 15.3214 31.6374 17.4029 31.6395 19.5151C31.6395 23.0425 30.2383 26.4254 27.744 28.9197C25.2498 31.4139 21.8669 32.8151 18.3395 32.8151C16.5959 32.8133 14.8697 32.4686 13.259 31.8007C15.515 33.4218 18.222 34.2957 21 34.2999C24.5274 34.2999 27.9103 32.8987 30.4046 30.4044C32.8988 27.9102 34.3 24.5273 34.3 20.9999C34.299 18.3689 33.5176 15.7972 32.0548 13.6104C30.5919 11.4235 28.5133 9.71966 26.0819 8.71436Z" fill="#ECB751"/>
<path d="M21 3.5C11.3433 3.5 3.5 11.3433 3.5 21C3.5 30.6567 11.3433 38.5 21 38.5C30.6567 38.5 38.5 30.6567 38.5 21C38.5 11.3433 30.6567 3.5 21 3.5ZM21 4.9C29.9001 4.9 37.1 12.0999 37.1 21C37.1 29.9001 29.9001 37.1 21 37.1C12.0999 37.1 4.9 29.9001 4.9 21C4.9 12.0999 12.0999 4.9 21 4.9ZM21 7C13.2763 7 7 13.2763 7 21C7 24.135 8.03302 27.037 9.77676 29.3713C9.88789 29.5201 10.0536 29.6187 10.2375 29.6454C10.4213 29.6721 10.6082 29.6246 10.757 29.5135C10.9059 29.4023 11.0045 29.2366 11.0312 29.0528C11.0578 28.8689 11.0104 28.682 10.8992 28.5332C9.32923 26.4315 8.4 23.8279 8.4 21C8.4 14.0329 14.0329 8.4 21 8.4C27.9671 8.4 33.6 14.0329 33.6 21C33.6 27.9671 27.9671 33.6 21 33.6C18.9678 33.6 17.0528 33.1208 15.3549 32.2684C15.2727 32.227 15.1833 32.2023 15.0915 32.1956C14.9998 32.1888 14.9077 32.2002 14.8204 32.2291C14.7331 32.258 14.6524 32.3038 14.5828 32.3638C14.5132 32.4239 14.4561 32.4972 14.4148 32.5793C14.3735 32.6615 14.3488 32.751 14.3421 32.8427C14.3353 32.9344 14.3468 33.0265 14.3757 33.1138C14.4046 33.2011 14.4504 33.2818 14.5105 33.3514C14.5706 33.421 14.6438 33.4781 14.726 33.5193C16.6133 34.4669 18.7471 35 21 35C28.7237 35 35 28.7237 35 21C35 13.2763 28.7237 7 21 7ZM20.9891 12.6068C20.8037 12.6097 20.627 12.6861 20.4978 12.8191C20.3686 12.9521 20.2975 13.131 20.3 13.3164V14.5961C20.2097 14.6121 20.1193 14.6189 20.0293 14.6412C20.0288 14.6412 20.0284 14.6412 20.0279 14.6412C18.3843 15.0493 17.1923 16.4601 17.1923 18.1016C17.1923 19.7374 18.3778 21.1417 20.0128 21.5551C20.9859 21.85 21.5676 21.7277 22.2455 22.0035C23.1795 22.5171 23.6009 23.4819 23.3324 24.4098C23.0612 25.3466 22.1196 26.0381 21.0027 26.0381C19.8858 26.0381 18.9428 25.3466 18.6716 24.4098C18.6461 24.3214 18.6034 24.239 18.5459 24.1671C18.4885 24.0953 18.4175 24.0355 18.3369 23.9911C18.2563 23.9467 18.1678 23.9186 18.0764 23.9084C17.985 23.8982 17.8925 23.9062 17.8041 23.9318C17.7158 23.9574 17.6333 24.0001 17.5615 24.0575C17.4897 24.115 17.4298 24.1861 17.3855 24.2666C17.3411 24.3472 17.3131 24.4357 17.3029 24.5272C17.2928 24.6186 17.3007 24.7111 17.3263 24.7994C17.7192 26.1568 18.8994 27.1239 20.3 27.3711V28.6836C20.2986 28.7764 20.3158 28.8685 20.3504 28.9546C20.385 29.0406 20.4363 29.119 20.5014 29.185C20.5666 29.2511 20.6442 29.3035 20.7298 29.3394C20.8153 29.3752 20.9072 29.3936 21 29.3936C21.0927 29.3936 21.1846 29.3752 21.2701 29.3394C21.3557 29.3035 21.4333 29.2511 21.4985 29.185C21.5636 29.119 21.615 29.0406 21.6495 28.9546C21.6841 28.8685 21.7013 28.7764 21.7 28.6836V27.3725C23.1026 27.1269 24.2843 26.1586 24.6777 24.7994C25.135 23.2193 24.3708 21.5418 22.8867 20.7485C22.8684 20.739 22.8497 20.7303 22.8306 20.7225C21.7798 20.2757 21.074 20.4214 20.4039 20.2139C20.3912 20.2099 20.3784 20.2062 20.3656 20.203C19.2906 19.9361 18.5923 19.0658 18.5923 18.1016C18.5923 17.1371 19.2906 16.2671 20.3656 16.0002C21.4405 15.7337 22.5683 16.1796 23.0999 17.0325C23.1486 17.1105 23.2121 17.1782 23.2869 17.2317C23.3617 17.2851 23.4464 17.3234 23.5359 17.3441C23.6255 17.3649 23.7183 17.3678 23.809 17.3527C23.8997 17.3376 23.9866 17.3048 24.0646 17.2561C24.1426 17.2075 24.2103 17.1439 24.2638 17.0691C24.3172 16.9943 24.3554 16.9097 24.3761 16.8201C24.3969 16.7305 24.3998 16.6377 24.3847 16.547C24.3695 16.4563 24.3367 16.3695 24.288 16.2914C23.7102 15.3646 22.7548 14.7648 21.6999 14.5811V13.3164C21.7012 13.2228 21.6837 13.1298 21.6484 13.0431C21.6131 12.9563 21.5608 12.8775 21.4945 12.8114C21.4282 12.7452 21.3493 12.693 21.2625 12.6579C21.1757 12.6228 21.0827 12.6054 20.989 12.6069L20.9891 12.6068ZM31.4153 23.3775C31.3407 23.3821 31.2695 23.4105 31.2121 23.4585C31.1548 23.5065 31.1144 23.5715 31.0967 23.6441C30.5856 25.5958 29.5178 27.3624 28.0205 28.7232C27.985 28.7537 27.9559 28.791 27.935 28.8329C27.9141 28.8747 27.9018 28.9204 27.8988 28.9671C27.8959 29.0139 27.9024 29.0607 27.9179 29.1049C27.9333 29.1491 27.9575 29.1897 27.989 29.2244C28.0205 29.259 28.0586 29.2871 28.101 29.3067C28.1435 29.3264 28.1895 29.3374 28.2363 29.3389C28.2831 29.3405 28.3297 29.3327 28.3735 29.316C28.4172 29.2992 28.4571 29.2739 28.4908 29.2414C30.0887 27.7892 31.2294 25.9046 31.7748 23.8219C31.7891 23.7709 31.7917 23.7173 31.7823 23.6652C31.7729 23.6131 31.7518 23.5639 31.7206 23.5211C31.6894 23.4783 31.6489 23.4432 31.6022 23.4183C31.5555 23.3934 31.5037 23.3795 31.4508 23.3775C31.439 23.3769 31.4271 23.3769 31.4152 23.3775H31.4153ZM26.8502 29.709C26.7835 29.7103 26.7185 29.7307 26.6629 29.7678C26.5178 29.8615 26.3692 29.9515 26.2186 30.0385C26.1381 30.0849 26.0793 30.1614 26.0552 30.2511C26.0311 30.3409 26.0436 30.4365 26.0901 30.517C26.1365 30.5975 26.213 30.6563 26.3027 30.6804C26.3924 30.7045 26.4881 30.6919 26.5686 30.6455C26.7292 30.5528 26.8868 30.4556 27.0416 30.3557C27.1064 30.3151 27.1562 30.2544 27.1832 30.1829C27.2103 30.1114 27.2132 30.033 27.1915 29.9597C27.1698 29.8863 27.1247 29.8221 27.063 29.7769C27.0014 29.7316 26.9267 29.7078 26.8502 29.709V29.709ZM12.2664 30.3105C12.1213 30.3059 11.9783 30.3465 11.8572 30.4267C11.7362 30.5069 11.6431 30.6228 11.5908 30.7583C11.5385 30.8937 11.5297 31.0421 11.5655 31.1829C11.6013 31.3236 11.68 31.4497 11.7906 31.5437C11.9705 31.701 12.1538 31.8538 12.3416 32.0018C12.4136 32.0608 12.4966 32.105 12.5858 32.1316C12.675 32.1582 12.7686 32.1667 12.8612 32.1567C12.9538 32.1467 13.0434 32.1183 13.1248 32.0732C13.2063 32.0282 13.2779 31.9673 13.3356 31.8942C13.3932 31.8211 13.4357 31.7372 13.4606 31.6475C13.4854 31.5578 13.4921 31.464 13.4803 31.3717C13.4684 31.2793 13.4383 31.1903 13.3916 31.1097C13.3449 31.0292 13.2826 30.9587 13.2084 30.9025C13.0393 30.7693 12.8741 30.6312 12.7121 30.4896C12.5893 30.3793 12.4315 30.3158 12.2664 30.3105Z" fill="#2D3A66"/>
<path d="M12.2 21.4027C13.9792 22.4299 16.5994 21.2224 18.0524 18.7057C19.5054 16.189 19.2411 13.316 17.4619 12.2889C15.6828 11.2617 13.0626 12.4692 11.6095 14.9859C10.1565 17.5026 10.4209 20.3755 12.2 21.4027Z" fill="#FDEFB4"/>
<path d="M13.0907 26.1905C14.2323 26.1905 15.1578 25.4922 15.1578 24.6309C15.1578 23.7695 14.2323 23.0713 13.0907 23.0713C11.949 23.0713 11.0236 23.7695 11.0236 24.6309C11.0236 25.4922 11.949 26.1905 13.0907 26.1905Z" fill="#FDEFB4"/>
<path d="M18.9779 15.0786C17.9029 15.7166 17.1924 16.8378 17.1924 18.1015C17.1924 18.6011 17.3135 19.0735 17.5137 19.5083C17.7096 19.2543 17.8899 18.9856 18.0523 18.7058C18.7216 17.5451 19.0527 16.2479 18.9779 15.0786Z" fill="#8D8D81"/>
<path d="M18.9779 15.0786C17.9029 15.7166 17.1924 16.8378 17.1924 18.1015C17.1924 18.6011 17.3135 19.0735 17.5137 19.5083C17.7096 19.2543 17.8899 18.9856 18.0523 18.7058C18.7216 17.5451 19.0527 16.2479 18.9779 15.0786Z" fill="#8D8D81"/>
</svg>
