<svg width="39" height="39" viewBox="0 0 39 39" fill="none" xmlns="http://www.w3.org/2000/svg">
<path d="M13.4062 34.1298H1.21875L2.63006 28.4845C2.72415 28.1078 2.94153 27.7733 3.24763 27.5344C3.55372 27.2954 3.93093 27.1657 4.31925 27.1658H10.3058C11.1053 27.1658 11.8012 27.7094 11.9949 28.4845L13.4062 34.1298ZM25.5938 34.1298H13.4062L14.8176 28.4845C14.9117 28.1078 15.129 27.7733 15.4351 27.5344C15.7412 27.2954 16.1184 27.1657 16.5067 27.1658H22.4932C23.2927 27.1658 23.9887 27.7094 24.1824 28.4845L25.5938 34.1298ZM37.7812 34.1298H25.5938L27.0051 28.4845C27.0992 28.1078 27.3165 27.7733 27.6226 27.5344C27.9287 27.2954 28.3059 27.1657 28.6943 27.1658H34.6807C35.4802 27.1658 36.1762 27.7094 36.3699 28.4845L37.7812 34.1298ZM19.5 27.1646H7.3125L8.72381 21.5194C8.8179 21.1426 9.03528 20.8082 9.34138 20.5692C9.64747 20.3303 10.0247 20.2005 10.413 20.2007H16.3995C17.199 20.2007 17.8949 20.7442 18.0887 21.5194L19.5 27.1646ZM31.6875 27.1646H19.5L20.9113 21.5194C21.0054 21.1426 21.2228 20.8082 21.5289 20.5692C21.835 20.3303 22.2122 20.2005 22.6005 20.2007H28.587C29.3865 20.2007 30.0824 20.7442 30.2762 21.5194L31.6875 27.1646Z" fill="#FFCC5C"/>
<path d="M25.5938 20.2008H13.4062L14.8176 14.5555C14.9117 14.1788 15.129 13.8443 15.4351 13.6053C15.7412 13.3664 16.1184 13.2367 16.5067 13.2368H22.4932C23.2927 13.2368 23.9887 13.7804 24.1824 14.5555L25.5938 20.2008Z" fill="#FFCC5C"/>
<path d="M11.9949 28.4845C11.9008 28.1078 11.6835 27.7733 11.3774 27.5344C11.0713 27.2954 10.6941 27.1657 10.3058 27.1658H9.05531L9.60253 29.3559C9.69235 29.7153 9.6991 30.0903 9.62227 30.4527C9.54544 30.815 9.38704 31.155 9.15912 31.447C8.9312 31.7389 8.63975 31.9751 8.30689 32.1376C7.97404 32.3 7.60854 32.3845 7.23816 32.3845H1.65628L1.21875 34.1298H13.4062L11.9949 28.4845ZM24.1824 28.4845C24.0883 28.1078 23.871 27.7733 23.5649 27.5344C23.2588 27.2954 22.8816 27.1657 22.4932 27.1658H21.2428L21.79 29.3559C21.8798 29.7153 21.8866 30.0903 21.8098 30.4527C21.7329 30.815 21.5745 31.155 21.3466 31.447C21.1187 31.7389 20.8272 31.9751 20.4944 32.1376C20.1615 32.3 19.796 32.3845 19.4257 32.3845H13.8438L13.4062 34.1298H25.5938L24.1824 28.4845ZM36.3699 28.4845C36.2758 28.1078 36.0585 27.7733 35.7524 27.5344C35.4463 27.2954 35.0691 27.1657 34.6807 27.1658H33.4303L33.9775 29.3559C34.0673 29.7153 34.0741 30.0903 33.9973 30.4527C33.9204 30.815 33.762 31.155 33.5341 31.447C33.3062 31.7389 33.0147 31.9751 32.6819 32.1376C32.349 32.3 31.9835 32.3845 31.6132 32.3845H26.0313L25.5938 34.1298H37.7812L36.3699 28.4845ZM18.0887 21.5194C17.9946 21.1426 17.7772 20.8082 17.4711 20.5692C17.165 20.3303 16.7878 20.2005 16.3995 20.2007H15.1491L15.6963 22.3908C15.7861 22.7501 15.7928 23.1252 15.716 23.4875C15.6392 23.8498 15.4808 24.1899 15.2529 24.4818C15.025 24.7738 14.7335 25.0099 14.4006 25.1724C14.0678 25.3349 13.7023 25.4193 13.3319 25.4194H7.75003L7.3125 27.1646H19.5L18.0887 21.5194ZM30.2762 21.5194C30.1821 21.1426 29.9647 20.8082 29.6586 20.5692C29.3525 20.3303 28.9753 20.2005 28.587 20.2007H27.3366L27.8838 22.3908C27.9736 22.7501 27.9803 23.1252 27.9035 23.4875C27.8267 23.8498 27.6683 24.1899 27.4404 24.4818C27.2125 24.7738 26.921 25.0099 26.5881 25.1724C26.2553 25.3349 25.8898 25.4193 25.5194 25.4194H19.9375L19.5 27.1646H31.6875L30.2762 21.5194Z" fill="#F7B546"/>
<path d="M24.1824 14.5555C24.0883 14.1788 23.871 13.8443 23.5649 13.6053C23.2588 13.3664 22.8816 13.2367 22.4932 13.2368H21.2428L21.79 15.4269C21.8798 15.7862 21.8866 16.1613 21.8098 16.5236C21.7329 16.886 21.5745 17.226 21.3466 17.518C21.1187 17.8099 20.8272 18.0461 20.4944 18.2085C20.1615 18.371 19.796 18.4554 19.4257 18.4555H13.8438L13.4062 20.2008H25.5938L24.1824 14.5555Z" fill="#F7B546"/>
<path d="M24.8625 10.3034L26.8125 9.81592L24.8625 9.32842L24.375 7.37842L23.8875 9.32842L21.9375 9.81592L23.8875 10.3034L24.375 12.2534L24.8625 10.3034ZM29.6156 12.619L31.0781 12.2534L29.6156 11.8878L29.25 10.4253L28.8844 11.8878L27.4219 12.2534L28.8844 12.619L29.25 14.0815L29.6156 12.619ZM28.8844 7.62217L29.8594 7.37842L28.8844 7.13467L28.6406 6.15967L28.3969 7.13467L27.4219 7.37842L28.3969 7.62217L28.6406 8.59717L28.8844 7.62217Z" fill="#FFCC5C"/>
</svg>
