<svg width="46" height="46" viewBox="0 0 46 46" fill="none" xmlns="http://www.w3.org/2000/svg">
<path d="M45.08 19.9641V26.0361L23.092 38.8241V32.7521L45.08 19.9641Z" fill="#603F22"/>
<path d="M23.092 32.7521V38.8241L0.920044 26.0361V19.9641L23.092 32.7521Z" fill="#704E2C"/>
<path d="M45.08 19.964L23.092 32.752L0.920044 19.964L22.908 7.17603L45.08 19.964Z" fill="#80BC41"/>
<path d="M22.9079 7.17603L7.54395 16.1C7.72795 16.1 7.91195 16.192 8.00395 16.192C8.09595 16.192 8.09595 16.284 8.18795 16.284C8.27995 16.468 8.00395 16.56 8.00395 16.744C8.00395 16.836 8.09595 16.928 8.27995 17.02C9.19995 17.48 10.3959 17.388 11.4079 17.48C12.1439 17.572 12.6959 17.94 12.2359 18.124C11.9599 18.216 11.8679 18.4 12.1439 18.584C12.5119 18.86 13.3399 19.136 13.7999 19.228C16.5599 20.056 15.3639 20.148 16.3759 20.608C16.4679 20.608 16.5599 20.7 16.7439 20.7C17.2039 20.884 20.2399 20.884 19.5039 21.62C19.3199 21.804 19.1359 21.896 19.4119 22.172C19.5039 22.264 19.5039 22.264 19.5959 22.264C20.9759 22.908 22.7239 22.448 23.6439 23.644C24.5639 24.84 26.2199 24.288 27.5079 24.84C28.1519 25.116 27.2319 25.3 27.4159 25.576C27.7839 26.22 30.7279 26.22 31.7399 26.68C31.8319 26.68 31.8319 26.772 31.9239 26.772C32.1079 26.956 32.1999 27.048 32.2919 27.232C32.2919 27.232 32.2919 27.324 32.3839 27.324L45.0799 19.964L22.9079 7.17603Z" fill="#A2DDF4"/>
<path d="M22.908 7.17603L12.328 13.34C12.42 13.34 12.42 13.34 12.512 13.432C13.156 13.708 11.868 13.8 12.788 14.168C13.984 14.72 15.732 14.444 16.744 14.904C17.112 15.088 17.112 15.272 16.836 15.364C15.364 15.732 19.504 16.744 20.148 17.204C20.608 17.48 20.608 17.848 21.436 18.124C22.264 18.308 23.276 18.216 24.012 18.492H24.104C24.472 18.676 24.472 18.86 24.288 19.044C24.012 19.32 23.92 19.504 24.38 19.688C25.208 20.056 26.772 20.148 27.692 20.424C27.692 20.424 27.784 20.424 27.784 20.516C29.256 21.16 27.784 21.712 31.188 22.08C31.648 22.172 32.2 22.264 32.476 22.356C33.304 22.724 31.74 22.908 32.752 23.368C34.04 23.92 36.8 23.828 37.352 24.564L45.172 20.056L22.908 7.17603Z" fill="#7BD3F7"/>
<path d="M22.908 7.17603L14.168 12.236C14.904 12.328 15.548 12.328 16.284 12.42C17.388 12.604 18.216 13.156 17.48 13.34C17.02 13.432 17.02 13.708 17.388 13.984C17.94 14.352 19.136 14.72 19.872 14.996C23.828 16.192 22.264 16.376 23.736 17.112C23.92 17.204 24.012 17.204 24.288 17.296C25.484 17.664 27.048 17.388 28.06 17.848C29.256 18.4 27.508 18.768 28.152 19.32C28.244 19.412 28.336 19.412 28.52 19.504C29.072 19.78 29.9 19.964 30.636 20.056C32.384 20.332 33.672 20.424 34.592 21.62C35.788 23.184 37.628 22.724 39.744 23.184L45.264 19.964L22.908 7.17603Z" fill="#44A347"/>
<path d="M22.908 7.17603L15.088 11.684C16.008 11.776 17.48 11.776 18.216 12.144C18.676 12.328 18.768 12.696 18.308 12.788C17.848 12.88 17.848 13.156 18.216 13.432C18.768 13.8 19.964 14.168 20.7 14.444C24.656 15.64 23.092 15.824 24.564 16.56C25.852 17.112 27.6 16.744 28.796 17.296C29.992 17.848 28.244 18.216 28.888 18.768C29.348 19.136 30.728 19.412 31.28 19.504C37.536 20.516 33.12 21.804 39.008 22.448C39.468 22.448 39.928 22.54 40.296 22.724L44.988 20.056L22.908 7.17603Z" fill="#80BC41"/>
<path d="M22.448 11.316H22.632C21.16 7.36004 20.24 10.764 20.24 10.764C20.24 10.764 21.252 8.37204 22.448 11.316Z" fill="#44A347"/>
<path d="M22.54 11.3161H22.724C23.644 8.74006 25.116 11.6841 25.116 11.6841C25.116 11.6841 23.644 7.63606 22.54 11.3161Z" fill="#44A347"/>
<path d="M22.54 11.3162L22.724 11.2242C22.356 9.01622 21.712 8.09622 20.792 8.28022C21.528 8.37222 22.172 9.38422 22.54 11.3162Z" fill="#44A347"/>
<path d="M22.54 11.3161H22.724C22.908 9.20011 22.448 7.82011 21.528 7.36011C22.264 8.09611 22.632 9.38411 22.54 11.3161Z" fill="#44A347"/>
<path d="M22.448 11.3161H22.632C23 9.29212 23.644 8.37212 24.564 8.55612C23.552 7.91212 22.816 8.92412 22.448 11.3161Z" fill="#44A347"/>
<path d="M22.6319 11.3162C22.6319 9.01615 23.0919 7.82015 23.8279 7.54415C22.9079 7.45215 22.3559 8.74015 22.4479 11.3162H22.6319Z" fill="#44A347"/>
<path d="M21.712 8.55611C21.436 8.28011 21.16 8.18811 20.792 8.28011C20.884 8.28011 20.976 8.28011 21.068 8.37211C21.252 8.37211 21.436 8.37211 21.712 8.55611ZM21.62 7.45211C21.712 7.45211 21.712 7.54411 21.804 7.54411C21.712 7.45211 21.62 7.36011 21.528 7.36011C22.448 8.28011 22.448 9.75211 22.632 10.4881C22.632 9.47611 22.356 8.09611 21.62 7.45211ZM21.436 8.64811C22.08 9.20011 22.172 10.1201 22.54 10.8561C22.264 9.75211 21.896 9.01611 21.436 8.64811ZM24.472 8.55611H24.564C23.552 8.00411 22.908 8.92411 22.816 10.0281C23.184 8.74011 23.736 8.28011 24.472 8.55611Z" fill="#68BC45"/>
<path d="M23.644 7.72799C23.736 7.63599 23.828 7.63599 23.92 7.63599C23.276 7.63599 22.908 8.09599 22.724 9.19999C22.724 9.29199 22.724 9.38399 22.816 9.47599C22.908 8.37199 23.184 7.81999 23.644 7.72799ZM24.104 10.028C23.828 9.75199 23.46 9.65999 23.092 10.12C23.092 10.212 23 10.396 23 10.488C23.368 9.75199 23.736 9.75199 24.104 10.028ZM22.448 11.316C22.264 10.672 21.988 10.304 21.712 10.12C21.988 10.304 22.172 10.672 22.448 11.316ZM24.288 10.58C24.748 11.04 25.116 11.776 25.116 11.776C25.024 11.592 24.84 11.04 24.288 10.58ZM21.712 9.56799C20.792 8.73999 20.24 10.764 20.24 10.764C20.24 10.764 20.332 10.488 20.516 10.212C20.792 9.75199 21.16 9.19999 21.712 9.56799Z" fill="#68BC45"/>
<path d="M22.724 10.0282C23 9.10819 23.1839 8.00419 24.012 7.63619C23.92 7.63619 23.828 7.63619 23.644 7.63619C23.184 8.00419 22.816 8.74019 22.724 10.0282ZM22.8159 10.3962C22.9079 10.3042 22.9999 10.1202 22.9999 10.0282C23.3679 8.92419 23.92 8.46419 24.564 8.55619C24.472 8.55619 24.4719 8.46419 24.3799 8.46419C23.7359 8.46419 23.1839 9.10819 22.8159 10.3962ZM20.7919 8.37219C20.9759 8.37219 21.2519 8.46419 21.4359 8.64819C21.2519 8.55619 21.1599 8.46419 20.9759 8.37219C20.8839 8.37219 20.8839 8.37219 20.7919 8.37219ZM25.2079 11.7762C25.2079 11.7762 24.748 10.4882 24.104 10.0282C24.472 10.3962 24.8399 11.0402 25.2079 11.7762ZM21.7119 8.55619C22.0799 8.92419 22.3559 9.47619 22.5399 10.3962C22.5399 9.84419 22.0799 8.92419 21.7119 8.55619ZM22.6319 9.29219C22.6319 9.20019 22.6319 9.20019 22.6319 9.10819C22.4479 8.37219 22.172 7.82019 21.804 7.54419C22.172 7.91219 22.4479 8.46419 22.6319 9.29219ZM20.6079 10.2122C20.4239 10.4882 20.424 10.8562 20.424 10.8562C20.424 10.8562 20.976 9.47619 21.804 10.0282C21.252 9.66019 20.8839 9.93619 20.6079 10.2122ZM22.724 11.3162H22.8159C23.2759 10.1202 23.8279 10.2122 24.2879 10.5802C23.7359 10.1202 23.184 10.0282 22.724 11.3162ZM22.3559 10.7642C22.2639 10.3042 21.8959 9.75219 21.6199 9.56819C21.8959 9.84419 22.1719 10.2122 22.3559 10.7642Z" fill="#38853F"/>
<path d="M27.324 14.6281H27.508C26.128 10.6721 25.116 14.0761 25.116 14.0761C25.116 14.0761 26.22 11.6841 27.324 14.6281Z" fill="#44A347"/>
<path d="M27.416 14.6281H27.6C28.52 12.0521 29.992 14.9961 29.992 14.9961C29.992 14.9961 28.52 11.0401 27.416 14.6281Z" fill="#44A347"/>
<path d="M27.416 14.6282L27.6 14.5362C27.232 12.3282 26.588 11.4082 25.668 11.5922C26.496 11.7762 27.048 12.6962 27.416 14.6282Z" fill="#44A347"/>
<path d="M27.4159 14.6281H27.5999C27.7839 12.5121 27.3239 11.1321 26.4039 10.6721C27.1399 11.4081 27.5079 12.6961 27.4159 14.6281Z" fill="#44A347"/>
<path d="M27.416 14.6281H27.6C27.968 12.6041 28.612 11.6841 29.532 11.8681C28.428 11.3161 27.692 12.2361 27.416 14.6281Z" fill="#44A347"/>
<path d="M27.6 14.6282C27.6 12.3282 28.06 11.1322 28.796 10.8562C27.876 10.7642 27.324 12.0522 27.416 14.6282H27.6Z" fill="#44A347"/>
<path d="M26.588 11.9601C26.312 11.6841 26.036 11.5921 25.668 11.6841C25.76 11.6841 25.852 11.6841 25.944 11.7761C26.128 11.6841 26.404 11.7761 26.588 11.9601ZM26.496 10.7641C26.588 10.7641 26.588 10.8561 26.68 10.8561C26.588 10.7641 26.496 10.6721 26.404 10.6721C27.324 11.5921 27.324 13.0641 27.508 13.8001C27.508 12.8801 27.232 11.5001 26.496 10.7641ZM26.312 12.0521C26.68 12.4201 26.956 12.9721 27.232 13.8921C27.324 13.9841 27.324 14.0761 27.416 14.2601C27.14 13.0641 26.772 12.3281 26.312 12.0521ZM29.348 11.8681H29.44C28.428 11.3161 27.784 12.2361 27.692 13.3401C28.06 12.1441 28.612 11.5921 29.348 11.8681Z" fill="#68BC45"/>
<path d="M28.52 11.04C28.612 10.948 28.704 10.948 28.796 10.948C28.152 10.948 27.784 11.408 27.6 12.512C27.6 12.604 27.6 12.696 27.692 12.788C27.784 11.776 28.06 11.224 28.52 11.04ZM28.98 13.34C28.704 13.064 28.336 12.972 27.968 13.432C27.968 13.524 27.876 13.708 27.876 13.8C28.244 13.156 28.612 13.064 28.98 13.34ZM27.324 14.628C27.14 13.984 26.864 13.616 26.588 13.432C26.864 13.616 27.14 13.984 27.324 14.628ZM29.164 13.892C29.624 14.352 29.992 15.088 29.992 15.088C29.9 14.996 29.808 14.444 29.164 13.892ZM26.588 12.972C25.668 12.144 25.116 14.168 25.116 14.168C25.116 14.168 25.208 13.892 25.392 13.616C25.668 13.156 26.128 12.604 26.588 12.972Z" fill="#68BC45"/>
<path d="M27.5999 13.3402C27.8759 12.4202 28.0599 11.3162 28.8879 10.9482C28.7959 10.9482 28.7039 10.9482 28.5199 10.9482C28.0599 11.4082 27.7839 12.1442 27.5999 13.3402ZM27.7839 13.8002C27.8759 13.7082 27.9679 13.5242 27.9679 13.4322C28.3359 12.3282 28.8879 11.8682 29.5319 11.9602C29.4399 11.9602 29.4399 11.8682 29.3479 11.8682C28.6119 11.7762 28.1519 12.4202 27.7839 13.8002ZM25.7599 11.7762C25.9439 11.7762 26.2199 11.8682 26.4039 12.0522C26.2199 11.9602 26.1279 11.8682 25.9439 11.7762C25.8519 11.7762 25.7599 11.7762 25.7599 11.7762ZM30.0839 15.1802C30.0839 15.1802 29.6239 13.8922 28.9799 13.4322C29.4399 13.7082 29.7159 14.4442 30.0839 15.1802ZM26.5879 11.9602C26.9559 12.3282 27.2319 12.8802 27.4159 13.8002C27.4159 13.2482 27.0479 12.3282 26.5879 11.9602ZM27.5079 12.6042C27.5079 12.5122 27.5079 12.5122 27.5079 12.4202C27.3239 11.6842 27.0479 11.1322 26.6799 10.8562C27.0479 11.2242 27.4159 11.8682 27.5079 12.6042ZM25.4839 13.6162C25.2999 13.8922 25.2999 14.2602 25.2999 14.2602C25.2999 14.2602 25.8519 12.8802 26.6799 13.4322C26.1279 12.9722 25.7599 13.2482 25.4839 13.6162ZM27.5999 14.7202H27.6919C28.1519 13.5242 28.7039 13.6162 29.1639 13.9842C28.7039 13.5242 28.0599 13.3402 27.5999 14.7202ZM27.3239 14.0762C27.3239 13.9842 27.3239 13.8922 27.2319 13.8002C27.0479 13.3402 26.7719 13.0642 26.5879 12.8802C26.7719 13.1562 27.0479 13.5242 27.3239 14.0762Z" fill="#38853F"/>
<path d="M32.568 17.5721H32.752C31.28 13.6161 30.36 17.0201 30.36 17.0201C30.36 17.0201 31.372 14.6281 32.568 17.5721Z" fill="#44A347"/>
<path d="M32.66 17.5722H32.844C33.764 14.9962 35.236 17.9402 35.236 17.9402C35.236 17.9402 33.764 13.8922 32.66 17.5722Z" fill="#44A347"/>
<path d="M32.66 17.5723L32.844 17.4803C32.476 15.2723 31.832 14.3523 30.912 14.5363C31.648 14.6283 32.292 15.6403 32.66 17.5723Z" fill="#44A347"/>
<path d="M32.6599 17.5722H32.8439C33.0279 15.4562 32.5679 14.0762 31.6479 13.6162C32.3839 14.2602 32.7519 15.6402 32.6599 17.5722Z" fill="#44A347"/>
<path d="M32.568 17.5722H32.752C33.12 15.5482 33.764 14.6282 34.684 14.8122C33.672 14.1682 32.936 15.0882 32.568 17.5722Z" fill="#44A347"/>
<path d="M32.844 17.5723C32.844 15.2723 33.304 14.0763 34.04 13.8003C33.12 13.7083 32.568 14.9963 32.66 17.5723H32.844Z" fill="#44A347"/>
<path d="M31.832 14.8122C31.556 14.5362 31.28 14.4442 30.912 14.5362C31.004 14.5362 31.096 14.5362 31.188 14.6282C31.372 14.6282 31.556 14.6282 31.832 14.8122ZM31.74 13.7082C31.832 13.7082 31.832 13.8002 31.924 13.8002C31.832 13.7082 31.74 13.6162 31.648 13.6162C32.568 14.5362 32.568 16.0082 32.752 16.7442C32.752 16.6522 32.476 14.3522 31.74 13.7082ZM31.556 14.9042C32.2 15.4562 32.292 16.3762 32.66 17.1122C32.384 16.0082 32.016 15.2722 31.556 14.9042ZM34.592 14.8122H34.684C33.672 14.2602 33.028 15.1802 32.936 16.2842C33.304 14.9962 33.856 14.4442 34.592 14.8122Z" fill="#68BC45"/>
<path d="M33.764 13.8923C33.856 13.8003 33.948 13.8003 34.04 13.8003C33.396 13.8003 33.028 14.2603 32.844 15.3643C32.844 15.4563 32.844 15.5483 32.936 15.6403C33.028 14.6283 33.304 14.0763 33.764 13.8923ZM34.224 16.2843C33.948 16.0083 33.58 15.9163 33.212 16.3763C33.212 16.4683 33.12 16.6523 33.12 16.7443C33.488 16.0083 33.856 16.0083 34.224 16.2843ZM32.568 17.5723C32.384 16.9283 32.108 16.5603 31.832 16.3763C32.108 16.5603 32.292 16.9283 32.568 17.5723ZM34.408 16.8363C34.868 17.2963 35.236 18.0323 35.236 18.0323C35.144 17.8483 34.96 17.2963 34.408 16.8363ZM31.832 15.8243C30.912 14.9963 30.36 17.0203 30.36 17.0203C30.36 17.0203 30.452 16.7443 30.636 16.4683C30.912 16.0083 31.28 15.4563 31.832 15.8243Z" fill="#68BC45"/>
<path d="M32.8439 16.2843C33.1199 15.3643 33.3039 14.2603 34.1319 13.8923C34.0399 13.8923 33.9479 13.8923 33.7639 13.8923C33.3039 14.2603 33.0279 14.9963 32.8439 16.2843ZM33.0279 16.6523C33.1199 16.5603 33.2119 16.3763 33.2119 16.2843C33.5799 15.1803 34.1319 14.7203 34.7759 14.8123C34.6839 14.8123 34.6839 14.7203 34.5919 14.7203C33.8559 14.7203 33.3039 15.2723 33.0279 16.6523ZM30.9119 14.6283C31.0959 14.6283 31.3719 14.7203 31.5559 14.9043C31.3719 14.8123 31.2799 14.7203 31.0959 14.6283C31.0039 14.6283 31.0039 14.6283 30.9119 14.6283ZM35.3279 18.0323C35.3279 18.0323 34.8679 16.7443 34.2239 16.2843C34.5919 16.6523 34.9599 17.2963 35.3279 18.0323ZM31.8319 14.8123C32.1999 15.1803 32.4759 15.7323 32.6599 16.6523C32.6599 16.1003 32.2919 15.1803 31.8319 14.8123ZM32.7519 15.5483C32.7519 15.4563 32.7519 15.4563 32.7519 15.3643C32.5679 14.6283 32.2919 14.0763 31.9239 13.8003C32.2919 14.1683 32.5679 14.7203 32.7519 15.5483ZM30.7279 16.4683C30.5439 16.7443 30.5439 17.1123 30.5439 17.1123C30.5439 17.1123 31.0959 15.7323 31.9239 16.2843C31.3719 15.8243 31.0039 16.1923 30.7279 16.4683ZM32.8439 17.5723H32.9359C33.3959 16.3763 33.9479 16.4683 34.4079 16.8363C33.8559 16.3763 33.3039 16.2843 32.8439 17.5723ZM32.5679 17.0203C32.4759 16.5603 32.1079 16.0083 31.8319 15.8243C32.0159 16.0083 32.2919 16.3763 32.5679 17.0203Z" fill="#38853F"/>
<path d="M37.812 20.424H37.996C36.616 16.468 35.604 19.872 35.604 19.872C35.604 19.872 36.616 17.48 37.812 20.424Z" fill="#44A347"/>
<path d="M37.9041 20.424H38.0881C39.0081 17.848 40.4801 20.792 40.4801 20.792C40.4801 20.792 39.0081 16.744 37.9041 20.424Z" fill="#44A347"/>
<path d="M37.812 20.4241L37.996 20.3321C37.628 18.1241 36.984 17.2041 36.064 17.3881C36.892 17.5721 37.536 18.4921 37.812 20.4241Z" fill="#44A347"/>
<path d="M37.904 20.424H38.088C38.272 18.308 37.812 16.928 36.892 16.468C37.628 17.204 37.996 18.492 37.904 20.424Z" fill="#44A347"/>
<path d="M37.812 20.424H37.996C38.364 18.4 39.008 17.48 39.928 17.664C38.916 17.112 38.18 18.032 37.812 20.424Z" fill="#44A347"/>
<path d="M37.996 20.4241C37.996 18.1241 38.456 16.9281 39.192 16.6521C38.272 16.5601 37.72 17.8481 37.812 20.4241H37.996Z" fill="#44A347"/>
<path d="M36.984 17.664C36.708 17.388 36.432 17.296 36.064 17.388C36.156 17.388 36.248 17.388 36.34 17.48C36.616 17.48 36.8 17.572 36.984 17.664ZM36.984 16.56C37.076 16.56 37.076 16.652 37.168 16.652C37.076 16.56 36.984 16.468 36.892 16.468C37.812 17.388 37.812 18.86 37.996 19.596C37.996 19.596 37.72 17.296 36.984 16.56ZM36.8 17.756C37.444 18.308 37.536 19.228 37.904 19.964C37.628 18.86 37.26 18.124 36.8 17.756ZM39.836 17.664H39.928C38.916 17.112 38.272 18.032 38.18 19.136C38.548 17.848 39.1 17.388 39.836 17.664Z" fill="#68BC45"/>
<path d="M39.008 16.8359C39.1 16.7439 39.192 16.7439 39.284 16.7439C38.64 16.7439 38.272 17.2039 38.088 18.3079C38.088 18.3999 38.088 18.4919 38.18 18.5839C38.18 17.4799 38.548 16.9279 39.008 16.8359ZM39.468 19.1359C39.192 18.8599 38.824 18.7679 38.456 19.2279C38.456 19.3199 38.364 19.5039 38.364 19.5959C38.732 18.8599 39.1 18.8599 39.468 19.1359ZM37.812 20.4239C37.628 19.7799 37.352 19.4119 37.076 19.2279C37.352 19.4119 37.536 19.7799 37.812 20.4239ZM39.56 19.6879C40.02 20.1479 40.388 20.8839 40.388 20.8839C40.388 20.7919 40.204 20.1479 39.56 19.6879ZM37.076 18.7679C36.156 17.9399 35.604 19.9639 35.604 19.9639C35.604 19.9639 35.696 19.6879 35.88 19.4119C36.156 18.8599 36.524 18.3999 37.076 18.7679Z" fill="#68BC45"/>
<path d="M38.088 19.1361C38.364 18.2161 38.548 17.1121 39.376 16.7441C39.284 16.7441 39.192 16.7441 39.008 16.7441C38.548 17.1121 38.18 17.9401 38.088 19.1361ZM38.18 19.5961C38.272 19.5041 38.364 19.3201 38.364 19.2281C38.732 18.1241 39.284 17.6641 39.928 17.7561C39.836 17.7561 39.836 17.6641 39.744 17.6641C39.1 17.5721 38.548 18.2161 38.18 19.5961ZM36.156 17.5721C36.34 17.5721 36.616 17.6641 36.8 17.8481C36.616 17.7561 36.524 17.6641 36.34 17.5721C36.248 17.4801 36.248 17.4801 36.156 17.5721ZM40.48 20.9761C40.48 20.9761 40.02 19.6881 39.376 19.2281C39.836 19.5041 40.204 20.2401 40.48 20.9761ZM36.984 17.6641C37.352 18.0321 37.628 18.5841 37.812 19.5041C37.904 19.0441 37.444 18.0321 36.984 17.6641ZM37.996 18.4001C37.996 18.3081 37.996 18.3081 37.996 18.2161C37.812 17.4801 37.536 16.9281 37.168 16.6521C37.536 17.0201 37.812 17.5721 37.996 18.4001ZM35.972 19.4121C35.788 19.6881 35.788 20.0561 35.788 20.0561C35.788 20.0561 36.34 18.6761 37.168 19.2281C36.616 18.7681 36.156 19.0441 35.972 19.4121ZM37.996 20.4241H38.088C38.64 19.3201 39.192 19.3201 39.56 19.6881C39.1 19.2281 38.548 19.1361 37.996 20.4241ZM37.72 19.8721C37.628 19.4121 37.26 18.8601 36.984 18.6761C37.26 18.9521 37.536 19.3201 37.72 19.8721Z" fill="#38853F"/>
<path d="M7.17602 20.7919H7.36002C5.98002 16.8359 4.96802 20.2399 4.96802 20.2399C4.96802 20.2399 6.07202 17.8479 7.17602 20.7919Z" fill="#44A347"/>
<path d="M7.26807 20.7919H7.45207C8.37207 18.2159 9.84407 21.1599 9.84407 21.1599C9.84407 21.1599 8.37207 17.1119 7.26807 20.7919Z" fill="#44A347"/>
<path d="M7.26802 20.7921L7.45202 20.7001C7.08402 18.5841 6.44002 17.5721 5.52002 17.8481C6.34802 17.9401 6.90002 18.8601 7.26802 20.7921Z" fill="#44A347"/>
<path d="M7.26798 20.7919H7.45198C7.63598 18.6759 7.17598 17.2959 6.25598 16.8359C6.99198 17.5719 7.35998 18.8599 7.26798 20.7919Z" fill="#44A347"/>
<path d="M7.26807 20.792H7.45207C7.82007 18.768 8.46407 17.848 9.38407 18.032C8.28007 17.48 7.54407 18.4 7.26807 20.792Z" fill="#44A347"/>
<path d="M7.45202 20.792C7.45202 18.492 7.91202 17.296 8.64802 17.02C7.72802 16.928 7.17602 18.216 7.26802 20.792H7.45202Z" fill="#44A347"/>
<path d="M6.44002 18.1239C6.16402 17.8479 5.88802 17.7559 5.52002 17.8479C5.61202 17.8479 5.70402 17.8479 5.79602 17.9399C5.98002 17.8479 6.16402 17.9399 6.44002 18.1239ZM7.36002 19.8719C7.26802 18.4919 6.90002 17.5719 6.34802 16.9279C6.44002 16.9279 6.44002 17.0199 6.53202 17.0199C6.44002 16.9279 6.34802 16.8359 6.25602 16.8359C6.80802 17.3879 7.17602 18.3079 7.26802 19.6879C7.26802 19.7799 7.36002 19.9639 7.36002 20.0559C7.36002 19.9639 7.36002 19.8719 7.36002 19.8719ZM6.16402 18.1239C6.53202 18.4919 6.80802 19.0439 7.08402 19.9639C7.17602 20.0559 7.17602 20.1479 7.26802 20.3319C6.99202 19.2279 6.62402 18.4919 6.16402 18.1239ZM9.20002 18.0319H9.29202C8.55602 17.6639 8.00402 17.9399 7.63602 18.9519C7.63602 19.1359 7.54402 19.3199 7.54402 19.5959C7.91202 18.3079 8.46402 17.7559 9.20002 18.0319Z" fill="#68BC45"/>
<path d="M8.37202 17.2038C8.46402 17.1118 8.55602 17.1118 8.64802 17.1118C8.00402 17.1118 7.63602 17.5718 7.45202 18.6758C7.45202 18.7678 7.45202 18.8598 7.54402 18.9518C7.63602 17.9398 7.91202 17.3878 8.37202 17.2038ZM8.83202 19.5038C8.55602 19.2278 8.18802 19.1358 7.82002 19.5958C7.82002 19.6878 7.72802 19.8718 7.72802 19.9638C8.09602 19.2278 8.46402 19.2278 8.83202 19.5038ZM7.17602 20.7918C6.99202 20.1478 6.71602 19.7798 6.44002 19.5958C6.71602 19.7798 6.99202 20.1478 7.17602 20.7918ZM9.01602 20.0558C9.47602 20.5158 9.84402 21.2518 9.84402 21.2518C9.84402 21.2518 9.84402 21.1598 9.75202 20.9758C9.56802 20.6078 9.29202 20.3318 9.01602 20.0558ZM6.44002 19.1358C5.52002 18.3078 4.96802 20.3318 4.96802 20.3318C4.96802 20.3318 5.06002 20.0558 5.24402 19.7798C5.52002 19.2278 5.98002 18.7678 6.44002 19.1358Z" fill="#68BC45"/>
<path d="M7.45198 19.504C7.54398 19.32 7.54398 19.136 7.63598 18.952C7.81998 17.94 8.18798 17.388 8.73998 17.112C8.64798 17.112 8.55598 17.112 8.37198 17.112C7.91198 17.48 7.63598 18.308 7.45198 19.504ZM7.63598 19.964C7.72798 19.872 7.81998 19.688 7.81998 19.596C8.18798 18.492 8.73998 18.032 9.38398 18.124C9.29198 18.124 9.29198 18.032 9.19998 18.032C8.46398 17.94 8.00398 18.584 7.63598 19.964ZM5.61198 17.94C5.79598 17.94 6.07198 18.032 6.25598 18.216C6.07198 18.124 5.97998 18.032 5.79598 17.94C5.70398 17.94 5.61198 17.94 5.61198 17.94ZM9.65998 20.884C9.75198 21.068 9.84398 21.252 9.84398 21.252C9.84398 21.252 9.38398 19.964 8.73998 19.504C9.19998 19.872 9.56798 20.516 9.65998 20.884ZM7.26798 19.78V19.688C7.08398 18.86 6.80798 18.4 6.43998 18.124C6.80798 18.492 7.08398 19.044 7.26798 19.964C7.26798 19.872 7.26798 19.78 7.26798 19.78ZM7.35998 18.768C7.35998 18.676 7.35998 18.676 7.35998 18.584C7.17598 17.848 6.89998 17.296 6.53198 17.02C6.89998 17.388 7.26798 18.032 7.35998 18.768ZM5.33598 19.78C5.15198 20.056 5.15198 20.424 5.15198 20.424C5.15198 20.424 5.70398 19.044 6.53198 19.596C5.97998 19.136 5.61198 19.412 5.33598 19.78ZM7.45198 20.792H7.54398C8.00398 19.596 8.55598 19.688 9.01598 20.056C8.55598 19.596 7.91198 19.504 7.45198 20.792ZM7.17598 20.24C7.17598 20.148 7.17598 20.056 7.08398 19.964C6.89998 19.504 6.62398 19.228 6.43998 19.044C6.62398 19.32 6.89998 19.688 7.17598 20.24Z" fill="#38853F"/>
<path d="M12.144 24.1959H12.328C10.948 20.2399 9.93604 23.6439 9.93604 23.6439C9.93604 23.6439 10.948 21.2519 12.144 24.1959Z" fill="#44A347"/>
<path d="M12.144 24.1959H12.328C13.248 21.6199 14.72 24.5639 14.72 24.5639C14.72 24.5639 13.248 20.5159 12.144 24.1959Z" fill="#44A347"/>
<path d="M12.144 24.1959L12.328 24.1039C11.96 21.8959 11.316 20.9759 10.396 21.1599C11.224 21.2519 11.776 22.2639 12.144 24.1959Z" fill="#44A347"/>
<path d="M12.144 24.196H12.328C12.512 22.08 12.052 20.7 11.132 20.24C11.868 20.884 12.236 22.264 12.144 24.196Z" fill="#44A347"/>
<path d="M12.144 24.1959H12.328C12.696 22.1719 13.34 21.2519 14.26 21.4359C13.156 20.7919 12.42 21.7119 12.144 24.1959Z" fill="#44A347"/>
<path d="M12.328 24.196C12.328 21.896 12.788 20.7 13.524 20.424C12.604 20.332 12.052 21.62 12.144 24.196H12.328Z" fill="#44A347"/>
<path d="M11.316 21.4359C11.04 21.1599 10.764 21.0679 10.396 21.1599C10.488 21.1599 10.58 21.1599 10.672 21.2519C10.856 21.1599 11.132 21.2519 11.316 21.4359ZM12.236 23.184C12.144 21.804 11.776 20.8839 11.224 20.2399C11.316 20.2399 11.316 20.3319 11.408 20.3319C11.316 20.2399 11.224 20.1479 11.132 20.1479C11.684 20.6999 12.052 21.6199 12.144 22.9999C12.144 23.0919 12.236 23.2759 12.236 23.3679C12.236 23.2759 12.236 23.276 12.236 23.184ZM11.04 21.5279C11.408 21.8959 11.684 22.4479 11.96 23.3679C12.052 23.4599 12.052 23.5519 12.144 23.7359C11.868 22.6319 11.5 21.8959 11.04 21.5279ZM14.168 21.4359H14.26C13.524 21.0679 12.972 21.3439 12.604 22.3559C12.604 22.5399 12.512 22.7239 12.512 22.9999C12.88 21.6199 13.432 21.0679 14.168 21.4359ZM13.34 20.5159C13.432 20.4239 13.524 20.424 13.616 20.424C12.972 20.424 12.604 20.8839 12.42 21.9879C12.42 22.0799 12.42 22.172 12.512 22.264C12.512 21.252 12.88 20.6999 13.34 20.5159ZM13.708 22.9079C13.432 22.6319 13.064 22.5399 12.696 22.9999C12.696 23.0919 12.604 23.2759 12.604 23.3679C12.972 22.6319 13.432 22.6319 13.708 22.9079ZM12.144 24.1959C11.96 23.5519 11.684 23.1839 11.408 22.9999C11.592 23.1839 11.868 23.5519 12.144 24.1959ZM13.892 23.4599C14.352 23.9199 14.72 24.6559 14.72 24.6559C14.72 24.6559 14.72 24.5639 14.628 24.3799C14.444 24.0119 14.168 23.6439 13.892 23.4599ZM11.316 22.4479C10.396 21.6199 9.84399 23.644 9.84399 23.644C9.84399 23.644 9.93599 23.3679 10.12 23.0919C10.488 22.6319 10.856 22.0799 11.316 22.4479Z" fill="#68BC45"/>
<path d="M12.42 22.8158C12.512 22.6318 12.512 22.4478 12.604 22.2638C12.788 21.2518 13.156 20.6998 13.708 20.4238C13.616 20.4238 13.524 20.4238 13.34 20.4238C12.788 20.8838 12.512 21.6198 12.42 22.8158ZM12.512 23.2758C12.604 23.1838 12.696 22.9998 12.696 22.9078C13.064 21.8038 13.616 21.3438 14.26 21.4358C14.168 21.4358 14.168 21.3438 14.076 21.3438C13.432 21.3438 12.88 21.8958 12.512 23.2758ZM10.488 21.2518C10.672 21.2518 10.948 21.3438 11.132 21.5278C10.948 21.4358 10.856 21.3438 10.672 21.2518C10.58 21.2518 10.488 21.2518 10.488 21.2518ZM14.628 24.2878C14.72 24.4718 14.812 24.6558 14.812 24.6558C14.812 24.6558 14.352 23.3678 13.708 22.9078C14.168 23.2758 14.444 23.9198 14.628 24.2878ZM12.144 23.0918V22.9998C11.96 22.2638 11.684 21.7118 11.316 21.4358C11.684 21.8038 11.96 22.3558 12.144 23.2758C12.144 23.2758 12.144 23.1838 12.144 23.0918ZM12.236 22.1718C12.236 22.0798 12.236 22.0798 12.236 21.9878C12.052 21.2518 11.776 20.6998 11.408 20.4238C11.868 20.7918 12.144 21.3438 12.236 22.1718ZM10.212 23.0918C10.028 23.3678 10.028 23.7358 10.028 23.7358C10.028 23.7358 10.58 22.3558 11.408 22.9078C10.948 22.4478 10.488 22.8158 10.212 23.0918ZM12.328 24.1958H12.42C12.88 22.9998 13.432 23.0918 13.892 23.4598C13.432 22.9998 12.788 22.9078 12.328 24.1958ZM12.052 23.6438C12.052 23.5518 12.052 23.4598 11.96 23.3678C11.776 22.9078 11.5 22.6318 11.316 22.4478C11.592 22.6318 11.776 22.9998 12.052 23.6438Z" fill="#38853F"/>
<path d="M17.296 27.048H17.48C16.1 23.092 15.088 26.496 15.088 26.496C15.088 26.496 16.192 24.104 17.296 27.048Z" fill="#44A347"/>
<path d="M17.3881 27.048H17.5721C18.4921 24.472 19.9641 27.416 19.9641 27.416C19.9641 27.416 18.4921 23.368 17.3881 27.048Z" fill="#44A347"/>
<path d="M17.388 27.0482L17.572 26.9562C17.204 24.8402 16.56 23.8282 15.64 24.1042C16.468 24.1962 17.02 25.1162 17.388 27.0482Z" fill="#44A347"/>
<path d="M17.388 27.048H17.572C17.756 24.932 17.296 23.552 16.376 23.092C17.112 23.828 17.48 25.116 17.388 27.048Z" fill="#44A347"/>
<path d="M17.3881 27.0481H17.5721C17.9401 25.0241 18.5841 24.1041 19.5041 24.2881C18.4001 23.7361 17.6641 24.6561 17.3881 27.0481Z" fill="#44A347"/>
<path d="M17.572 27.0481C17.572 24.7481 18.032 23.5521 18.768 23.2761C17.848 23.1841 17.296 24.4721 17.388 27.0481H17.572Z" fill="#44A347"/>
<path d="M16.56 24.288C16.284 24.012 16.008 23.92 15.64 24.012C15.732 24.012 15.824 24.012 15.916 24.104C16.1 24.104 16.376 24.196 16.56 24.288ZM17.48 26.128C17.388 24.748 17.02 23.828 16.468 23.184C16.56 23.184 16.56 23.276 16.652 23.276C16.56 23.184 16.468 23.092 16.376 23.092C16.928 23.644 17.296 24.564 17.388 25.944C17.388 26.036 17.48 26.22 17.48 26.312C17.48 26.22 17.48 26.128 17.48 26.128ZM16.284 24.38C16.652 24.748 16.928 25.3 17.204 26.22C17.296 26.312 17.296 26.404 17.388 26.588C17.112 25.484 16.744 24.748 16.284 24.38ZM19.32 24.288H19.412C18.676 23.92 18.124 24.196 17.756 25.208C17.756 25.392 17.664 25.576 17.664 25.852C18.032 24.472 18.584 24.012 19.32 24.288Z" fill="#68BC45"/>
<path d="M18.492 23.4599C18.584 23.3679 18.676 23.3679 18.768 23.3679C18.124 23.3679 17.756 23.8279 17.572 24.9319C17.572 25.0239 17.572 25.1159 17.664 25.2079C17.756 24.1039 18.032 23.5519 18.492 23.4599ZM18.952 25.7599C18.676 25.4839 18.308 25.3919 17.94 25.8519C17.94 25.9439 17.848 26.1279 17.848 26.2199C18.216 25.4839 18.584 25.4839 18.952 25.7599ZM17.296 27.0479C17.112 26.4039 16.836 26.0359 16.56 25.8519C16.836 26.0359 17.112 26.4039 17.296 27.0479ZM19.136 26.3119C19.596 26.7719 19.964 27.5079 19.964 27.5079C19.964 27.5079 19.964 27.4159 19.872 27.2319C19.688 26.8639 19.412 26.4959 19.136 26.3119ZM16.56 25.3919C15.64 24.5639 15.088 26.5879 15.088 26.5879C15.088 26.5879 15.18 26.3119 15.364 26.0359C15.64 25.4839 16.1 24.9319 16.56 25.3919Z" fill="#68BC45"/>
<path d="M17.572 25.7601C17.664 25.5761 17.664 25.3921 17.756 25.2081C17.94 24.1961 18.308 23.6441 18.86 23.3681C18.768 23.3681 18.676 23.3681 18.492 23.3681C18.032 23.7361 17.756 24.5641 17.572 25.7601ZM17.756 26.2201C17.848 26.1281 17.94 25.9441 17.94 25.8521C18.308 24.7481 18.86 24.2881 19.504 24.3801C19.412 24.3801 19.412 24.2881 19.32 24.2881C18.676 24.1961 18.124 24.8401 17.756 26.2201ZM15.732 24.1961C15.916 24.1961 16.192 24.2881 16.376 24.4721C16.192 24.3801 16.1 24.2881 15.916 24.1961C15.824 24.1041 15.732 24.1041 15.732 24.1961ZM19.872 27.1401C19.964 27.3241 20.056 27.5081 20.056 27.5081C20.056 27.5081 19.596 26.2201 18.952 25.7601C19.32 26.1281 19.688 26.7721 19.872 27.1401ZM17.388 26.0361V25.9441C17.204 25.2081 16.928 24.6561 16.56 24.3801C16.928 24.7481 17.204 25.3001 17.388 26.2201C17.388 26.1281 17.388 26.0361 17.388 26.0361ZM17.48 25.0241C17.48 24.9321 17.48 24.9321 17.48 24.8401C17.296 24.1041 17.02 23.5521 16.652 23.2761C17.02 23.6441 17.388 24.1961 17.48 25.0241ZM15.456 26.0361C15.272 26.3121 15.272 26.6801 15.272 26.6801C15.272 26.6801 15.824 25.3001 16.652 25.8521C16.1 25.3921 15.732 25.6681 15.456 26.0361ZM17.572 27.0481H17.664C18.124 25.8521 18.676 25.9441 19.136 26.3121C18.676 25.8521 18.032 25.7601 17.572 27.0481ZM17.296 26.4961C17.296 26.4041 17.296 26.3121 17.204 26.2201C17.02 25.7601 16.744 25.4841 16.56 25.3001C16.744 25.5761 17.02 25.9441 17.296 26.4961Z" fill="#38853F"/>
<path d="M22.54 29.8998H22.724C21.344 25.9438 20.332 29.3478 20.332 29.3478C20.332 29.3478 21.436 26.9558 22.54 29.8998Z" fill="#44A347"/>
<path d="M22.6321 29.8998H22.8161C23.7361 27.3238 25.2081 30.2678 25.2081 30.2678C25.2081 30.2678 23.7361 26.3118 22.6321 29.8998Z" fill="#44A347"/>
<path d="M22.632 29.9L22.816 29.808C22.448 27.6 21.804 26.68 20.884 26.864C21.62 27.048 22.264 27.968 22.632 29.9Z" fill="#44A347"/>
<path d="M22.632 29.8998H22.816C23 27.7838 22.54 26.4038 21.62 25.9438C22.356 26.6798 22.724 28.0598 22.632 29.8998Z" fill="#44A347"/>
<path d="M22.54 29.8999H22.724C23.092 27.8759 23.736 26.9559 24.656 27.1399C23.644 26.5879 22.908 27.5079 22.54 29.8999Z" fill="#44A347"/>
<path d="M22.816 29.9919C22.816 27.6919 23.276 26.4959 24.012 26.2199C23.092 26.1279 22.54 27.4159 22.632 29.9919H22.816Z" fill="#44A347"/>
<path d="M21.804 27.2318C21.528 26.9558 21.252 26.8638 20.884 26.9558C20.976 26.9558 21.068 26.9558 21.16 27.0478C21.344 26.9558 21.528 27.0478 21.804 27.2318ZM22.724 28.9798C22.632 27.5998 22.264 26.6798 21.712 26.0358C21.804 26.0358 21.804 26.1278 21.896 26.1278C21.804 26.0358 21.712 25.9438 21.62 25.9438C22.172 26.4958 22.54 27.4158 22.632 28.7958C22.632 28.8878 22.724 29.0718 22.724 29.1638C22.724 29.0718 22.724 29.0718 22.724 28.9798ZM21.528 27.3238C21.896 27.6918 22.172 28.2438 22.448 29.1638C22.54 29.2558 22.54 29.3478 22.632 29.5318C22.356 28.3358 21.988 27.6918 21.528 27.3238ZM24.564 27.1398H24.656C23.92 26.7718 23.368 27.0478 23 28.0598C23 28.2438 22.908 28.4278 22.908 28.7038C23.276 27.4158 23.828 26.8638 24.564 27.1398Z" fill="#68BC45"/>
<path d="M23.736 26.3117C23.828 26.2197 23.92 26.2197 24.012 26.2197C23.368 26.2197 23 26.6797 22.816 27.7837C22.816 27.8757 22.816 27.9677 22.908 28.0597C23 27.0477 23.276 26.4957 23.736 26.3117ZM24.196 28.7037C23.92 28.4277 23.552 28.3357 23.184 28.7957C23.184 28.8877 23.092 29.0717 23.092 29.1637C23.46 28.4277 23.828 28.4277 24.196 28.7037ZM22.54 29.8997C22.356 29.2557 22.08 28.8877 21.804 28.7037C22.08 28.8877 22.264 29.3477 22.54 29.8997ZM24.38 29.1637C24.84 29.6237 25.208 30.3597 25.208 30.3597C25.116 30.2677 24.932 29.7157 24.38 29.1637ZM21.804 28.2437C20.884 27.4157 20.332 29.4397 20.332 29.4397C20.332 29.4397 20.424 29.1637 20.608 28.8877C20.884 28.4277 21.252 27.8757 21.804 28.2437Z" fill="#68BC45"/>
<path d="M22.816 28.6117C22.908 28.4277 22.908 28.2437 23 28.0597C23.184 27.0477 23.552 26.4957 24.104 26.2197C24.012 26.2197 23.92 26.2197 23.736 26.2197C23.276 26.6797 23 27.4157 22.816 28.6117ZM23 29.0717C23.092 28.9797 23.184 28.7957 23.184 28.7037C23.552 27.5997 24.104 27.1397 24.748 27.2317C24.656 27.2317 24.656 27.1397 24.564 27.1397C23.828 27.1397 23.276 27.6917 23 29.0717ZM20.884 27.0477C21.068 27.0477 21.344 27.1397 21.528 27.3237C21.344 27.2317 21.252 27.1397 21.068 27.0477C20.976 27.0477 20.976 27.0477 20.884 27.0477ZM25.3 30.4517C25.3 30.4517 24.84 29.1637 24.196 28.7037C24.564 29.0717 24.932 29.7157 25.3 30.4517ZM22.632 28.8877V28.7957C22.448 28.0597 22.172 27.5077 21.804 27.2317C22.172 27.5997 22.448 28.1517 22.632 29.0717C22.632 28.9797 22.632 28.9797 22.632 28.8877ZM22.724 27.9677C22.724 27.8757 22.724 27.8757 22.724 27.7837C22.54 27.0477 22.264 26.4957 21.896 26.2197C22.264 26.4957 22.54 27.1397 22.724 27.9677ZM20.7 28.8877C20.516 29.1637 20.516 29.5317 20.516 29.5317C20.516 29.5317 21.068 28.1517 21.896 28.7037C21.344 28.2437 20.976 28.5197 20.7 28.8877ZM22.816 29.9917H22.908C23.368 28.7957 23.92 28.8877 24.38 29.2557C23.828 28.7957 23.276 28.6117 22.816 29.9917ZM22.54 29.4397C22.54 29.3477 22.54 29.2557 22.448 29.1637C22.264 28.7037 21.988 28.4277 21.804 28.2437C21.988 28.4277 22.264 28.7957 22.54 29.4397Z" fill="#38853F"/>
</svg>
