<svg width="26" height="26" viewBox="0 0 26 26" fill="none" xmlns="http://www.w3.org/2000/svg">
<g clip-path="url(#clip0_411_484)">
<path d="M20.1097 3.45334C20.2174 3.45334 20.3207 3.41054 20.3969 3.33435C20.4731 3.25816 20.5159 3.15483 20.5159 3.04709V0.406463C20.5159 0.298719 20.4731 0.195388 20.3969 0.119201C20.3207 0.0430148 20.2174 0.000213623 20.1097 0.000213623H12.3909C12.2832 0.000213623 12.1798 0.0430148 12.1037 0.119201C12.0275 0.195388 11.9847 0.298719 11.9847 0.406463V3.04709C11.9847 3.15483 12.0275 3.25816 12.1037 3.33435C12.1798 3.41054 12.2832 3.45334 12.3909 3.45334H13.4076C13.4076 3.48177 13.412 4.38974 13.4116 4.72571C12.3625 4.89979 11.9719 5.21748 11.3489 6.04602L9.88963 7.79696C9.75958 7.95759 9.66259 8.14236 9.60425 8.34064C9.54591 8.53891 9.52737 8.74676 9.5497 8.95223C9.57203 9.1577 9.63479 9.35672 9.73436 9.53783C9.83393 9.71894 9.96835 9.87857 10.1299 10.0075C10.2914 10.1365 10.4768 10.2322 10.6755 10.2891C10.8742 10.3461 11.0821 10.3632 11.2875 10.3395C11.4928 10.3157 11.6914 10.2516 11.8718 10.1508C12.0522 10.05 12.2109 9.91445 12.3387 9.75204L13.2032 8.67304V15.194C13.1993 15.4807 13.2941 15.7601 13.4718 15.9852C13.6495 16.2103 13.8992 16.3674 14.179 16.4302C14.4112 16.4776 14.6522 16.4558 14.8721 16.3674C14.9419 16.6256 15.0948 16.8537 15.3072 17.0163C15.5195 17.1789 15.7796 17.267 16.0471 17.267C16.3146 17.267 16.5746 17.1789 16.787 17.0163C16.9994 16.8537 17.1523 16.6256 17.222 16.3674C17.4418 16.4558 17.6828 16.4777 17.9149 16.4304C18.1948 16.3676 18.4446 16.2105 18.6223 15.9854C18.8 15.7602 18.8949 15.4808 18.8909 15.194V15.1647C19.0746 15.2304 19.2715 15.251 19.4648 15.2246C19.6581 15.1982 19.8422 15.1257 20.0016 15.0131C20.161 14.9006 20.2909 14.7513 20.3805 14.5779C20.47 14.4045 20.5164 14.2122 20.5159 14.0171C20.5159 14.0171 20.5139 8.10876 20.5133 8.10002C20.4978 7.01594 20.4131 5.75515 19.2972 5.04624V3.45313L20.1097 3.45334ZM19.7034 8.3328V14.0168C19.7034 14.1246 19.6606 14.2279 19.5844 14.3041C19.5082 14.3803 19.4049 14.4231 19.2972 14.4231C19.1894 14.4231 19.0861 14.3803 19.0099 14.3041C18.9337 14.2279 18.8909 14.1246 18.8909 14.0168V10.3604C18.8909 10.2527 18.8481 10.1493 18.7719 10.0731C18.6957 9.99695 18.5924 9.95415 18.4847 9.95415C18.3769 9.95415 18.2736 9.99695 18.1974 10.0731C18.1212 10.1493 18.0784 10.2527 18.0784 10.3604V15.2358C18.0784 15.3435 18.0356 15.4469 17.9594 15.5231C17.8832 15.5992 17.7799 15.6421 17.6722 15.6421C17.5644 15.6421 17.4611 15.5992 17.3849 15.5231C17.3087 15.4469 17.2659 15.3435 17.2659 15.2358V10.3604C17.2659 10.2527 17.2231 10.1493 17.1469 10.0731C17.0707 9.99695 16.9674 9.95415 16.8597 9.95415C16.7519 9.95415 16.6486 9.99695 16.5724 10.0731C16.4962 10.1493 16.4534 10.2527 16.4534 10.3604V16.0483C16.4534 16.156 16.4106 16.2594 16.3344 16.3356C16.2582 16.4117 16.1549 16.4546 16.0472 16.4546C15.9394 16.4546 15.8361 16.4117 15.7599 16.3356C15.6837 16.2594 15.6409 16.156 15.6409 16.0483V10.5635C15.6409 10.4558 15.5981 10.3524 15.5219 10.2763C15.4457 10.2001 15.3424 10.1573 15.2347 10.1573C15.1269 10.1573 15.0236 10.2001 14.9474 10.2763C14.8712 10.3524 14.8284 10.4558 14.8284 10.5635V15.2358C14.8284 15.3435 14.7856 15.4469 14.7094 15.5231C14.6332 15.5992 14.5299 15.6421 14.4222 15.6421C14.3144 15.6421 14.2111 15.5992 14.1349 15.5231C14.0587 15.4469 14.0159 15.3435 14.0159 15.2358C14.0159 15.2358 14.0139 7.50243 14.0137 7.49532C14.0085 7.4127 13.9785 7.33358 13.9276 7.26828C13.8767 7.20298 13.8073 7.15454 13.7285 7.12929C13.3594 7.01554 13.097 7.50629 12.9073 7.74313L11.7033 9.24585C11.6424 9.32525 11.5664 9.39175 11.4795 9.44147C11.3927 9.4912 11.2968 9.52315 11.1975 9.53547C11.0982 9.5478 10.9974 9.54025 10.9011 9.51326C10.8047 9.48627 10.7147 9.44039 10.6362 9.37828C10.5577 9.31617 10.4924 9.23908 10.444 9.15148C10.3956 9.06389 10.3652 8.96754 10.3544 8.86806C10.3436 8.76858 10.3527 8.66794 10.3811 8.572C10.4096 8.47606 10.4568 8.38674 10.5201 8.30924C10.5201 8.30924 11.9877 6.54815 11.9897 6.5453C12.5565 5.79049 12.7799 5.6158 13.8638 5.48174C14.2251 5.43563 14.2249 5.2447 14.2241 4.53416C14.2237 4.2246 14.2201 3.48056 14.2201 3.45354H18.4847V5.28166C18.4846 5.35654 18.5053 5.42998 18.5444 5.49385C18.5834 5.55773 18.6394 5.60956 18.7061 5.64363C19.612 6.10574 19.6908 7.04987 19.7034 8.33301V8.3328Z" fill="#0F434B"/>
<path d="M25.1551 9.67079C25.4995 9.44719 25.7545 9.10974 25.8755 8.71734C25.9965 8.32495 25.9759 7.90251 25.8173 7.52376C25.6523 7.12804 25.3396 6.81223 24.9455 6.64344C24.5514 6.47465 24.107 6.46619 23.7068 6.61985C23.7758 6.27846 23.7419 5.92427 23.6093 5.60219C23.5216 5.39788 23.3944 5.21292 23.235 5.05792C23.0756 4.90293 22.8871 4.78097 22.6804 4.69905C22.4738 4.61713 22.2529 4.57686 22.0306 4.58057C21.8083 4.58427 21.5889 4.63187 21.3851 4.72063L20.5421 5.10657C20.7063 5.32447 20.8427 5.56191 20.9484 5.81344C20.9484 5.81344 21.7223 5.46001 21.7243 5.45797C21.8294 5.41349 21.9422 5.39018 22.0563 5.38939C22.1704 5.38861 22.2835 5.41035 22.3892 5.45337C22.4949 5.4964 22.591 5.55986 22.6721 5.64013C22.7532 5.72039 22.8177 5.81587 22.8618 5.9211C22.9492 6.16464 22.9469 6.43137 22.8554 6.67337C22.7638 6.91538 22.5889 7.11679 22.3621 7.24141L21.316 7.72688C21.318 7.76547 21.3384 8.61657 21.3282 8.61657C21.3282 8.61657 23.979 7.38563 23.981 7.3836C24.082 7.34068 24.1905 7.31837 24.3001 7.31798C24.4098 7.3176 24.5185 7.33913 24.6197 7.38133C24.721 7.42353 24.8127 7.48554 24.8897 7.56372C24.9666 7.6419 25.0272 7.73466 25.0677 7.83657C25.1591 8.05335 25.1655 8.29657 25.0857 8.51788C25.006 8.73918 24.8458 8.92235 24.6371 9.03094L21.3282 10.5686V11.4644C21.3282 11.4644 23.8734 10.2822 23.8754 10.2802C24.1073 10.1911 24.3646 10.1949 24.5938 10.2906C24.823 10.3863 25.0066 10.5666 25.1063 10.7941C25.2058 11.0225 25.2169 11.2798 25.1373 11.5159C25.0577 11.752 24.8932 11.9501 24.6757 12.0717L21.3282 13.6277V13.6378C21.3462 13.9513 21.3202 14.2659 21.251 14.5722C21.251 14.5722 23.2965 13.6134 23.3005 13.6114C23.7413 13.4063 24.1171 13.8064 24.2938 14.168C24.5457 14.6839 24.2024 15.3298 23.6926 15.5513L15.0049 19.3172C13.4795 19.9834 12.1632 20.5603 10.8287 19.4959C10.7676 19.4478 10.694 19.4182 10.6166 19.4107C10.5392 19.4031 10.4612 19.4179 10.392 19.4533L7.33086 21.0072L4.52977 14.4625C4.73492 14.3772 6.9043 13.4773 7.01805 13.4286C7.21102 13.3453 7.53602 13.2052 7.42227 12.8517C6.88399 11.1434 6.61586 10.1136 7.32477 8.82579L9.41492 5.45188C9.41899 5.44376 9.42508 5.4336 9.42914 5.42547C9.59952 5.10226 9.88891 4.85797 10.2361 4.74425C10.5834 4.63054 10.9612 4.6563 11.2898 4.8161C11.302 4.82219 11.3141 4.83032 11.3263 4.83641C11.5333 4.63271 11.7678 4.45904 12.023 4.32048C11.9067 4.23021 11.7814 4.15195 11.6493 4.08688C11.1326 3.8354 10.5385 3.79371 9.99172 3.97055C9.44492 4.14739 8.9878 4.52903 8.71617 5.03547L6.62602 8.41141C6.62399 8.41344 6.62399 8.4175 6.62195 8.41954C6.61992 8.4236 6.61789 8.42563 6.61586 8.42969C5.81555 9.87594 6.02477 11.0642 6.5407 12.7481C6.14461 12.9147 4.39367 13.6378 4.21086 13.715L3.74774 12.6323C3.70584 12.535 3.62766 12.4579 3.52981 12.4173C3.43195 12.3768 3.32214 12.3759 3.22367 12.415L0.256019 13.5992C0.206397 13.6186 0.161112 13.6477 0.122777 13.6847C0.0844419 13.7217 0.0538157 13.766 0.0326654 13.8149C0.0115151 13.8638 0.000259362 13.9164 -0.000452284 13.9697C-0.00116393 14.023 0.00868257 14.0759 0.0285191 14.1253V26H3.98011L8.19211 24.0155C8.28737 23.971 8.36161 23.8913 8.39914 23.7931C8.43667 23.6949 8.43454 23.586 8.3932 23.4894L7.6518 21.7567L10.5341 20.2902C12.1835 21.4378 13.8512 20.7086 15.3299 20.0627L24.0237 16.2927C24.5253 16.0418 24.9104 15.6065 25.0982 15.078C25.346 14.3813 25.0413 13.5322 24.4746 13.063L25.0251 12.805C25.4317 12.5934 25.7434 12.2359 25.8975 11.8042C26.0515 11.3725 26.0367 10.8984 25.8559 10.4772C25.7113 10.1424 25.4664 9.86066 25.1551 9.67079V9.67079ZM2.83774 14.8992C2.82402 14.9785 2.78709 15.0519 2.73162 15.1101C2.67615 15.1684 2.60464 15.2088 2.52614 15.2264C2.44765 15.244 2.36571 15.2378 2.29071 15.2088C2.2157 15.1797 2.15101 15.1291 2.10483 15.0632C2.05864 14.9974 2.03305 14.9193 2.03128 14.8389C2.02952 14.7585 2.05167 14.6793 2.09492 14.6115C2.13817 14.5437 2.20058 14.4902 2.27424 14.4579C2.34789 14.4256 2.42949 14.4159 2.50867 14.43C2.61438 14.4489 2.70832 14.5088 2.76998 14.5967C2.83163 14.6847 2.85599 14.7934 2.83774 14.8992Z" fill="#0F434B"/>
</g>
<defs>
<clipPath id="clip0_411_484">
<rect width="26" height="26" fill="white"/>
</clipPath>
</defs>
</svg>
