<svg width="20" height="22" viewBox="0 0 20 22" fill="none" xmlns="http://www.w3.org/2000/svg">
<path fill-rule="evenodd" clip-rule="evenodd" d="M1.5625 0.876892V14.9402L9.37459 17.2823L17.1867 14.9402V0.876892L9.37459 3.22052L1.5625 0.876892Z" fill="#2ECC71"/>
<path fill-rule="evenodd" clip-rule="evenodd" d="M0.65625 3.51703V16.0164L9.06837 18.8209L9.2363 18.5842C9.41598 18.3311 9.705 18.1647 10.0308 18.1647C10.3573 18.1647 10.6479 18.3311 10.8276 18.5826L10.9956 18.8194L19.4053 16.0164V3.51703L17.8429 3.99589V14.454L10.0308 16.7976L2.21867 14.454V3.99589L0.65625 3.51703Z" fill="#FBC56F"/>
<path fill-rule="evenodd" clip-rule="evenodd" d="M1.95297 17.1526V18.8017L2.21083 18.8954C2.3639 18.9464 2.49655 19.0453 2.58923 19.1773C2.68191 19.3094 2.72969 19.4678 2.7256 19.6291C2.7256 19.9501 2.50689 20.2641 2.2116 20.3673L1.95068 20.461V21.9695L8.80887 19.7219C8.80106 19.6891 8.78932 19.6603 8.78932 19.6259C8.78932 19.5611 8.80728 19.5024 8.82603 19.4446L1.95297 17.1526ZM16.7952 17.1526L9.92442 19.4431C9.94621 19.5017 9.9586 19.5634 9.96113 19.6259C9.96113 19.6611 9.94715 19.69 9.94168 19.7236L16.7983 21.9695V20.4602L16.5374 20.3673C16.388 20.3094 16.2592 20.2082 16.1676 20.0767C16.076 19.9452 16.0257 19.7893 16.0233 19.6291C16.0233 19.2947 16.2062 19.015 16.5374 18.8947L16.7952 18.8017V17.1526Z" fill="#E0A45C"/>
<path fill-rule="evenodd" clip-rule="evenodd" d="M2.21875 16.805V18.3643C2.21875 18.4679 2.25993 18.5672 2.33318 18.6404C2.40644 18.7137 2.50576 18.7549 2.60935 18.7549C2.82575 18.7549 2.99452 18.9244 2.99452 19.1455C2.99568 19.1965 2.98657 19.2472 2.96773 19.2946C2.94888 19.342 2.92072 19.3852 2.88486 19.4215C2.849 19.4577 2.80616 19.4864 2.75898 19.5058C2.7118 19.5253 2.66123 19.535 2.61021 19.5345C2.50662 19.5345 2.4072 19.5756 2.33395 19.6489C2.2607 19.7221 2.21961 19.8215 2.21961 19.9251V21.486C2.21961 21.5477 2.23425 21.6085 2.26233 21.6635C2.29041 21.7185 2.33105 21.7661 2.38106 21.8023C2.43107 21.8385 2.48894 21.8624 2.54994 21.8719C2.61095 21.8814 2.67343 21.8763 2.73209 21.857L8.97547 19.8126L8.73334 19.0689L3.00082 20.9477V20.1524C3.43048 19.979 3.77573 19.6345 3.77573 19.1455C3.77573 18.6564 3.43048 18.3119 3.00082 18.1377V16.805H2.21875Z" fill="#122962"/>
<path fill-rule="evenodd" clip-rule="evenodd" d="M0 4.00171V16.5011L8.41212 19.3056L8.58005 19.0689C8.75973 18.8158 9.04873 18.6494 9.37528 18.6494C9.70182 18.6494 9.99245 18.815 10.1721 19.0674L10.3393 19.3041L18.7498 16.5011V4.00171L17.1874 4.48062V14.9386L9.37528 17.2823L1.56318 14.9386V4.48062L0 4.00171Z" fill="#FABD6B"/>
<path fill-rule="evenodd" clip-rule="evenodd" d="M9.37446 18.6494C8.84246 18.6494 8.39795 19.0931 8.39795 19.6259C8.39795 20.1587 8.84246 20.6024 9.37446 20.6024C9.90803 20.6024 10.351 20.1587 10.351 19.6259C10.351 19.0931 9.90725 18.6494 9.37446 18.6494Z" fill="#F29F4A"/>
<path fill-rule="evenodd" clip-rule="evenodd" d="M2.2156 0V0.00157348C2.11255 0.00239793 2.01401 0.043894 1.94143 0.117057C1.86885 0.190221 1.82804 0.289122 1.82804 0.392178V3.467L0.771142 3.14358C0.733514 3.13147 0.694229 3.12516 0.654704 3.12484C0.55138 3.12525 0.452403 3.16659 0.379488 3.2398C0.306573 3.313 0.265624 3.41212 0.265625 3.51544V16.0132C0.265523 16.0953 0.291285 16.1753 0.339245 16.2419C0.387205 16.3086 0.454957 16.3584 0.532831 16.3843L2.21865 16.9468V18.3616C2.21865 18.4652 2.25983 18.5645 2.33308 18.6377C2.40634 18.711 2.50566 18.7522 2.60925 18.7522C2.82565 18.7522 2.99366 18.9217 2.99366 19.1428C2.99482 19.1938 2.98571 19.2445 2.96686 19.2919C2.94802 19.3393 2.91976 19.3825 2.8839 19.4188C2.84804 19.4551 2.8053 19.4838 2.75811 19.5032C2.71093 19.5226 2.66027 19.5323 2.60925 19.5318C2.50566 19.5318 2.40634 19.5729 2.33308 19.6462C2.25983 19.7194 2.21865 19.8188 2.21865 19.9224V21.4833C2.21861 21.5451 2.23335 21.606 2.26147 21.6611C2.28959 21.7162 2.33037 21.7638 2.38048 21.8001C2.43059 21.8363 2.48854 21.8601 2.54965 21.8695C2.61076 21.879 2.67328 21.8738 2.73199 21.8544L8.86675 19.8451C9.10736 20.2396 9.53858 20.5067 10.0307 20.5067C10.5229 20.5067 10.9557 20.2396 11.1964 19.8451L17.3304 21.8544C17.389 21.8736 17.4515 21.8787 17.5125 21.8692C17.5735 21.8597 17.6314 21.8358 17.6814 21.7996C17.7314 21.7634 17.772 21.7159 17.8001 21.6609C17.8282 21.6059 17.8428 21.545 17.8428 21.4833V19.9224C17.8428 19.8188 17.8018 19.7194 17.7285 19.6462C17.6552 19.5729 17.5558 19.5318 17.4522 19.5318C17.4012 19.5323 17.3507 19.5226 17.3035 19.5032C17.2563 19.4838 17.2134 19.4551 17.1776 19.4188C17.1417 19.3825 17.1136 19.3393 17.0947 19.2919C17.0759 19.2445 17.0668 19.1938 17.0679 19.1428C17.0679 18.9217 17.2366 18.7522 17.4522 18.7522C17.5558 18.7522 17.6552 18.711 17.7285 18.6377C17.8018 18.5645 17.8428 18.4652 17.8428 18.3616V16.9476L19.5288 16.3843C19.6066 16.3584 19.6743 16.3086 19.7222 16.2419C19.7702 16.1753 19.796 16.0953 19.7959 16.0132V3.51544C19.7959 3.46315 19.7854 3.41137 19.7651 3.3632C19.7447 3.31503 19.7149 3.27146 19.6774 3.23503C19.6399 3.1986 19.5954 3.17008 19.5467 3.15116C19.4979 3.13223 19.4459 3.12327 19.3936 3.12484C19.3588 3.1265 19.3243 3.13279 19.2912 3.14358L18.2334 3.467V0.392178C18.2333 0.331317 18.2191 0.271295 18.1917 0.21695C18.1643 0.162604 18.1246 0.115424 18.0757 0.0791508C18.0268 0.0428775 17.9701 0.0185459 17.9102 0.00805813C17.8502 -0.00242961 17.7887 0.00121067 17.7304 0.0187387L10.0307 2.3288L2.33194 0.0187387C2.29431 0.00663559 2.25512 0.000324222 2.2156 0ZM2.60925 0.917149L9.91831 3.11001C9.99193 3.13223 10.0704 3.13223 10.144 3.11001L17.4522 0.917149V14.1641L10.0307 16.3906L2.60925 14.1641V0.917149ZM1.04683 4.04513L1.82804 4.28492V14.4539C1.82801 14.5379 1.8551 14.6197 1.90519 14.6871C1.95529 14.7545 2.02579 14.804 2.10622 14.8281L9.91984 17.1718C9.99297 17.1937 10.0709 17.1937 10.144 17.1718L17.9561 14.8281C18.0364 14.8038 18.1067 14.7543 18.1567 14.6869C18.2066 14.6195 18.2335 14.5378 18.2334 14.4539V4.28492L19.0147 4.04513V15.7343L11.1464 18.3568C11.0205 18.1777 10.8535 18.0313 10.6594 17.9299C10.4653 17.8285 10.2497 17.7751 10.0307 17.7741C9.81184 17.7752 9.59645 17.8288 9.40259 17.9305C9.20873 18.0322 9.04215 18.1789 8.91681 18.3584L1.04683 15.7336V4.04513ZM3.00148 17.2101L8.65352 19.0943L2.99986 20.9458V20.2521C3.46077 20.0904 3.77487 19.6333 3.77487 19.1443C3.77717 18.9031 3.70395 18.6673 3.56555 18.4698C3.42715 18.2723 3.23047 18.123 3.00301 18.0428L3.00148 17.2101ZM17.0601 17.2101V18.0428C16.8326 18.123 16.636 18.2723 16.4976 18.4698C16.3592 18.6673 16.2859 18.9031 16.2882 19.1443C16.2882 19.6333 16.6031 20.0904 17.0632 20.2521V20.9466L11.4104 19.0943L17.0601 17.2101ZM10.0307 18.5553C10.3589 18.5553 10.6167 18.8131 10.6167 19.1412C10.6167 19.4693 10.3589 19.7271 10.0307 19.7271C9.70264 19.7271 9.44484 19.4693 9.44484 19.1412C9.44484 18.8131 9.70264 18.5553 10.0307 18.5553Z" fill="#3B3C3D"/>
<path fill-rule="evenodd" clip-rule="evenodd" d="M3.51332 2.96317C3.41013 2.96379 3.31132 3.00518 3.23858 3.07836C3.16583 3.15155 3.125 3.25058 3.125 3.35377V13.4759C3.12507 13.5601 3.15232 13.642 3.20272 13.7094C3.25312 13.7769 3.32398 13.8262 3.4047 13.8501L9.26377 15.6078C9.3369 15.6297 9.41484 15.6297 9.48797 15.6078L15.347 13.8501C15.4273 13.8258 15.4976 13.7762 15.5476 13.7088C15.5975 13.6415 15.6244 13.5598 15.6244 13.4759V3.35377C15.6242 3.29309 15.6099 3.23326 15.5826 3.17907C15.5553 3.12488 15.5157 3.07779 15.467 3.04155C15.4183 3.00531 15.3619 2.9809 15.3021 2.97027C15.2424 2.95964 15.181 2.9631 15.1228 2.98033L9.3763 4.70449L3.63042 2.98033C3.59296 2.96884 3.55403 2.96306 3.51484 2.96317H3.51332Z" fill="#DBE0EC"/>
<path fill-rule="evenodd" clip-rule="evenodd" d="M3.77818 1.95459C3.67513 1.95542 3.57659 1.99691 3.50401 2.07008C3.43143 2.14324 3.39062 2.24214 3.39063 2.3452V13.2821C3.39059 13.3661 3.41768 13.4479 3.46777 13.5153C3.51787 13.5827 3.58837 13.6321 3.6688 13.6563L9.92 15.5312C9.99313 15.5531 10.0711 15.5531 10.1442 15.5312L16.3939 13.6563C16.4741 13.632 16.5445 13.5825 16.5944 13.5151C16.6444 13.4477 16.6713 13.366 16.6712 13.2821V2.3452C16.6711 2.28434 16.6568 2.22432 16.6294 2.16997C16.602 2.11562 16.5623 2.06844 16.5135 2.03217C16.4646 1.9959 16.4079 1.97157 16.3479 1.96108C16.288 1.95059 16.2264 1.95423 16.1681 1.97176L10.0309 3.81307L3.89452 1.97176C3.85681 1.96019 3.81762 1.95441 3.77818 1.95459ZM4.17183 2.87017L9.91847 4.59428C9.99209 4.6165 10.0706 4.6165 10.1442 4.59428L15.89 2.87017V12.9923L10.0309 14.75L4.17183 12.9923V2.87017Z" fill="#3B3C3D"/>
<path fill-rule="evenodd" clip-rule="evenodd" d="M9.64014 2.73767V16.7994H10.4213V2.73767H9.64014Z" fill="#3B3C3D"/>
</svg>
