<svg width="26" height="26" viewBox="0 0 26 26" fill="none" xmlns="http://www.w3.org/2000/svg">
<g clip-path="url(#clip0_411_502)">
<path d="M22.4953 21.9439H19.6499L17.7125 17.487C17.6818 17.1249 17.6226 16.7439 17.5372 16.4319H18.3146L20.1033 20.6624C20.3108 21.1125 20.756 21.3776 21.2211 21.3776C21.3935 21.3776 21.5686 21.3411 21.7353 21.2642C22.3522 20.9798 22.6218 20.2492 22.3374 19.6323L20.2191 14.6946C20.0181 14.2587 19.582 13.9879 19.102 13.9879H16.3599C15.6974 13.0519 14.8287 12.3937 13.8268 11.9207L12.6123 7.50981C12.3315 6.49098 11.278 5.89038 10.2592 6.17123C9.49884 6.38084 8.97291 7.01976 8.87172 7.75458C8.86236 7.79368 8.22411 13.6088 8.22411 13.6088C8.2044 13.7893 8.23651 13.9717 8.31667 14.1347C8.39683 14.2976 8.52173 14.4344 8.67677 14.529L13.0629 17.2055C13.2126 17.2972 13.3848 17.3458 13.5604 17.3457C13.8829 17.3457 14.1977 17.1826 14.378 16.8872C14.6532 16.4361 14.5108 15.8473 14.0597 15.5722L10.1922 13.2119L10.2448 12.7298C10.4697 12.701 10.6986 12.6853 10.9312 12.6853C13.7258 12.6853 16.0297 14.8251 16.2912 17.5523C16.2823 17.6361 16.2885 17.7207 16.3095 17.8023C16.3139 17.8911 16.3162 17.9804 16.3162 18.0702C16.3162 21.0395 13.9005 23.4552 10.9312 23.4552C7.96192 23.4552 5.54626 21.0395 5.54626 18.0702C5.54626 16.4994 6.22247 15.0836 7.29898 14.0984L7.71378 10.3094L6.80654 7.50997C6.77868 7.41402 6.73103 7.32497 6.66666 7.24856C6.53676 7.07936 6.33302 6.96797 6.10318 6.96797H4.18974C3.79724 6.96797 3.479 7.27748 3.479 7.66997C3.479 8.06247 3.79719 8.37187 4.18974 8.37187H5.5875L6.8564 12.6125C5.19942 13.8551 4.12484 15.8391 4.12484 18.0649C4.12484 21.818 7.17818 24.8739 10.9312 24.8739C13.9137 24.8739 16.454 22.9469 17.3716 20.2717L18.5319 22.932C18.6446 23.1917 18.9007 23.3479 19.1838 23.3479H22.4954C22.8878 23.3479 23.2061 23.0384 23.2061 22.6459C23.2061 22.2534 22.8878 21.9439 22.4953 21.9439Z" fill="#0F434B"/>
<path d="M9.89311 5.59769C11.1765 5.59769 12.2169 4.5573 12.2169 3.27391C12.2169 1.99052 11.1765 0.950134 9.89311 0.950134C8.60973 0.950134 7.56934 1.99052 7.56934 3.27391C7.56934 4.5573 8.60973 5.59769 9.89311 5.59769Z" fill="#333333"/>
</g>
<defs>
<clipPath id="clip0_411_502">
<rect width="26" height="26" fill="white"/>
</clipPath>
</defs>
</svg>
