<svg width="50" height="50" viewBox="0 0 50 50" fill="none" xmlns="http://www.w3.org/2000/svg">
<g clip-path="url(#clip0_548_289)">
<path d="M24.9946 49.1118C38.3144 49.1118 49.1122 38.3139 49.1122 24.9941C49.1122 11.6743 38.3144 0.876465 24.9946 0.876465C11.6748 0.876465 0.876953 11.6743 0.876953 24.9941C0.876953 38.3139 11.6748 49.1118 24.9946 49.1118Z" fill="#009846"/>
<path fill-rule="evenodd" clip-rule="evenodd" d="M22.1341 10.5651L24.5562 15.5478C24.5562 15.5478 25.0176 17.0472 24.0257 17.7969C18.547 21.9723 23.8527 32.8719 30.5193 31.1303C31.7304 30.8189 32.6185 32.0991 32.6185 32.0991L35.0407 37.0818C36.8284 40.196 28.7892 42.1222 24.8907 38.5813C21.246 35.271 18.7085 29.5155 18.3855 28.7889C18.0049 28.0968 15.0407 22.549 14.6831 17.6355C14.3025 12.3875 20.7731 7.23177 22.1226 10.5651H22.1341Z" fill="#FEFEFE"/>
</g>
<defs>
<clipPath id="clip0_548_289">
<rect width="50" height="50" fill="white"/>
</clipPath>
</defs>
</svg>
