<svg width="50" height="50" viewBox="0 0 50 50" fill="none" xmlns="http://www.w3.org/2000/svg">
<path d="M7.42184 12.2212H42.5777C44.7418 12.2212 46.484 13.9634 46.484 16.1274V31.3156C46.484 33.4797 44.7418 35.2218 42.5777 35.2218H7.42184C5.2578 35.2218 3.51562 33.4797 3.51562 31.3156V16.1274C3.51562 13.9634 5.2578 12.2212 7.42184 12.2212Z" fill="#0066FF"/>
<path d="M12.9384 1.55762H37.0608C39.2248 1.55762 40.967 3.29979 40.967 5.46383V34.4921C40.967 36.6561 39.2248 38.3983 37.0608 38.3983H12.9384C10.7744 38.3983 9.03223 36.6561 9.03223 34.4921V5.46383C9.03223 3.29979 10.7744 1.55762 12.9384 1.55762Z" fill="#A8D0FF"/>
<path d="M15.2114 11.6443C14.1324 11.6433 13.2569 12.5174 13.2578 13.5979C13.2584 14.677 14.1339 15.5511 15.2125 15.5505L34.7901 15.5505C35.868 15.5499 36.7417 14.6762 36.7422 13.5983C36.7417 12.5205 35.868 11.6468 34.79 11.6462L15.2114 11.6443ZM18.6035 24.4089C17.5245 24.4099 16.649 23.5357 16.6499 22.4553C16.6505 21.3762 17.5259 20.502 18.6046 20.5027L31.3721 20.5027C32.45 20.5032 33.3237 21.3769 33.3243 22.4548C33.3238 23.5327 32.4501 24.4064 31.3721 24.407L18.6035 24.4089Z" fill="white"/>
<path d="M3.51562 20.5369V44.5416C3.51562 46.7057 5.25779 48.4479 7.42183 48.4479H42.5777C44.7418 48.4479 46.484 46.7057 46.484 44.5416V20.5369L24.6092 34.7617L3.51562 20.5369Z" fill="#00A1FF"/>
</svg>
