<svg width="56" height="56" viewBox="0 0 56 56" fill="none" xmlns="http://www.w3.org/2000/svg">
<g clip-path="url(#clip0_411_302)">
<path d="M19.9301 52.7986L24.3202 48.4075C26.0226 46.7051 26.0226 43.9444 24.3202 42.2419C26.0211 43.9428 28.7832 43.9444 30.4857 42.2419C32.1881 40.5395 32.1881 37.7799 30.4857 36.0764C32.1853 37.7781 34.9487 37.781 36.6512 36.0764C38.3537 34.374 38.3537 31.6144 36.6512 29.912C38.3537 31.6144 41.1144 31.6144 42.8168 29.912L44.7263 28.0014C45.9916 26.7371 46.8363 25.1132 47.148 23.3519L48.9823 12.9565L48.1572 12.1315L37.7618 13.9658C36.0006 14.2775 34.3766 15.1221 33.1124 16.3875L31.2018 18.297C29.4994 19.9994 29.4994 22.7601 31.2018 24.4625C30.3506 23.6113 29.2356 23.1852 28.1196 23.1852C27.0035 23.1852 25.8885 23.6113 25.0373 24.4625C23.3338 26.1649 23.3338 28.9256 25.0373 30.628C23.3353 28.9281 20.5752 28.9247 18.8718 30.628C17.1694 32.3305 17.1694 35.0912 18.8718 36.7936C17.1694 35.0912 14.4087 35.0912 12.7063 36.7936L8.31512 41.1837C5.7615 43.7373 5.7615 47.8778 8.31512 50.4325L10.6813 52.7986C13.236 55.3523 17.3764 55.3523 19.9301 52.7986Z" fill="#EB9309"/>
<path d="M54.0879 41.7788L51.2476 36.2142L48.4074 41.7788C48.0281 42.521 47.8145 43.3624 47.8145 44.2528C47.8145 46.5495 49.2367 48.5133 51.2476 49.3153C53.2586 48.5133 54.6808 46.5496 54.6808 44.2528C54.6808 43.3624 54.4672 42.521 54.0879 41.7788Z" fill="#EB9309"/>
<path d="M52.0635 12.9565L54.0406 10.9795C54.8918 10.1283 54.8918 8.74846 54.0406 7.89725L51.6352 5.49186C50.784 4.64065 49.4042 4.64065 48.553 5.49186L46.5759 7.46892C45.7247 8.32013 45.7247 9.69994 46.5759 10.5511L48.9813 12.9565C49.8325 13.8077 51.2123 13.8077 52.0635 12.9565Z" fill="#EB9309"/>
<path d="M41.3019 25.2876C41.727 24.8615 41.727 24.1715 41.3019 23.7465C40.8758 23.3203 40.1859 23.3203 39.7597 23.7465C39.3347 24.1715 39.3347 24.8615 39.7597 25.2876C40.1859 25.7137 40.8758 25.7137 41.3019 25.2876Z" fill="black"/>
<path d="M2.23055 45.8629L9.9374 53.5697C12.9125 56.5433 17.7526 56.5441 20.7276 53.5695L25.1175 49.1783C26.3761 47.9197 26.8889 46.1934 26.6564 44.5535C28.3556 44.7932 30.0539 44.2419 31.283 43.0129C32.5411 41.7547 33.0538 40.0289 32.8216 38.389C34.5118 38.6277 36.2126 38.0845 37.4486 36.8474C38.7069 35.5891 39.2196 33.8634 38.9874 32.224C40.6936 32.4649 42.3894 31.9076 43.6144 30.6826L45.5234 28.7727C46.9531 27.3442 47.8952 25.5355 48.248 23.5415L49.8251 14.6038C50.9077 14.8479 52.0496 14.5399 52.862 13.7275L54.839 11.7504C56.1168 10.4726 56.117 8.40474 54.839 7.12684L48.6734 0.961211C47.3956 -0.316361 45.3277 -0.316797 44.0497 0.961211L42.0727 2.93828C41.262 3.74894 40.9517 4.89038 41.1963 5.97505L32.2579 7.55223C30.2644 7.90503 28.4558 8.84724 27.028 10.2763L25.1172 12.186C23.8588 13.4444 23.346 15.1703 23.5782 16.8098C21.9264 16.5765 20.215 17.0893 18.9529 18.3513C17.6926 19.6108 17.1773 21.3208 17.4105 22.9761C15.7594 22.7438 14.0484 23.256 12.7872 24.5171C11.5629 25.7415 11.0052 27.4368 11.246 29.1436C9.60629 28.9112 7.88033 29.424 6.62173 30.6825L2.23044 35.0727C-0.743443 38.0469 -0.743552 42.8873 2.23055 45.8629ZM43.6143 4.4796L45.5914 2.50254C46.0174 2.07661 46.7064 2.07672 47.1323 2.50254L53.2977 8.66817C53.7229 9.09345 53.7245 9.78215 53.2977 10.2091L51.3206 12.1861C50.8947 12.6119 50.2058 12.6121 49.7797 12.1861L43.6142 6.02049C43.1883 5.59445 43.1882 4.90564 43.6143 4.4796ZM26.6585 13.7276L28.5697 11.8175C29.6803 10.7058 31.0872 9.97321 32.6374 9.69877L42.4741 7.96312L47.8371 13.3263L46.1016 23.1623C45.8271 24.7131 45.0945 26.12 43.9822 27.2312L42.0729 29.1415C40.798 30.4164 38.7237 30.4164 37.4487 29.1415L26.6588 18.3515C25.3838 17.0766 25.3838 15.0023 26.6585 13.7276ZM20.4943 19.8929C21.7727 18.6145 23.8389 18.6143 25.1174 19.8929L35.9074 30.6828C37.182 31.9573 37.182 34.0313 35.9069 35.3064C34.6306 36.5842 32.5602 36.5845 31.2832 35.3059L20.494 24.5168C19.2158 23.2395 19.2151 21.1711 20.4943 19.8929ZM14.3287 26.0584C15.6053 24.7817 17.6726 24.7813 18.9519 26.0576C18.9522 26.058 18.9524 26.0582 18.9528 26.0585L29.7412 36.8468C31.0158 38.1223 31.016 40.1969 29.7415 41.4714C28.4672 42.7457 26.3971 42.7511 25.1174 41.4714L14.3286 30.6826C13.0512 29.405 13.0509 27.3363 14.3287 26.0584ZM8.16327 32.2239C9.43812 30.949 11.5125 30.949 12.7875 32.2239L23.5763 43.0127C24.8512 44.2876 24.8512 46.362 23.5762 47.637L19.1862 52.028C17.0618 54.1526 13.604 54.1525 11.4787 52.028L3.7722 44.3217C1.64767 42.1962 1.64767 38.7385 3.77198 36.6141L8.16327 32.2239Z" fill="black"/>
<path d="M50.2278 31.7685C50.0416 31.4037 49.6666 31.1741 49.2571 31.1741C48.8475 31.1741 48.4725 31.4037 48.2863 31.7685L43.4301 41.2827C41.2228 45.601 44.3681 50.7921 49.2571 50.7921C54.1451 50.7921 57.2915 45.6019 55.0844 41.2832L50.2278 31.7685ZM49.2571 48.6124C45.9946 48.6124 43.9026 45.1476 45.3714 42.2742L49.2571 34.6613L53.1431 42.2746C54.6098 45.1449 52.5227 48.6124 49.2571 48.6124Z" fill="black"/>
<path d="M38.2188 20.6631L32.9568 15.4011C32.5311 14.9754 31.8412 14.9754 31.4154 15.4011C30.9898 15.8267 30.9898 16.5168 31.4154 16.9424L36.6774 22.2044C37.1031 22.63 37.793 22.63 38.2188 22.2044C38.6444 21.7787 38.6444 21.0887 38.2188 20.6631Z" fill="black"/>
</g>
<defs>
<clipPath id="clip0_411_302">
<rect width="55.8028" height="55.8028" fill="white"/>
</clipPath>
</defs>
</svg>
