<svg width="58" height="43" viewBox="0 0 58 43" fill="none" xmlns="http://www.w3.org/2000/svg">
<circle cx="28.7737" cy="20.4832" r="15.6945" fill="#EB9309"/>
<path d="M14.9487 15.7354H22.0296C22.6504 15.7354 23.1536 15.2322 23.1536 14.6114C23.1536 13.9907 22.6504 13.4875 22.0296 13.4875H14.9487C14.3279 13.4875 13.8247 13.9907 13.8247 14.6114C13.8247 15.2322 14.3279 15.7354 14.9487 15.7354Z" fill="black"/>
<path d="M14.9487 22.4792H22.0296C22.6504 22.4792 23.1536 21.976 23.1536 21.3552C23.1536 20.7345 22.6504 20.2313 22.0296 20.2313H14.9487C14.3279 20.2313 13.8247 20.7345 13.8247 21.3552C13.8247 21.976 14.3279 22.4792 14.9487 22.4792Z" fill="black"/>
<path d="M14.9487 29.2229H22.0296C22.6504 29.2229 23.1536 28.7197 23.1536 28.0989C23.1536 27.4782 22.6504 26.975 22.0296 26.975H14.9487C14.3279 26.975 13.8247 27.4782 13.8247 28.0989C13.8247 28.7197 14.3279 29.2229 14.9487 29.2229Z" fill="black"/>
<path d="M42.598 13.4875H35.517C34.8963 13.4875 34.3931 13.9907 34.3931 14.6114C34.3931 15.2322 34.8963 15.7354 35.517 15.7354H42.598C43.2187 15.7354 43.7219 15.2322 43.7219 14.6114C43.7219 13.9907 43.2187 13.4875 42.598 13.4875Z" fill="black"/>
<path d="M42.598 20.2313H35.517C34.8963 20.2313 34.3931 20.7345 34.3931 21.3552C34.3931 21.976 34.8963 22.4792 35.517 22.4792H42.598C43.2187 22.4792 43.7219 21.976 43.7219 21.3552C43.7219 20.7345 43.2187 20.2313 42.598 20.2313Z" fill="black"/>
<path d="M42.5981 42.7104C43.2188 42.7104 43.722 42.2072 43.722 41.5865C43.722 40.9657 43.2188 40.4625 42.5981 40.4625C41.9773 40.4625 41.4741 40.9657 41.4741 41.5865C41.4741 42.2072 41.9773 42.7104 42.5981 42.7104Z" fill="black"/>
<path d="M56.4227 3.37188H50.4657V1.12396C50.4657 0.503196 49.9625 0 49.3418 0H36.9142C33.9008 0 31.0486 1.04742 28.7733 2.97006C26.498 1.04742 23.6458 0 20.6325 0H8.2049C7.58414 0 7.08094 0.503196 7.08094 1.12396V3.37188H1.12396C0.503196 3.37188 0 3.87507 0 4.49583V41.5865C0 42.2072 0.503196 42.7104 1.12396 42.7104H37.5402C38.161 42.7104 38.6642 42.2072 38.6642 41.5865C38.6642 40.9657 38.161 40.4625 37.5402 40.4625H29.8973V38.694C31.8174 36.9317 34.2915 35.9667 36.9142 35.9667H49.3418C49.9625 35.9667 50.4657 35.4635 50.4657 34.8427V5.61979H55.2988V40.4625H47.6558C47.0351 40.4625 46.5319 40.9657 46.5319 41.5865C46.5319 42.2072 47.0351 42.7104 47.6558 42.7104H56.4227C57.0435 42.7104 57.5467 42.2072 57.5467 41.5865V4.49583C57.5467 3.87507 57.0435 3.37188 56.4227 3.37188ZM9.32886 2.24792H20.6325C23.2552 2.24792 25.7293 3.21295 27.6494 4.9752V35.8411C25.5897 34.4605 23.168 33.7188 20.6325 33.7188H9.32886V2.24792ZM2.24792 40.4625V5.61979H7.08094V34.8427C7.08094 35.4635 7.58414 35.9667 8.2049 35.9667H20.6325C23.2552 35.9667 25.7293 36.9317 27.6494 38.694V40.4625H2.24792ZM48.2178 33.7188H36.9142C34.3786 33.7188 31.957 34.4605 29.8973 35.8411V4.9752C31.8174 3.21295 34.2915 2.24792 36.9142 2.24792H48.2178V33.7188Z" fill="black"/>
</svg>
