<svg width="66" height="66" viewBox="0 0 66 66" fill="none" xmlns="http://www.w3.org/2000/svg">
<circle cx="32.6971" cy="43.16" r="15.2586" fill="#EB9309"/>
<path d="M28.1192 27.9014C28.1192 30.4518 30.1464 32.479 32.6968 32.479C35.2472 32.479 37.2744 30.4518 37.2744 27.9014C37.2744 25.351 35.2472 23.3238 32.6968 23.3238C30.1464 23.3238 28.1192 25.351 28.1192 27.9014ZM34.6586 27.9014C34.6586 28.9477 33.8085 29.8632 32.6968 29.8632C31.5851 29.8632 30.735 28.9477 30.735 27.9014C30.735 26.7897 31.5851 25.9396 32.6968 25.9396C33.8085 25.9396 34.6586 26.7897 34.6586 27.9014ZM60.8162 45.5578H55.5847V28.6207C56.6964 28.8823 57.8735 28.7515 58.9198 28.163C60.4892 27.3129 61.4701 25.678 61.4701 23.9124C61.4701 22.2775 60.6854 20.7735 59.3121 19.8579L33.4161 2.59395C32.9584 2.33237 32.4352 2.33237 31.9775 2.59395L6.08147 19.8579C4.7082 20.7735 3.92347 22.2775 3.92347 23.9124C3.92347 25.678 4.90438 27.3129 6.47383 28.163C7.19317 28.5553 7.97789 28.7515 8.76262 28.7515C9.08959 28.7515 9.48196 28.6861 9.80893 28.6207V45.5578H4.57741C3.85808 45.5578 3.26953 46.1463 3.26953 46.8656V59.9444C3.26953 60.6638 3.85808 61.2523 4.57741 61.2523H60.8162C61.5355 61.2523 62.1241 60.6638 62.1241 59.9444V46.8656C62.1241 46.1463 61.5355 45.5578 60.8162 45.5578ZM9.80893 58.6366H5.88529V54.7129H9.80893V58.6366ZM9.80893 52.0972H5.88529V48.1735H9.80893V52.0972ZM24.1956 58.6366H12.4247V54.7129H24.1956V58.6366ZM12.4247 52.0972V48.1735H16.3483V52.0972H12.4247ZM38.5823 58.6366H26.8114V54.7129H38.5823V58.6366ZM38.5823 52.0972H26.8114V39.0184H38.5823V52.0972ZM52.9689 58.6366H41.198V54.7129H52.9689V58.6366ZM52.9689 52.0972H49.0453V48.1735H52.9689V52.0972ZM52.9689 45.5578H47.7374C47.0181 45.5578 46.4295 46.1463 46.4295 46.8656V52.0972H41.198V37.7105C41.198 36.9912 40.6095 36.4026 39.8901 36.4026H25.5035C24.7841 36.4026 24.1956 36.9912 24.1956 37.7105V52.0972H18.9641V46.8656C18.9641 46.1463 18.3755 45.5578 17.6562 45.5578H12.4247V27.3129L32.6968 13.7763L52.9689 27.3129V45.5578ZM33.4161 11.0952C32.9584 10.8336 32.4352 10.8336 31.9775 11.0952L10.0051 25.7434C9.28577 26.2012 8.43565 26.2666 7.71632 25.8742C6.99699 25.4818 6.53923 24.7625 6.53923 23.9124C6.53923 23.193 6.93159 22.4737 7.52014 22.0813L32.6968 5.2751L57.8735 22.0813C58.5274 22.4737 58.8544 23.193 58.8544 23.9124C58.8544 24.7625 58.3966 25.4818 57.6773 25.8742C56.958 26.2666 56.1078 26.2012 55.3885 25.7434L33.4161 11.0952ZM59.5083 58.6366H55.5847V54.7129H59.5083V58.6366ZM59.5083 52.0972H55.5847V48.1735H59.5083V52.0972Z" fill="black"/>
</svg>
