<svg width="62" height="62" viewBox="0 0 62 62" fill="none" xmlns="http://www.w3.org/2000/svg">
<circle cx="31.0615" cy="37.3961" r="13.8867" fill="#EB9309" stroke="#F6F6F4"/>
<g clip-path="url(#clip0_411_318)">
<path d="M52.2045 9.27779C46.4406 3.51386 38.7771 0.339478 30.6257 0.339478C29.9673 0.339478 29.4336 0.873171 29.4336 1.53155C29.4336 2.18994 29.9673 2.72363 30.6257 2.72363C46.1383 2.72363 58.7587 15.344 58.7587 30.8567C58.7587 36.5845 57.0482 42.0957 53.8122 46.7941C53.4388 47.3364 53.5755 48.0786 54.1177 48.4521C54.3242 48.5943 54.5597 48.6625 54.7929 48.6625C55.1719 48.6625 55.5445 48.4821 55.7758 48.1464C59.2869 43.0484 61.1429 37.0696 61.1429 30.8567C61.1429 22.7052 57.9686 15.0417 52.2045 9.27779Z" fill="black"/>
<path d="M46.5632 54.0432C41.8646 57.2792 36.3535 58.9897 30.6256 58.9897C15.113 58.9897 2.49255 46.3693 2.49255 30.8567C2.49255 27.8692 2.95568 24.9421 3.87 22.1367C4.78647 22.3094 5.71009 22.3955 6.62966 22.3955C8.4254 22.3955 10.2033 22.0701 11.8759 21.4475C10.4492 24.279 9.64502 27.4757 9.64502 30.8567C9.64502 42.4254 19.0568 51.8372 30.6256 51.8372C42.1943 51.8372 51.6061 42.4254 51.6061 30.8567C51.6061 19.2879 42.1943 9.87611 30.6256 9.87611C27.0657 9.87611 23.7102 10.7675 20.7702 12.3386C21.7295 9.56021 21.8723 6.51076 21.0915 3.58636C20.9814 3.17414 20.6595 2.85228 20.2472 2.74213C15.1033 1.36862 9.57194 2.85132 5.81142 6.61185C2.14149 10.2818 0.64233 15.6383 1.84883 20.6751C0.693828 23.938 0.108398 27.3598 0.108398 30.8567C0.108398 39.0081 3.28266 46.6716 9.04671 52.4355C14.8106 58.1995 22.4742 61.3739 30.6256 61.3739C36.8387 61.3739 42.8173 59.5179 47.9156 56.0068C48.4577 55.6333 48.5946 54.8911 48.2211 54.3488C47.8476 53.8065 47.1055 53.6698 46.5632 54.0432ZM34.1589 17.2411C34.7268 18.945 35.1745 20.9184 35.4895 23.0684H25.7618C26.0767 20.9184 26.5245 18.9448 27.0924 17.2411C28.3164 13.5688 29.7201 12.2603 30.6256 12.2603C31.5311 12.2603 32.9348 13.5688 34.1589 17.2411ZM49.222 30.8567C49.222 32.7516 48.9364 34.581 48.4071 36.3048C48.3059 36.2768 48.1997 36.2607 48.0895 36.2607H38.1707C38.3309 34.5203 38.4139 32.7065 38.4139 30.8567C38.4139 29.0068 38.331 27.1929 38.1707 25.4525H48.4202C48.9409 27.1635 49.222 28.9777 49.222 30.8567ZM36.0296 30.8567C36.0296 32.7142 35.9431 34.529 35.7767 36.2607H25.4744C25.308 34.5291 25.2214 32.7142 25.2214 30.8567C25.2214 28.9992 25.308 27.1842 25.4744 25.4525H35.7767C35.9432 27.1842 36.0296 28.9992 36.0296 30.8567ZM30.6256 49.4531C29.7201 49.4531 28.3164 48.1445 27.0923 44.4722C26.5244 42.7684 26.0766 40.7948 25.7617 38.6448H35.4895C35.1745 40.7948 34.7268 42.7684 34.1589 44.4722C32.9348 48.1445 31.5311 49.4531 30.6256 49.4531ZM12.8441 36.3048C12.3148 34.581 12.0292 32.7516 12.0292 30.8567C12.0292 28.9777 12.3103 27.1635 12.831 25.4525H23.0804C22.9202 27.1929 22.8373 29.0068 22.8373 30.8567C22.8373 32.7064 22.9201 34.5203 23.0804 36.2607H13.1616C13.0515 36.2607 12.9453 36.2768 12.8441 36.3048ZM24.8305 16.4871C24.1897 18.4096 23.6925 20.6422 23.3549 23.0684H13.741C16.1385 17.8915 20.8477 13.9958 26.5363 12.7143C25.9438 13.6544 25.3649 14.8837 24.8305 16.4871ZM13.7409 38.6449H23.3547C23.6923 41.071 24.1896 43.3037 24.8304 45.2262C25.3649 46.8297 25.9437 48.0589 26.5362 48.999C20.8477 47.7175 16.1384 43.8217 13.7409 38.6449ZM34.7149 48.999C35.3073 48.0589 35.8861 46.8297 36.4206 45.2262C37.0615 43.3036 37.5587 41.071 37.8963 38.6449H47.5102C45.1128 43.8217 40.4035 47.7175 34.7149 48.999ZM47.5102 23.0684H37.8963C37.5587 20.6422 37.0615 18.4096 36.4206 16.4871C35.8861 14.8837 35.3073 13.6544 34.7149 12.7143C40.4035 13.9958 45.1127 17.8915 47.5102 23.0684ZM7.49725 8.29769C10.4922 5.30271 14.8249 4.02707 18.9498 4.88369C19.8066 9.00888 18.5308 13.3412 15.5357 16.3362C12.8466 19.0253 9.07938 20.3272 5.35211 19.9452C7.30318 16.4833 10.1286 13.6229 13.5995 11.6152C14.1694 11.2855 14.3641 10.5563 14.0345 9.98638C13.7049 9.41645 12.9757 9.2219 12.4056 9.55139C8.88471 11.5882 5.96341 14.4177 3.83734 17.8261C3.66258 14.3164 4.96564 10.8293 7.49725 8.29769Z" fill="black"/>
<path d="M51.3625 50.4008C51.049 50.4008 50.7414 50.5283 50.5197 50.75C50.298 50.9718 50.1704 51.2793 50.1704 51.5928C50.1704 51.9064 50.298 52.2139 50.5197 52.4356C50.7414 52.6574 51.049 52.7849 51.3625 52.7849C51.676 52.7849 51.9836 52.6574 52.2053 52.4356C52.427 52.2139 52.5546 51.9064 52.5546 51.5928C52.5546 51.2793 52.427 50.9718 52.2053 50.75C51.9836 50.5283 51.676 50.4008 51.3625 50.4008Z" fill="black"/>
</g>
<defs>
<clipPath id="clip0_411_318">
<rect width="61.0344" height="61.0344" fill="white" transform="translate(0.108398 0.339478)"/>
</clipPath>
</defs>
</svg>
