<svg width="60" height="60" viewBox="0 0 60 60" fill="none" xmlns="http://www.w3.org/2000/svg">
<g clip-path="url(#clip0_411_353)">
<path d="M30.2952 0.083313C13.9367 0.083313 0.649902 13.3701 0.649902 29.7286C0.649902 46.087 13.9367 59.3738 30.2952 59.3738C46.6536 59.3738 59.9404 46.087 59.9404 29.7286C59.9404 13.3701 46.6536 0.083313 30.2952 0.083313ZM30.2952 56.8022C15.3654 56.8022 3.22154 44.6584 3.22154 29.7286C3.22154 14.7988 15.3654 2.65495 30.2952 2.65495C45.2249 2.65495 57.3688 14.7988 57.3688 29.7286C57.3688 44.6584 45.2249 56.8022 30.2952 56.8022Z" fill="black"/>
<path d="M25.0632 24.0611L25.4992 15.7778L25.0632 14.47L35.5262 14.9059V24.0611L45.9893 24.497L45.5533 34.9601H35.5262V45.4231H25.0632L24.6272 35.396H15.0361V24.933L25.0632 24.0611Z" fill="#EB9309"/>
<path d="M45.7241 23.2995H36.7233V14.2988C36.7233 13.5844 36.1519 13.0129 35.4375 13.0129H25.151C24.4366 13.0129 23.8652 13.5844 23.8652 14.2988V23.2995H14.8644C14.1501 23.2995 13.5786 23.871 13.5786 24.5853V34.8719C13.5786 35.5862 14.1501 36.1577 14.8644 36.1577H23.8652V45.1584C23.8652 45.8727 24.4366 46.4442 25.151 46.4442H35.4375C36.1519 46.4442 36.7233 45.8727 36.7233 45.1584V36.1577H45.7241C46.4384 36.1577 47.0099 35.5862 47.0099 34.8719V24.5853C46.9385 23.871 46.367 23.2995 45.7241 23.2995ZM44.5097 33.586H44.4383H35.4375C34.7232 33.586 34.1517 34.1575 34.1517 34.8719V43.8726H26.4368V34.8719C26.4368 34.1575 25.8653 33.586 25.151 33.586H16.1503V25.8711H25.151C25.8653 25.8711 26.4368 25.2996 26.4368 24.5853V15.5846H34.2231V24.5853C34.2231 25.2996 34.7946 25.8711 35.509 25.8711H44.5097V33.586Z" fill="black"/>
</g>
<defs>
<clipPath id="clip0_411_353">
<rect width="59.2905" height="59.2905" fill="white" transform="translate(0.649902 0.083313)"/>
</clipPath>
</defs>
</svg>
