<svg width="62" height="62" viewBox="0 0 62 62" fill="none" xmlns="http://www.w3.org/2000/svg">
<g clip-path="url(#clip0_411_381)">
<circle cx="31.4507" cy="45.4231" r="13.9507" fill="#EB9309"/>
<path d="M31.4512 1.03699C15.1503 1.03699 1.8877 14.2996 1.8877 30.6005C1.8877 46.9014 15.1503 60.164 31.4512 60.164C47.7522 60.164 61.0147 46.9014 61.0147 30.6005C61.0147 14.2996 47.7522 1.03699 31.4512 1.03699ZM58.5085 24.8785H53.6143C51.5401 16.8477 45.204 10.5116 37.1732 8.4374V3.54321C47.8389 5.79576 56.256 14.2128 58.5085 24.8785ZM59.1074 30.6005C59.1074 31.8956 59.0111 33.1668 58.8385 34.4152H54.0149C54.2247 33.1735 54.3391 31.9003 54.3391 30.6005C54.3391 29.3007 54.2247 28.0275 54.0149 26.7859H58.8375C59.0111 28.0342 59.1074 29.3054 59.1074 30.6005ZM50.0095 40.3717C49.3123 40.6054 48.806 40.9725 48.3949 41.2853C47.816 41.7259 47.3983 42.0444 46.4666 42.0444C45.5358 42.0444 45.1172 41.7269 44.5393 41.2863L44.4229 41.1985L43.2738 42.7206L43.3844 42.8045C44.0567 43.3157 44.8931 43.9518 46.4666 43.9518C46.9692 43.9518 47.3907 43.8822 47.7617 43.7773C46.973 44.7519 46.0985 45.6521 45.1506 46.4713C44.9465 46.3512 44.7481 46.2139 44.5393 46.0546C43.8669 45.5425 43.0306 44.9054 41.4561 44.9054C39.8825 44.9054 39.0462 45.5425 38.3748 46.0546C37.7959 46.4952 37.3782 46.8128 36.4484 46.8128C35.5195 46.8128 35.1018 46.4952 34.5249 46.0546C33.8535 45.5425 33.0181 44.9054 31.4445 44.9054C29.871 44.9054 29.0356 45.5425 28.3642 46.0546C27.7863 46.4952 27.3686 46.8128 26.4388 46.8128C25.5099 46.8128 25.0922 46.4952 24.5152 46.0546L24.397 45.965L23.2469 47.487L23.3594 47.5719C24.0308 48.084 24.8662 48.7201 26.4388 48.7201C28.0123 48.7201 28.8487 48.083 29.52 47.5709C30.098 47.1303 30.5157 46.8128 31.4445 46.8128C32.3734 46.8128 32.7902 47.1303 33.3681 47.5709C34.0394 48.083 34.8749 48.7201 36.4484 48.7201C38.0219 48.7201 38.8583 48.083 39.5297 47.5709C40.1086 47.1303 40.5263 46.8128 41.4561 46.8128C42.3869 46.8128 42.8055 47.1313 43.3834 47.5719C43.4435 47.6176 43.5074 47.6644 43.5694 47.7111C40.1448 50.1439 35.9639 51.5811 31.4512 51.5811C26.9366 51.5811 22.7538 50.1429 19.3273 47.7073C19.3883 47.6615 19.4513 47.6157 19.5095 47.5709C20.0874 47.1303 20.5041 46.8128 21.4339 46.8128C21.5675 46.8128 21.6924 46.8194 21.8087 46.8328L22.0214 44.9379C21.8383 44.9169 21.6438 44.9054 21.4339 44.9054C19.8614 44.9054 19.025 45.5425 18.3536 46.0546C18.1467 46.2129 17.9512 46.3493 17.749 46.4685C16.803 45.6502 15.9294 44.7519 15.1426 43.7792C15.5117 43.8831 15.9294 43.9518 16.4291 43.9518C18.0027 43.9518 18.8381 43.3147 19.5095 42.8026C20.0874 42.362 20.5041 42.0444 21.4339 42.0444C22.3638 42.0444 22.7805 42.362 23.3584 42.8026C24.0298 43.3147 24.8652 43.9518 26.4388 43.9518C28.0123 43.9518 28.8487 43.3147 29.52 42.8026C30.098 42.362 30.5157 42.0444 31.4445 42.0444C32.3734 42.0444 32.7902 42.362 33.3681 42.8026C34.0394 43.3147 34.8749 43.9518 36.4484 43.9518C38.0219 43.9518 38.8583 43.3147 39.5297 42.8026C40.1086 42.362 40.5263 42.0444 41.4561 42.0444C41.5915 42.0444 41.7183 42.0511 41.8366 42.0645L42.0473 40.1695C41.8633 40.1486 41.6668 40.1371 41.4561 40.1371C39.8825 40.1371 39.0462 40.7742 38.3748 41.2863C38.288 41.3521 38.2089 41.4084 38.1278 41.4684V38.2899C38.1278 37.793 38.2584 37.3019 38.5045 36.8699L41.314 31.9538C41.7241 31.2337 41.9415 30.4155 41.9415 29.5877V20.1102C41.9415 18.5329 40.6579 17.2492 39.0805 17.2492C38.7448 17.2492 38.4263 17.3179 38.1268 17.4247V16.2956C38.1268 14.7182 36.8432 13.4346 35.2659 13.4346C34.8892 13.4346 34.5315 13.5118 34.2016 13.6444C33.8726 12.4285 32.7701 11.5273 31.4512 11.5273C30.1323 11.5273 29.0308 12.4285 28.7009 13.6444C28.3709 13.5118 28.0133 13.4346 27.6366 13.4346C26.0592 13.4346 24.7756 14.7182 24.7756 16.2956V20.6405C24.212 20.3124 23.5663 20.1102 22.8683 20.1102C21.8164 20.1102 20.9609 20.9657 20.9609 22.0175V29.4456C20.9609 30.3897 21.2384 31.3043 21.762 32.0901L24.2949 35.8895C24.6096 36.3616 24.7756 36.9099 24.7756 37.4764V41.477C24.6898 41.4141 24.6049 41.354 24.5143 41.2844C23.8419 40.7742 23.0075 40.1371 21.4339 40.1371C19.8614 40.1371 19.025 40.7742 18.3546 41.2863C17.7757 41.7269 17.359 42.0444 16.4291 42.0444C15.5003 42.0444 15.0826 41.7269 14.5046 41.2863C14.0936 40.9735 13.5891 40.6054 12.893 40.3717C11.349 37.4516 10.4707 34.1271 10.4707 30.6005C10.4707 19.0316 19.8823 9.61994 31.4512 9.61994C43.0201 9.61994 52.4318 19.0316 52.4318 30.6005C52.4318 34.1271 51.5535 37.4516 50.0095 40.3717ZM24.7756 24.8785V28.6932H26.6829V24.8785V23.9249V16.2956C26.6829 15.7701 27.1111 15.3419 27.6366 15.3419C28.162 15.3419 28.5902 15.7701 28.5902 16.2956V22.0175V26.7859H30.4976V22.0175V16.2956V14.3883C30.4976 13.8628 30.9257 13.4346 31.4512 13.4346C31.9767 13.4346 32.4049 13.8628 32.4049 14.3883V16.2956V22.0175V26.7859H34.3122V22.0175V16.2956C34.3122 15.7701 34.7404 15.3419 35.2659 15.3419C35.7913 15.3419 36.2195 15.7701 36.2195 16.2956V20.1102V23.9249V26.7859H38.1268V23.9249V20.1102C38.1268 19.5848 38.555 19.1566 39.0805 19.1566C39.606 19.1566 40.0342 19.5848 40.0342 20.1102V29.5877C40.0342 30.0846 39.9035 30.5757 39.6575 31.0077L36.848 35.9238C36.437 36.6429 36.2195 37.4611 36.2195 38.2889V42.0225C35.4585 41.9701 35.0475 41.6849 34.5249 41.2853C33.8535 40.7742 33.0181 40.1371 31.4445 40.1371C29.871 40.1371 29.0356 40.7742 28.3642 41.2863C27.8445 41.683 27.4344 41.9672 26.6829 42.0225V37.4783C26.6829 36.5342 26.4054 35.6196 25.8818 34.8338L23.3489 31.0344C23.0342 30.5605 22.8683 30.0121 22.8683 29.4456V22.0175C23.9201 22.0175 24.7756 22.873 24.7756 23.9249V24.8785ZM35.2659 3.21324V8.03687C34.0242 7.82706 32.7511 7.71262 31.4512 7.71262C30.1514 7.71262 28.8782 7.82706 27.6366 8.03687V3.21324C28.8849 3.04063 30.1561 2.94431 31.4512 2.94431C32.7463 2.94431 34.0175 3.04063 35.2659 3.21324ZM25.7292 3.54321V8.4374C17.6985 10.5116 11.3623 16.8477 9.28811 24.8785H4.39392C6.64647 14.2128 15.0635 5.79576 25.7292 3.54321ZM8.88757 34.4152H4.06395C3.89134 33.1668 3.79502 31.8956 3.79502 30.6005C3.79502 29.3054 3.89134 28.0342 4.06395 26.7859H8.88757C8.67777 28.0275 8.56333 29.3007 8.56333 30.6005C8.56333 31.9003 8.67777 33.1735 8.88757 34.4152ZM4.39392 36.3225H9.28811C11.3623 44.3533 17.6985 50.6894 25.7292 52.7636V57.6578C15.0635 55.4053 6.64647 46.9882 4.39392 36.3225ZM27.6366 57.9878V53.1641C28.8782 53.374 30.1514 53.4884 31.4512 53.4884C32.7511 53.4884 34.0242 53.374 35.2659 53.1641V57.9868C34.0175 58.1604 32.7463 58.2567 31.4512 58.2567C30.1561 58.2567 28.8849 58.1604 27.6366 57.9878ZM37.1732 57.6578V52.7636C45.204 50.6894 51.5401 44.3533 53.6143 36.3225H58.5085C56.256 46.9882 47.8389 55.4053 37.1732 57.6578Z" fill="black"/>
</g>
<defs>
<clipPath id="clip0_411_381">
<rect width="61.0344" height="61.0344" fill="white" transform="translate(0.933594 0.083313)"/>
</clipPath>
</defs>
</svg>
