<svg width="112" height="108" viewBox="0 0 112 108" fill="none" xmlns="http://www.w3.org/2000/svg">
<path d="M18.8321 2C18.8321 5.90585 19.3657 10.7707 19.3301 16.3198M19.3301 16.3198C19.266 26.2786 17.3683 38.4412 7.26123 51.2187C-4.37547 65.93 4.91451 34.2432 19.3301 16.3198ZM19.3301 16.3198C23.9585 10.5651 29.1153 6.22927 34.2775 5.30352C43.4531 3.65805 43.3938 16.7009 39.561 32.7415M39.561 32.7415C33.0223 60.1057 15.5014 96.1938 14.1104 82.9662C13.3469 75.7051 26.7979 49.3602 39.561 32.7415ZM39.561 32.7415C47.4307 22.4944 55.0389 15.9451 58.892 19.8476C62.071 23.0672 62.4015 30.0397 60.9793 38.6927M60.9793 38.6927C56.6521 65.0201 36.0988 106.905 30.1766 105.985C20.3628 104.46 42.3018 61.2701 60.9793 38.6927ZM60.9793 38.6927C68.7204 29.3352 75.9013 23.5185 80.0291 25.6767C88.3473 30.0258 85.7569 46.5933 79.4617 62.5935M79.4617 62.5935C73.0444 78.904 62.7774 94.625 56.2919 96.2119C49.8117 97.7976 62.6557 75.8049 79.4617 62.5935ZM79.4617 62.5935C89.3111 54.8507 100.521 50.124 110 54.9274" stroke="#EE811D" stroke-width="4" stroke-linecap="round"/>
</svg>
