<svg width="18" height="18" viewBox="0 0 18 18" fill="none" xmlns="http://www.w3.org/2000/svg">
<path d="M1.05455 11.8125C1.63562 13.456 2.71147 14.8792 4.13423 15.8864C5.55698 16.8937 7.25679 17.4355 9 17.4375C10.743 17.4353 12.4425 16.8933 13.865 15.8861C15.2876 14.8789 16.3632 13.4558 16.9442 11.8125H1.05455Z" fill="#479951"/>
<path d="M1.05578 6.1875C0.732759 7.09017 0.565945 8.04128 0.5625 9C0.56555 9.95865 0.731947 10.9098 1.05455 11.8125H16.9442C17.2672 10.9098 17.4341 9.95871 17.4375 9C17.4345 8.04135 17.2681 7.09024 16.9455 6.1875H1.05578Z" fill="white"/>
<path d="M9 0.5625C7.257 0.564717 5.55747 1.10668 4.13496 2.1139C2.71244 3.12113 1.63678 4.54418 1.05578 6.1875H16.9455C16.3644 4.54399 15.2885 3.12079 13.8658 2.11355C12.443 1.10631 10.7432 0.564463 9 0.5625Z" fill="#222222"/>
<path d="M2.55667 3.55373C1.26927 5.07648 0.562784 7.00597 0.5625 9C0.565786 10.9922 1.27387 12.9189 2.56138 14.4391L6.1875 9.00007L2.55667 3.55373Z" fill="#C0392B"/>
</svg>
