<svg width="126" height="24" viewBox="0 0 126 24" fill="none" xmlns="http://www.w3.org/2000/svg">
<path d="M41.8749 11.9425H48.8916L46.8726 21.4393C45.7592 21.8215 44.7248 22.0791 43.7693 22.212C42.8221 22.3533 41.8167 22.4239 40.7532 22.4239C38.6013 22.4239 36.9395 21.8132 35.768 20.5918C34.5965 19.3705 34.0107 17.6173 34.0107 15.3325C34.0107 13.1057 34.4553 11.095 35.3443 9.30037C36.2333 7.49739 37.4838 6.10985 39.0956 5.13773C40.7075 4.15731 42.5687 3.6671 44.6791 3.6671C46.4904 3.6671 48.1936 4.07838 49.7889 4.90094L48.3556 8.02915C47.7408 7.6968 47.126 7.43092 46.5111 7.23152C45.8963 7.03211 45.2274 6.9324 44.5046 6.9324C43.2334 6.9324 42.0951 7.27721 41.0897 7.96683C40.0927 8.65645 39.3075 9.64103 38.7342 10.9206C38.1692 12.1918 37.8867 13.5627 37.8867 15.0333C37.8867 16.4624 38.1858 17.5135 38.7841 18.1865C39.3906 18.8512 40.317 19.1835 41.5633 19.1835C42.1948 19.1835 42.901 19.0838 43.682 18.8844L44.5046 15.158H41.177L41.8749 11.9425Z" fill="#CACACA"/>
<path d="M54.313 22.1746H50.5616L54.6744 2.78223H58.4257L54.313 22.1746Z" fill="#CACACA"/>
<path d="M67.7107 13.5004C67.7107 11.8636 67.1166 11.0452 65.9285 11.0452C65.3053 11.0452 64.7445 11.2986 64.246 11.8054C63.7558 12.3123 63.3528 13.0559 63.0371 14.0363C62.7296 15.0167 62.5759 16.0262 62.5759 17.0648C62.5759 18.6019 63.1991 19.3705 64.4454 19.3705C65.0685 19.3705 65.6294 19.1171 66.1279 18.6102C66.6264 18.0951 67.0127 17.3847 67.2869 16.4791C67.5694 15.5651 67.7107 14.5722 67.7107 13.5004ZM71.487 13.5004C71.487 15.2535 71.192 16.8072 70.6021 18.1616C70.0205 19.5159 69.1772 20.5669 68.0721 21.3147C66.967 22.0542 65.6543 22.4239 64.1338 22.4239C62.5136 22.4239 61.2175 21.9378 60.2453 20.9657C59.2815 19.9853 58.7996 18.685 58.7996 17.0648C58.7996 15.2951 59.0946 13.7206 59.6845 12.3413C60.2827 10.9538 61.1427 9.88198 62.2643 9.12589C63.386 8.36149 64.6988 7.97929 66.2027 7.97929C67.8312 7.97929 69.119 8.46951 70.0662 9.44993C71.0134 10.4304 71.487 11.7805 71.487 13.5004Z" fill="#CACACA"/>
<path d="M83.277 11.4565C82.7618 12.9354 82.2508 14.2606 81.744 15.4322L78.8401 22.1746H74.8021L74.1665 8.24102H77.6686L77.7185 14.4102L77.6686 16.4915L77.5814 18.6227H77.6312C77.6811 18.4565 77.7392 18.2862 77.8057 18.1117C77.8722 17.9289 78.084 17.3598 78.4413 16.4043C78.7986 15.4488 78.9897 14.9544 79.0146 14.9212L81.8936 8.24102H85.9814V14.9212C85.9814 16.101 85.9399 17.3348 85.8568 18.6227H85.9316L86.2805 17.6257C86.8871 15.8975 87.2817 14.8256 87.4645 14.4102L90.1939 8.24102H94.0201L87.4147 22.1746H83.3019L83.2271 15.6939C83.2271 14.406 83.2686 12.9936 83.3517 11.4565H83.277Z" fill="#CACACA"/>
<path d="M110.596 3.95375L108.091 15.7437C107.617 17.9538 106.712 19.6197 105.374 20.7414C104.036 21.8631 102.295 22.4239 100.152 22.4239C98.3904 22.4239 97.0029 21.9545 95.9892 21.0156C94.9839 20.0684 94.4812 18.7889 94.4812 17.177C94.4812 16.5788 94.5435 16.0055 94.6681 15.4571L97.1109 3.95375H100.912L98.4943 15.4072C98.353 16.0221 98.2824 16.5414 98.2824 16.9651C98.2824 18.4441 99.0676 19.1835 100.638 19.1835C101.66 19.1835 102.47 18.8678 103.068 18.2363C103.666 17.5966 104.098 16.6452 104.364 15.3823L106.782 3.95375H110.596Z" fill="#CACACA"/>
<path d="M116.877 12.5283H117.575C118.755 12.5283 119.681 12.2416 120.354 11.6683C121.036 11.095 121.376 10.3265 121.376 9.36269C121.376 7.86713 120.566 7.11935 118.946 7.11935H118.024L116.877 12.5283ZM125.202 9.26298C125.202 11.2654 124.496 12.8399 123.084 13.9865C121.68 15.1247 119.74 15.6939 117.264 15.6939H116.192L114.833 22.1746H111.032L114.883 3.95375H119.096C121.106 3.95375 122.627 4.39826 123.657 5.28729C124.687 6.16801 125.202 7.49324 125.202 9.26298Z" fill="#CACACA"/>
<path d="M20.0603 7.38204H12.2718L15.1469 1.40901C15.4169 0.709545 14.6407 0.0192871 13.5811 0.0192871H3.86229C3.05239 0.0192871 2.36397 0.42884 2.25598 0.976445L0.0962435 12.0206C-0.031991 12.6832 0.723918 13.2722 1.70255 13.2722H9.71383L6.60246 22.2226C6.35949 22.9221 7.14239 23.5801 8.17502 23.5801C8.74195 23.5801 9.28188 23.3776 9.57885 23.0279L21.4574 9.03866C22.0851 8.30699 21.3089 7.38204 20.0603 7.38204Z" fill="#CACACA"/>
</svg>
