<svg width="23" height="26" viewBox="0 0 23 26" fill="none" xmlns="http://www.w3.org/2000/svg">
<g clip-path="url(#clip0_354_319)">
<path d="M19.512 2.02487C18.2601 0.657682 15.9971 0.0715332 13.1021 0.0715332H4.69986C4.41343 0.0715434 4.13639 0.169458 3.91856 0.347672C3.70073 0.525887 3.55639 0.772711 3.5115 1.04377L0.012985 22.3038C-0.0565541 22.723 0.282247 23.1026 0.725715 23.1026H5.91293L7.21567 15.1854L7.17524 15.4333C7.26805 14.8737 7.76758 14.4609 8.35911 14.4609H10.8241C15.6665 14.4609 19.4581 12.5763 20.5657 7.12468C20.5986 6.96345 20.6271 6.80652 20.6517 6.6532C20.5119 6.58227 20.5119 6.58227 20.6517 6.6532C20.9815 4.63822 20.6495 3.26664 19.512 2.02487Z" fill="#27346A"/>
<path d="M9.2005 5.92734C9.34231 5.86264 9.49741 5.82911 9.65448 5.8292H16.2416C17.0217 5.8292 17.7492 5.87784 18.4141 5.98037C18.6001 6.00879 18.7852 6.04272 18.969 6.08212C19.2296 6.13721 19.4872 6.20464 19.7408 6.28416C20.0676 6.38875 20.372 6.51056 20.6518 6.6532C20.9815 4.63745 20.6495 3.26664 19.512 2.02487C18.2594 0.657682 15.9971 0.0715332 13.1021 0.0715332H4.69915C4.10752 0.0715332 3.60422 0.484222 3.5115 1.04377L0.0129854 22.303C-0.0565536 22.7229 0.282247 23.102 0.724997 23.102H5.91294L8.61571 6.67971C8.64228 6.5183 8.70939 6.36548 8.81126 6.23442C8.91313 6.10336 9.04671 5.99798 9.2005 5.92734Z" fill="#27346A"/>
<path d="M20.5659 7.12456C19.4583 12.5754 15.6667 14.4608 10.8242 14.4608H8.35851C7.76698 14.4608 7.26736 14.8735 7.17545 15.4332L5.55476 25.2773C5.4942 25.6442 5.79033 25.9767 6.17773 25.9767H10.5504C10.8009 25.9766 11.0431 25.8909 11.2336 25.735C11.424 25.5791 11.5501 25.3632 11.5893 25.1262L11.6319 24.9127L12.456 19.9081L12.5091 19.6315C12.5483 19.3945 12.6744 19.1786 12.8648 19.0227C13.0552 18.8668 13.2974 18.7811 13.5479 18.781H14.2023C18.4382 18.781 21.7549 17.1321 22.7242 12.3634C23.1287 10.3705 22.9194 8.7067 21.8492 7.53802C21.5246 7.18404 21.1214 6.8917 20.6518 6.65308C20.6264 6.80717 20.5988 6.96332 20.5659 7.12456Z" fill="#2790C3"/>
<path d="M19.4924 6.21037C19.3197 6.16205 19.1453 6.11927 18.9697 6.08211C18.7857 6.04335 18.6007 6.00965 18.4147 5.98104C17.7491 5.87783 17.0221 5.8291 16.2414 5.8291H9.65502C9.49783 5.82876 9.34261 5.86258 9.20104 5.92802C9.04707 5.99844 8.91334 6.10376 8.81143 6.23486C8.70952 6.36596 8.64249 6.51888 8.61616 6.68039L7.21621 15.1854L7.17578 15.4333C7.26787 14.8736 7.7674 14.4609 8.35902 14.4609H10.8247C15.6671 14.4609 19.4587 12.5763 20.5663 7.12467C20.5992 6.96344 20.6269 6.8072 20.6523 6.65319C20.3719 6.51132 20.0683 6.38874 19.7413 6.28483C19.6588 6.25863 19.5759 6.23381 19.4925 6.21037" fill="#1F264F"/>
</g>
<defs>
<clipPath id="clip0_354_319">
<rect width="23" height="26" fill="white"/>
</clipPath>
</defs>
</svg>
