<?xml version="1.0" encoding="UTF-8" standalone="no"?>
<svg
   xmlns:dc="http://purl.org/dc/elements/1.1/"
   xmlns:cc="http://creativecommons.org/ns#"
   xmlns:rdf="http://www.w3.org/1999/02/22-rdf-syntax-ns#"
   xmlns:svg="http://www.w3.org/2000/svg"
   xmlns="http://www.w3.org/2000/svg"
   viewBox="0 0 984.27734 1723.08"
   height="1723.08"
   width="984.27734"
   xml:space="preserve"
   id="svg2"
   version="1.1"><metadata
     id="metadata8"><rdf:RDF><cc:Work
         rdf:about=""><dc:format>image/svg+xml</dc:format><dc:type
           rdf:resource="http://purl.org/dc/dcmitype/StillImage" /></cc:Work></rdf:RDF></metadata><defs
     id="defs6"><linearGradient
       id="linearGradient28"
       spreadMethod="pad"
       gradientTransform="matrix(0,216.28125,-216.28125,0,278.73541,277.71411)"
       gradientUnits="userSpaceOnUse"
       y2="0"
       x2="1"
       y1="0"
       x1="0"><stop
         id="stop24"
         offset="0"
         style="stop-opacity:1;stop-color:#073b43" /><stop
         id="stop26"
         offset="1"
         style="stop-opacity:1;stop-color:#0f6f7e" /></linearGradient><linearGradient
       id="linearGradient48"
       spreadMethod="pad"
       gradientTransform="matrix(0,215.26416,-215.26416,0,100.79587,277.71411)"
       gradientUnits="userSpaceOnUse"
       y2="0"
       x2="1"
       y1="0"
       x1="0"><stop
         id="stop44"
         offset="0"
         style="stop-opacity:1;stop-color:#073b43" /><stop
         id="stop46"
         offset="1"
         style="stop-opacity:1;stop-color:#0f6f7e" /></linearGradient><linearGradient
       id="linearGradient68"
       spreadMethod="pad"
       gradientTransform="matrix(0,215.26416,-215.26416,0,450.38885,277.71411)"
       gradientUnits="userSpaceOnUse"
       y2="0"
       x2="1"
       y1="0"
       x1="0"><stop
         id="stop64"
         offset="0"
         style="stop-opacity:1;stop-color:#073b43" /><stop
         id="stop66"
         offset="1"
         style="stop-opacity:1;stop-color:#0f6f7e" /></linearGradient><linearGradient
       id="linearGradient88"
       spreadMethod="pad"
       gradientTransform="matrix(0,217.11426,-217.11426,0,637.63037,277.71411)"
       gradientUnits="userSpaceOnUse"
       y2="0"
       x2="1"
       y1="0"
       x1="0"><stop
         id="stop84"
         offset="0"
         style="stop-opacity:1;stop-color:#073b43" /><stop
         id="stop86"
         offset="1"
         style="stop-opacity:1;stop-color:#0f6f7e" /></linearGradient><linearGradient
       id="linearGradient110"
       spreadMethod="pad"
       gradientTransform="matrix(0,57.711914,-57.711914,0,48.084377,203.37573)"
       gradientUnits="userSpaceOnUse"
       y2="0"
       x2="1"
       y1="0"
       x1="0"><stop
         id="stop104"
         offset="0"
         style="stop-opacity:1;stop-color:#c7540d" /><stop
         id="stop106"
         offset="0.664804"
         style="stop-opacity:1;stop-color:#ef8120" /><stop
         id="stop108"
         offset="1"
         style="stop-opacity:1;stop-color:#ef8120" /></linearGradient><linearGradient
       id="linearGradient132"
       spreadMethod="pad"
       gradientTransform="matrix(0,33.947266,-33.947266,0,77.752808,203.37573)"
       gradientUnits="userSpaceOnUse"
       y2="0"
       x2="1"
       y1="0"
       x1="0"><stop
         id="stop126"
         offset="0"
         style="stop-opacity:1;stop-color:#c7540d" /><stop
         id="stop128"
         offset="0.664804"
         style="stop-opacity:1;stop-color:#ef8120" /><stop
         id="stop130"
         offset="1"
         style="stop-opacity:1;stop-color:#ef8120" /></linearGradient><linearGradient
       id="linearGradient154"
       spreadMethod="pad"
       gradientTransform="matrix(0,34.62793,-34.62793,0,112.61978,202.69507)"
       gradientUnits="userSpaceOnUse"
       y2="0"
       x2="1"
       y1="0"
       x1="0"><stop
         id="stop148"
         offset="0"
         style="stop-opacity:1;stop-color:#c7540d" /><stop
         id="stop150"
         offset="0.664804"
         style="stop-opacity:1;stop-color:#ef8120" /><stop
         id="stop152"
         offset="1"
         style="stop-opacity:1;stop-color:#ef8120" /></linearGradient><linearGradient
       id="linearGradient176"
       spreadMethod="pad"
       gradientTransform="matrix(0,34.696777,-34.696777,0,144.46335,202.62573)"
       gradientUnits="userSpaceOnUse"
       y2="0"
       x2="1"
       y1="0"
       x1="0"><stop
         id="stop170"
         offset="0"
         style="stop-opacity:1;stop-color:#c7540d" /><stop
         id="stop172"
         offset="0.664804"
         style="stop-opacity:1;stop-color:#ef8120" /><stop
         id="stop174"
         offset="1"
         style="stop-opacity:1;stop-color:#ef8120" /></linearGradient><linearGradient
       id="linearGradient198"
       spreadMethod="pad"
       gradientTransform="matrix(0,33.947266,-33.947266,0,182.96878,203.37573)"
       gradientUnits="userSpaceOnUse"
       y2="0"
       x2="1"
       y1="0"
       x1="0"><stop
         id="stop192"
         offset="0"
         style="stop-opacity:1;stop-color:#c7540d" /><stop
         id="stop194"
         offset="0.664804"
         style="stop-opacity:1;stop-color:#ef8120" /><stop
         id="stop196"
         offset="1"
         style="stop-opacity:1;stop-color:#ef8120" /></linearGradient><linearGradient
       id="linearGradient220"
       spreadMethod="pad"
       gradientTransform="matrix(0,47.661133,-47.661133,0,212.32922,203.37622)"
       gradientUnits="userSpaceOnUse"
       y2="0"
       x2="1"
       y1="0"
       x1="0"><stop
         id="stop214"
         offset="0"
         style="stop-opacity:1;stop-color:#c7540d" /><stop
         id="stop216"
         offset="0.664804"
         style="stop-opacity:1;stop-color:#ef8120" /><stop
         id="stop218"
         offset="1"
         style="stop-opacity:1;stop-color:#ef8120" /></linearGradient><linearGradient
       id="linearGradient242"
       spreadMethod="pad"
       gradientTransform="matrix(0,45.759277,-45.759277,0,253.21326,203.37622)"
       gradientUnits="userSpaceOnUse"
       y2="0"
       x2="1"
       y1="0"
       x1="0"><stop
         id="stop236"
         offset="0"
         style="stop-opacity:1;stop-color:#c7540d" /><stop
         id="stop238"
         offset="0.664804"
         style="stop-opacity:1;stop-color:#ef8120" /><stop
         id="stop240"
         offset="1"
         style="stop-opacity:1;stop-color:#ef8120" /></linearGradient><linearGradient
       id="linearGradient264"
       spreadMethod="pad"
       gradientTransform="matrix(0,34.696777,-34.696777,0,284.47882,202.62573)"
       gradientUnits="userSpaceOnUse"
       y2="0"
       x2="1"
       y1="0"
       x1="0"><stop
         id="stop258"
         offset="0"
         style="stop-opacity:1;stop-color:#c7540d" /><stop
         id="stop260"
         offset="0.664804"
         style="stop-opacity:1;stop-color:#ef8120" /><stop
         id="stop262"
         offset="1"
         style="stop-opacity:1;stop-color:#ef8120" /></linearGradient><linearGradient
       id="linearGradient286"
       spreadMethod="pad"
       gradientTransform="matrix(0,33.947266,-33.947266,0,317.40881,203.37573)"
       gradientUnits="userSpaceOnUse"
       y2="0"
       x2="1"
       y1="0"
       x1="0"><stop
         id="stop280"
         offset="0"
         style="stop-opacity:1;stop-color:#c7540d" /><stop
         id="stop282"
         offset="0.664804"
         style="stop-opacity:1;stop-color:#ef8120" /><stop
         id="stop284"
         offset="1"
         style="stop-opacity:1;stop-color:#ef8120" /></linearGradient><linearGradient
       id="linearGradient308"
       spreadMethod="pad"
       gradientTransform="matrix(0,48.956055,-48.956055,0,347.89288,202.62622)"
       gradientUnits="userSpaceOnUse"
       y2="0"
       x2="1"
       y1="0"
       x1="0"><stop
         id="stop302"
         offset="0"
         style="stop-opacity:1;stop-color:#c7540d" /><stop
         id="stop304"
         offset="0.664804"
         style="stop-opacity:1;stop-color:#ef8120" /><stop
         id="stop306"
         offset="1"
         style="stop-opacity:1;stop-color:#ef8120" /></linearGradient><linearGradient
       id="linearGradient330"
       spreadMethod="pad"
       gradientTransform="matrix(0,47.661133,-47.661133,0,378.30634,203.37622)"
       gradientUnits="userSpaceOnUse"
       y2="0"
       x2="1"
       y1="0"
       x1="0"><stop
         id="stop324"
         offset="0"
         style="stop-opacity:1;stop-color:#c7540d" /><stop
         id="stop326"
         offset="0.664804"
         style="stop-opacity:1;stop-color:#ef8120" /><stop
         id="stop328"
         offset="1"
         style="stop-opacity:1;stop-color:#ef8120" /></linearGradient><linearGradient
       id="linearGradient352"
       spreadMethod="pad"
       gradientTransform="matrix(0,33.947266,-33.947266,0,416.74481,203.37573)"
       gradientUnits="userSpaceOnUse"
       y2="0"
       x2="1"
       y1="0"
       x1="0"><stop
         id="stop346"
         offset="0"
         style="stop-opacity:1;stop-color:#c7540d" /><stop
         id="stop348"
         offset="0.664804"
         style="stop-opacity:1;stop-color:#ef8120" /><stop
         id="stop350"
         offset="1"
         style="stop-opacity:1;stop-color:#ef8120" /></linearGradient><linearGradient
       id="linearGradient374"
       spreadMethod="pad"
       gradientTransform="matrix(0,46.578125,-46.578125,0,484.54193,202.89917)"
       gradientUnits="userSpaceOnUse"
       y2="0"
       x2="1"
       y1="0"
       x1="0"><stop
         id="stop368"
         offset="0"
         style="stop-opacity:1;stop-color:#c7540d" /><stop
         id="stop370"
         offset="0.664804"
         style="stop-opacity:1;stop-color:#ef8120" /><stop
         id="stop372"
         offset="1"
         style="stop-opacity:1;stop-color:#ef8120" /></linearGradient><linearGradient
       id="linearGradient396"
       spreadMethod="pad"
       gradientTransform="matrix(0,34.62793,-34.62793,0,525.15277,202.69507)"
       gradientUnits="userSpaceOnUse"
       y2="0"
       x2="1"
       y1="0"
       x1="0"><stop
         id="stop390"
         offset="0"
         style="stop-opacity:1;stop-color:#c7540d" /><stop
         id="stop392"
         offset="0.664804"
         style="stop-opacity:1;stop-color:#ef8120" /><stop
         id="stop394"
         offset="1"
         style="stop-opacity:1;stop-color:#ef8120" /></linearGradient><linearGradient
       id="linearGradient418"
       spreadMethod="pad"
       gradientTransform="matrix(0,33.947266,-33.947266,0,557.1983,203.37573)"
       gradientUnits="userSpaceOnUse"
       y2="0"
       x2="1"
       y1="0"
       x1="0"><stop
         id="stop412"
         offset="0"
         style="stop-opacity:1;stop-color:#c7540d" /><stop
         id="stop414"
         offset="0.664804"
         style="stop-opacity:1;stop-color:#ef8120" /><stop
         id="stop416"
         offset="1"
         style="stop-opacity:1;stop-color:#ef8120" /></linearGradient><linearGradient
       id="linearGradient440"
       spreadMethod="pad"
       gradientTransform="matrix(0,33.947266,-33.947266,0,588.60187,203.37573)"
       gradientUnits="userSpaceOnUse"
       y2="0"
       x2="1"
       y1="0"
       x1="0"><stop
         id="stop434"
         offset="0"
         style="stop-opacity:1;stop-color:#c7540d" /><stop
         id="stop436"
         offset="0.664804"
         style="stop-opacity:1;stop-color:#ef8120" /><stop
         id="stop438"
         offset="1"
         style="stop-opacity:1;stop-color:#ef8120" /></linearGradient><linearGradient
       id="linearGradient462"
       spreadMethod="pad"
       gradientTransform="matrix(0,34.62793,-34.62793,0,626.69525,202.69507)"
       gradientUnits="userSpaceOnUse"
       y2="0"
       x2="1"
       y1="0"
       x1="0"><stop
         id="stop456"
         offset="0"
         style="stop-opacity:1;stop-color:#c7540d" /><stop
         id="stop458"
         offset="0.664804"
         style="stop-opacity:1;stop-color:#ef8120" /><stop
         id="stop460"
         offset="1"
         style="stop-opacity:1;stop-color:#ef8120" /></linearGradient><linearGradient
       id="linearGradient484"
       spreadMethod="pad"
       gradientTransform="matrix(0,61.177242,-61.177242,0,663.60229,189.18286)"
       gradientUnits="userSpaceOnUse"
       y2="0"
       x2="1"
       y1="0"
       x1="0"><stop
         id="stop478"
         offset="0"
         style="stop-opacity:1;stop-color:#c7540d" /><stop
         id="stop480"
         offset="0.664804"
         style="stop-opacity:1;stop-color:#ef8120" /><stop
         id="stop482"
         offset="1"
         style="stop-opacity:1;stop-color:#ef8120" /></linearGradient><linearGradient
       id="linearGradient506"
       spreadMethod="pad"
       gradientTransform="matrix(0,47.661133,-47.661133,0,693.60925,203.37622)"
       gradientUnits="userSpaceOnUse"
       y2="0"
       x2="1"
       y1="0"
       x1="0"><stop
         id="stop500"
         offset="0"
         style="stop-opacity:1;stop-color:#c7540d" /><stop
         id="stop502"
         offset="0.664804"
         style="stop-opacity:1;stop-color:#ef8120" /><stop
         id="stop504"
         offset="1"
         style="stop-opacity:1;stop-color:#ef8120" /></linearGradient><linearGradient
       id="linearGradient526"
       spreadMethod="pad"
       gradientTransform="matrix(289.89456,-43.904003,43.904003,289.89456,299.19235,923.87872)"
       gradientUnits="userSpaceOnUse"
       y2="0"
       x2="1"
       y1="0"
       x1="0"><stop
         id="stop522"
         offset="0"
         style="stop-opacity:1;stop-color:#005c2e" /><stop
         id="stop524"
         offset="1"
         style="stop-opacity:1;stop-color:#4f9733" /></linearGradient><linearGradient
       id="linearGradient546"
       spreadMethod="pad"
       gradientTransform="matrix(97.017746,-14.693159,14.693159,97.017746,261.19031,937.36682)"
       gradientUnits="userSpaceOnUse"
       y2="0"
       x2="1"
       y1="0"
       x1="0"><stop
         id="stop542"
         offset="0"
         style="stop-opacity:1;stop-color:#005c2e" /><stop
         id="stop544"
         offset="1"
         style="stop-opacity:1;stop-color:#4f9733" /></linearGradient><linearGradient
       id="linearGradient566"
       spreadMethod="pad"
       gradientTransform="matrix(98.69986,-14.947913,14.947913,98.69986,168.07326,923.45404)"
       gradientUnits="userSpaceOnUse"
       y2="0"
       x2="1"
       y1="0"
       x1="0"><stop
         id="stop562"
         offset="0"
         style="stop-opacity:1;stop-color:#005c2e" /><stop
         id="stop564"
         offset="1"
         style="stop-opacity:1;stop-color:#4f9733" /></linearGradient><linearGradient
       id="linearGradient586"
       spreadMethod="pad"
       gradientTransform="matrix(105.99194,699.8562,-699.8562,105.99194,289.57278,581.10828)"
       gradientUnits="userSpaceOnUse"
       y2="0"
       x2="1"
       y1="0"
       x1="0"><stop
         id="stop582"
         offset="0"
         style="stop-opacity:1;stop-color:#073b43" /><stop
         id="stop584"
         offset="1"
         style="stop-opacity:1;stop-color:#0f6f7e" /></linearGradient><linearGradient
       id="linearGradient608"
       spreadMethod="pad"
       gradientTransform="matrix(65.04966,429.51767,-429.51767,65.04966,424.1293,840.34027)"
       gradientUnits="userSpaceOnUse"
       y2="0"
       x2="1"
       y1="0"
       x1="0"><stop
         id="stop602"
         offset="0"
         style="stop-opacity:1;stop-color:#c7540d" /><stop
         id="stop604"
         offset="0.664804"
         style="stop-opacity:1;stop-color:#ef8120" /><stop
         id="stop606"
         offset="1"
         style="stop-opacity:1;stop-color:#ef8120" /></linearGradient><linearGradient
       id="linearGradient628"
       spreadMethod="pad"
       gradientTransform="matrix(0,16.466797,-16.466797,0,77.180328,0)"
       gradientUnits="userSpaceOnUse"
       y2="0"
       x2="1"
       y1="0"
       x1="0"><stop
         id="stop624"
         offset="0"
         style="stop-opacity:1;stop-color:#073b43" /><stop
         id="stop626"
         offset="1"
         style="stop-opacity:1;stop-color:#0f6f7e" /></linearGradient><linearGradient
       id="linearGradient648"
       spreadMethod="pad"
       gradientTransform="matrix(0,19.510254,-19.510254,0,124.41135,85.044922)"
       gradientUnits="userSpaceOnUse"
       y2="0"
       x2="1"
       y1="0"
       x1="0"><stop
         id="stop644"
         offset="0"
         style="stop-opacity:1;stop-color:#073b43" /><stop
         id="stop646"
         offset="1"
         style="stop-opacity:1;stop-color:#0f6f7e" /></linearGradient><linearGradient
       id="linearGradient668"
       spreadMethod="pad"
       gradientTransform="matrix(0,17.724121,-17.724121,0,159.71375,22.407715)"
       gradientUnits="userSpaceOnUse"
       y2="0"
       x2="1"
       y1="0"
       x1="0"><stop
         id="stop664"
         offset="0"
         style="stop-opacity:1;stop-color:#073b43" /><stop
         id="stop666"
         offset="1"
         style="stop-opacity:1;stop-color:#0f6f7e" /></linearGradient><linearGradient
       id="linearGradient688"
       spreadMethod="pad"
       gradientTransform="matrix(0,60.510986,-60.510986,0,129.0878,21.248779)"
       gradientUnits="userSpaceOnUse"
       y2="0"
       x2="1"
       y1="0"
       x1="0"><stop
         id="stop684"
         offset="0"
         style="stop-opacity:1;stop-color:#073b43" /><stop
         id="stop686"
         offset="1"
         style="stop-opacity:1;stop-color:#0f6f7e" /></linearGradient><linearGradient
       id="linearGradient708"
       spreadMethod="pad"
       gradientTransform="matrix(0,16.468994,-16.468994,0,192.9874,84.320068)"
       gradientUnits="userSpaceOnUse"
       y2="0"
       x2="1"
       y1="0"
       x1="0"><stop
         id="stop704"
         offset="0"
         style="stop-opacity:1;stop-color:#073b43" /><stop
         id="stop706"
         offset="1"
         style="stop-opacity:1;stop-color:#0f6f7e" /></linearGradient><linearGradient
       id="linearGradient728"
       spreadMethod="pad"
       gradientTransform="matrix(0,19.448227,-19.448227,0,254.32031,104.73169)"
       gradientUnits="userSpaceOnUse"
       y2="0"
       x2="1"
       y1="0"
       x1="0"><stop
         id="stop724"
         offset="0"
         style="stop-opacity:1;stop-color:#073b43" /><stop
         id="stop726"
         offset="1"
         style="stop-opacity:1;stop-color:#0f6f7e" /></linearGradient><linearGradient
       id="linearGradient748"
       spreadMethod="pad"
       gradientTransform="matrix(0,16.467285,-16.467285,0,295.99786,23.036865)"
       gradientUnits="userSpaceOnUse"
       y2="0"
       x2="1"
       y1="0"
       x1="0"><stop
         id="stop744"
         offset="0"
         style="stop-opacity:1;stop-color:#073b43" /><stop
         id="stop746"
         offset="1"
         style="stop-opacity:1;stop-color:#0f6f7e" /></linearGradient><linearGradient
       id="linearGradient768"
       spreadMethod="pad"
       gradientTransform="matrix(0,41.870113,-41.870113,0,272.06732,45.829834)"
       gradientUnits="userSpaceOnUse"
       y2="0"
       x2="1"
       y1="0"
       x1="0"><stop
         id="stop764"
         offset="0"
         style="stop-opacity:1;stop-color:#073b43" /><stop
         id="stop766"
         offset="1"
         style="stop-opacity:1;stop-color:#0f6f7e" /></linearGradient><linearGradient
       id="linearGradient788"
       spreadMethod="pad"
       gradientTransform="matrix(0,57.252453,-57.252453,0,334.84888,24.604736)"
       gradientUnits="userSpaceOnUse"
       y2="0"
       x2="1"
       y1="0"
       x1="0"><stop
         id="stop784"
         offset="0"
         style="stop-opacity:1;stop-color:#073b43" /><stop
         id="stop786"
         offset="1"
         style="stop-opacity:1;stop-color:#0f6f7e" /></linearGradient><linearGradient
       id="linearGradient808"
       spreadMethod="pad"
       gradientTransform="matrix(0,16.466797,-16.466797,0,405.23639,0)"
       gradientUnits="userSpaceOnUse"
       y2="0"
       x2="1"
       y1="0"
       x1="0"><stop
         id="stop804"
         offset="0"
         style="stop-opacity:1;stop-color:#073b43" /><stop
         id="stop806"
         offset="1"
         style="stop-opacity:1;stop-color:#0f6f7e" /></linearGradient><linearGradient
       id="linearGradient828"
       spreadMethod="pad"
       gradientTransform="matrix(0,20.730873,-20.730873,0,568.69824,115.58057)"
       gradientUnits="userSpaceOnUse"
       y2="0"
       x2="1"
       y1="0"
       x1="0"><stop
         id="stop824"
         offset="0"
         style="stop-opacity:1;stop-color:#073b43" /><stop
         id="stop826"
         offset="1"
         style="stop-opacity:1;stop-color:#0f6f7e" /></linearGradient><linearGradient
       id="linearGradient848"
       spreadMethod="pad"
       gradientTransform="matrix(0,83.932861,-83.932861,0,480.92786,21.249268)"
       gradientUnits="userSpaceOnUse"
       y2="0"
       x2="1"
       y1="0"
       x1="0"><stop
         id="stop844"
         offset="0"
         style="stop-opacity:1;stop-color:#073b43" /><stop
         id="stop846"
         offset="1"
         style="stop-opacity:1;stop-color:#0f6f7e" /></linearGradient><linearGradient
       id="linearGradient868"
       spreadMethod="pad"
       gradientTransform="matrix(0,16.468994,-16.468994,0,568.61237,84.320068)"
       gradientUnits="userSpaceOnUse"
       y2="0"
       x2="1"
       y1="0"
       x1="0"><stop
         id="stop864"
         offset="0"
         style="stop-opacity:1;stop-color:#073b43" /><stop
         id="stop866"
         offset="1"
         style="stop-opacity:1;stop-color:#0f6f7e" /></linearGradient><linearGradient
       id="linearGradient888"
       spreadMethod="pad"
       gradientTransform="matrix(0,19.448227,-19.448227,0,629.94482,104.73169)"
       gradientUnits="userSpaceOnUse"
       y2="0"
       x2="1"
       y1="0"
       x1="0"><stop
         id="stop884"
         offset="0"
         style="stop-opacity:1;stop-color:#073b43" /><stop
         id="stop886"
         offset="1"
         style="stop-opacity:1;stop-color:#0f6f7e" /></linearGradient><linearGradient
       id="linearGradient908"
       spreadMethod="pad"
       gradientTransform="matrix(0,41.870113,-41.870113,0,647.69226,45.829834)"
       gradientUnits="userSpaceOnUse"
       y2="0"
       x2="1"
       y1="0"
       x1="0"><stop
         id="stop904"
         offset="0"
         style="stop-opacity:1;stop-color:#073b43" /><stop
         id="stop906"
         offset="1"
         style="stop-opacity:1;stop-color:#0f6f7e" /></linearGradient><linearGradient
       id="linearGradient928"
       spreadMethod="pad"
       gradientTransform="matrix(0,16.467285,-16.467285,0,671.62183,23.036865)"
       gradientUnits="userSpaceOnUse"
       y2="0"
       x2="1"
       y1="0"
       x1="0"><stop
         id="stop924"
         offset="0"
         style="stop-opacity:1;stop-color:#073b43" /><stop
         id="stop926"
         offset="1"
         style="stop-opacity:1;stop-color:#0f6f7e" /></linearGradient></defs><g
     transform="matrix(1.3333333,0,0,-1.3333333,0,1723.08)"
     id="g10"><g
       id="g12"><g
         id="g14"><g
           id="g20"><g
             id="g22"><path
               id="path30"
               style="fill:url(#linearGradient28);stroke:none"
               d="m 240.439,493.996 c -11.267,0 -20.398,-9.133 -20.398,-20.399 v 0 c 0,-0.459 0.106,-0.889 0.137,-1.341 v 0 c -0.031,-0.451 -0.137,-0.881 -0.137,-1.34 v 0 -172.804 c 0,-11.266 9.131,-20.398 20.398,-20.398 v 0 c 11.266,0 20.397,9.132 20.397,20.398 v 0 65.818 h 56.198 c 11.266,0 20.396,9.134 20.396,20.398 v 0 c 0,11.265 -9.13,20.399 -20.396,20.399 v 0 h -56.198 v 48.472 h 56.198 c 11.266,0 20.396,9.134 20.396,20.398 v 0 c 0,11.266 -9.13,20.399 -20.396,20.399 v 0 z" /></g></g></g></g><g
       id="g32"><g
         id="g34"><g
           id="g40"><g
             id="g42"><path
               id="path50"
               style="fill:url(#linearGradient48);stroke:none"
               d="M 121.701,472.579 V 339.416 c 0,-11.528 -9.379,-20.907 -20.905,-20.907 v 0 c -11.527,0 -20.908,9.379 -20.908,20.907 v 0 131.5 c 0,11.265 -9.131,20.398 -20.399,20.398 v 0 c -11.264,0 -20.396,-9.133 -20.396,-20.398 v 0 -131.5 c 0,-34.023 27.68,-61.702 61.703,-61.702 v 0 c 34.022,0 61.703,27.679 61.703,61.702 v 0 133.163 c 0,11.265 -9.133,20.4 -20.399,20.4 v 0 c -11.266,0 -20.399,-9.135 -20.399,-20.4" /></g></g></g></g><g
       id="g52"><g
         id="g54"><g
           id="g60"><g
             id="g62"><path
               id="path70"
               style="fill:url(#linearGradient68);stroke:none"
               d="M 471.295,472.579 V 339.416 c 0,-11.528 -9.378,-20.907 -20.906,-20.907 v 0 c -11.527,0 -20.906,9.379 -20.906,20.907 v 0 131.5 c 0,11.265 -9.134,20.398 -20.399,20.398 v 0 c -11.267,0 -20.397,-9.133 -20.397,-20.398 v 0 -131.5 c 0,-34.023 27.679,-61.702 61.702,-61.702 v 0 c 34.022,0 61.702,27.679 61.702,61.702 v 0 133.163 c 0,11.265 -9.133,20.4 -20.398,20.4 v 0 c -11.265,0 -20.398,-9.135 -20.398,-20.4" /></g></g></g></g><g
       id="g72"><g
         id="g74"><g
           id="g80"><g
             id="g82"><path
               id="path90"
               style="fill:url(#linearGradient88);stroke:none"
               d="m 673.671,494.828 c -6.093,-0.056 -12.093,-2.83 -16.064,-8.059 v 0 l -41.623,-54.79 v 41.526 c 0,11.266 -9.133,20.398 -20.397,20.398 v 0 c -11.267,0 -20.399,-9.132 -20.399,-20.398 v 0 -175.393 c 0,-11.266 9.132,-20.398 20.399,-20.398 v 0 c 11.264,0 20.397,9.132 20.397,20.398 v 0 52.202 l 44.354,-61.994 c 3.986,-5.566 10.249,-8.53 16.609,-8.53 v 0 c 4.109,0 8.256,1.237 11.85,3.81 v 0 c 9.165,6.554 11.276,19.295 4.723,28.456 v 0 l -56.942,79.594 53.513,70.441 c 6.816,8.97 5.068,21.766 -3.9,28.58 v 0 c -3.638,2.761 -7.904,4.118 -12.144,4.157 v 0 z" /></g></g></g></g><g
       id="g92"><g
         id="g94"><g
           id="g100"><g
             id="g102"><path
               id="path112"
               style="fill:url(#linearGradient110);stroke:none"
               d="m 48.096,261.087 c -2.609,-0.046 -4.667,-2.067 -4.667,-4.685 v 0 c 0,-2.444 2.04,-4.619 4.758,-4.619 v 0 c 2.583,0 4.554,2.175 4.554,4.619 v 0 c 0,2.618 -1.926,4.639 -4.465,4.685 v 0 z m -5.211,-57.71 h 10.399 v 45.76 H 42.885 Z" /></g></g></g></g><g
       id="g114"><g
         id="g116"><g
           id="g122"><g
             id="g124"><path
               id="path134"
               style="fill:url(#linearGradient132);stroke:none"
               d="m 71.498,232.028 h -0.202 l -0.477,4.547 h -8.972 c 0.135,-2.92 0.27,-6.449 0.27,-10.591 v 0 -22.607 h 10.334 v 19.145 c 0,0.949 0.135,1.968 0.407,2.581 v 0 c 0.68,1.899 2.379,3.869 5.234,3.869 v 0 c 3.74,0 5.235,-2.92 5.235,-7.198 v 0 -18.397 h 10.332 v 19.687 c 0,9.778 -5.097,14.259 -11.896,14.259 v 0 c -5.505,0 -8.905,-3.19 -10.265,-5.295" /></g></g></g></g><g
       id="g136"><g
         id="g138"><g
           id="g144"><g
             id="g146"><path
               id="path156"
               style="fill:url(#linearGradient154);stroke:none"
               d="m 100.86,226.462 c -0.068,-3.94 2.583,-7.677 9.449,-9.981 v 0 c 3.874,-1.292 4.894,-2.109 4.894,-3.805 v 0 c 0,-1.697 -1.291,-2.783 -4.419,-2.783 v 0 c -3.059,0 -7.001,1.359 -8.905,2.511 v 0 l -1.835,-7.401 c 2.515,-1.356 6.389,-2.308 10.74,-2.308 v 0 c 9.443,0 14.336,4.478 14.411,10.584 v 0 0.201 c -0.087,4.856 -2.744,8.033 -9.041,10.194 v 0 c -4.078,1.429 -5.37,2.243 -5.37,3.805 v 0 c 0,1.696 1.429,2.715 3.943,2.715 v 0 c 2.855,0 5.711,-1.085 7.205,-1.902 v 0 l 1.835,7.13 c -2.037,1.02 -5.504,1.901 -9.38,1.901 v 0 c -8.224,0 -13.527,-4.686 -13.527,-10.861" /></g></g></g></g><g
       id="g158"><g
         id="g160"><g
           id="g166"><g
             id="g168"><path
               id="path178"
               style="fill:url(#linearGradient176);stroke:none"
               d="m 131.65,234.403 1.902,-6.653 c 2.175,1.359 5.779,2.512 9.177,2.512 v 0 c 5.099,0 6.05,-2.512 6.05,-4.278 v 0 -0.476 c -11.76,0.069 -19.508,-4.073 -19.508,-12.696 v 0 c 0,-5.296 4.009,-10.186 10.741,-10.186 v 0 c 3.941,0 7.34,1.427 9.515,4.075 v 0 h 0.204 l 0.612,-3.324 h 9.313 c -0.341,1.831 -0.475,4.884 -0.475,8.077 v 0 11.543 c 0,7.809 -3.537,14.326 -14.616,14.326 v 0 c -6.051,0 -10.605,-1.63 -12.915,-2.92 m 7.815,-20.573 c 0,4.006 4.215,5.297 9.654,5.229 v 0 -3.6 c 0,-0.611 -0.068,-1.221 -0.204,-1.764 v 0 c -0.681,-2.104 -2.787,-3.802 -5.369,-3.802 v 0 c -2.311,0 -4.081,1.289 -4.081,3.937" /></g></g></g></g><g
       id="g180"><g
         id="g182"><g
           id="g188"><g
             id="g190"><path
               id="path200"
               style="fill:url(#linearGradient198);stroke:none"
               d="m 176.714,232.028 h -0.203 l -0.477,4.547 h -8.972 c 0.135,-2.92 0.27,-6.449 0.27,-10.591 v 0 -22.607 h 10.334 v 19.145 c 0,0.949 0.135,1.968 0.407,2.581 v 0 c 0.68,1.899 2.379,3.869 5.236,3.869 v 0 c 3.738,0 5.233,-2.92 5.233,-7.198 v 0 -18.397 h 10.334 v 19.687 c 0,9.778 -5.1,14.259 -11.898,14.259 v 0 c -5.504,0 -8.905,-3.19 -10.264,-5.295" /></g></g></g></g><g
       id="g202"><g
         id="g204"><g
           id="g210"><g
             id="g212"><path
               id="path222"
               style="fill:url(#linearGradient220);stroke:none"
               d="m 212.219,251.037 c -3.268,-0.048 -5.395,-2.273 -5.327,-5.225 v 0 c -0.068,-2.852 2.106,-5.162 5.369,-5.162 v 0 c 3.4,0 5.574,2.31 5.574,5.162 v 0 c -0.068,2.952 -2.129,5.177 -5.398,5.225 v 0 z m -5.057,-47.66 h 10.334 v 33.2 h -10.334 z" /></g></g></g></g><g
       id="g224"><g
         id="g226"><g
           id="g232"><g
             id="g234"><path
               id="path244"
               style="fill:url(#linearGradient242);stroke:none"
               d="m 261.541,249.135 -4.623,-10.998 c -1.359,-3.259 -2.448,-5.906 -3.466,-8.758 v 0 h -0.137 c -1.155,2.987 -2.107,5.431 -3.535,8.758 v 0 l -4.69,10.998 h -11.828 l 14.48,-27.02 v -18.738 h 10.331 v 19.077 l 15.091,26.681 v 0 z" /></g></g></g></g><g
       id="g246"><g
         id="g248"><g
           id="g254"><g
             id="g256"><path
               id="path266"
               style="fill:url(#linearGradient264);stroke:none"
               d="m 271.665,234.403 1.903,-6.653 c 2.175,1.359 5.778,2.512 9.177,2.512 v 0 c 5.099,0 6.049,-2.512 6.049,-4.278 v 0 -0.476 c -11.759,0.069 -19.508,-4.073 -19.508,-12.696 v 0 c 0,-5.296 4.01,-10.186 10.741,-10.186 v 0 c 3.941,0 7.342,1.427 9.516,4.075 v 0 h 0.205 l 0.611,-3.324 h 9.313 c -0.34,1.831 -0.476,4.884 -0.476,8.077 v 0 11.543 c 0,7.809 -3.535,14.326 -14.616,14.326 v 0 c -6.049,0 -10.604,-1.63 -12.915,-2.92 m 7.817,-20.573 c 0,4.006 4.216,5.297 9.654,5.229 v 0 -3.6 c 0,-0.611 -0.07,-1.221 -0.205,-1.764 v 0 c -0.68,-2.104 -2.786,-3.802 -5.37,-3.802 v 0 c -2.311,0 -4.079,1.289 -4.079,3.937" /></g></g></g></g><g
       id="g268"><g
         id="g270"><g
           id="g276"><g
             id="g278"><path
               id="path288"
               style="fill:url(#linearGradient286);stroke:none"
               d="m 316.592,230.465 h -0.271 l -0.341,6.11 h -8.904 c 0.136,-2.851 0.272,-6.043 0.272,-10.931 v 0 -22.267 h 10.332 v 16.836 c 0,0.814 0.068,1.629 0.203,2.309 v 0 c 0.681,3.19 3.264,5.228 7.07,5.228 v 0 c 1.156,0 2.041,-0.137 2.789,-0.271 v 0 9.708 c -0.748,0.136 -1.226,0.136 -2.177,0.136 v 0 c -3.194,0 -7.273,-2.037 -8.973,-6.858" /></g></g></g></g><g
       id="g290"><g
         id="g292"><g
           id="g298"><g
             id="g300"><path
               id="path310"
               style="fill:url(#linearGradient308);stroke:none"
               d="m 354.521,251.582 v -17.993 h -0.137 c -1.494,2.308 -4.689,3.734 -8.769,3.734 v 0 c -7.953,0 -14.955,-6.45 -14.886,-17.653 v 0 c 0,-10.322 6.323,-17.044 14.208,-17.044 v 0 c 4.282,0 8.292,1.902 10.4,5.635 v 0 h 0.137 l 0.475,-4.884 h 9.176 c -0.135,2.238 -0.272,6.176 -0.272,9.91 v 0 38.295 z m -13.322,-31.574 c 0,5.229 2.447,9.439 7.137,9.439 v 0 c 3.194,0 5.438,-2.31 6.048,-5.094 v 0 c 0.068,-0.542 0.137,-1.289 0.137,-1.831 v 0 -4.347 c 0,-0.881 -0.069,-1.63 -0.271,-2.376 v 0 c -0.611,-2.919 -2.992,-4.955 -5.983,-4.955 v 0 c -4.283,0 -7.068,3.528 -7.068,9.164" /></g></g></g></g><g
       id="g312"><g
         id="g314"><g
           id="g320"><g
             id="g322"><path
               id="path332"
               style="fill:url(#linearGradient330);stroke:none"
               d="m 378.198,251.037 c -3.27,-0.048 -5.397,-2.273 -5.329,-5.225 v 0 c -0.068,-2.852 2.106,-5.162 5.368,-5.162 v 0 c 3.401,0 5.575,2.31 5.575,5.162 v 0 c -0.067,2.952 -2.128,5.177 -5.396,5.225 v 0 z m -5.057,-47.66 h 10.332 v 33.2 h -10.332 z" /></g></g></g></g><g
       id="g334"><g
         id="g336"><g
           id="g342"><g
             id="g344"><path
               id="path354"
               style="fill:url(#linearGradient352);stroke:none"
               d="m 424.46,235.693 c -1.565,-0.949 -3.059,-2.308 -4.283,-4.005 v 0 h -0.135 c -1.428,3.463 -4.826,5.635 -9.11,5.635 v 0 c -5.71,0 -8.634,-3.124 -10.061,-5.228 v 0 h -0.204 l -0.474,4.48 h -8.702 c 0.136,-2.92 0.272,-6.449 0.272,-10.591 v 0 -22.607 h 10.06 v 19.347 c 0,0.816 0.068,1.766 0.407,2.581 v 0 c 0.612,1.697 2.176,3.735 4.828,3.735 v 0 c 3.262,0 4.758,-2.853 4.758,-7.063 v 0 -18.6 h 10.06 v 19.416 c 0,0.815 0.137,1.902 0.408,2.648 v 0 c 0.679,1.968 2.38,3.599 4.76,3.599 v 0 c 3.329,0 4.893,-2.784 4.893,-7.605 v 0 -18.058 h 10.062 v 19.552 c 0,9.913 -4.829,14.394 -11.218,14.394 v 0 c -2.447,0 -4.485,-0.543 -6.321,-1.63" /></g></g></g></g><g
       id="g356"><g
         id="g358"><g
           id="g364"><g
             id="g366"><path
               id="path376"
               style="fill:url(#linearGradient374);stroke:none"
               d="m 464.284,248.527 v -44.95 c 2.584,-0.34 6.39,-0.677 11.761,-0.677 v 0 c 8.971,0 16.313,1.9 21.14,5.905 v 0 c 4.42,3.736 7.615,9.779 7.615,18.537 v 0 c 0,8.08 -2.993,13.715 -7.752,17.247 v 0 c -4.417,3.326 -10.06,4.888 -18.762,4.888 v 0 c -5.233,0 -10.194,-0.341 -14.002,-0.95 m 14.002,-37.548 c -1.292,0 -2.717,0 -3.603,0.203 v 0 29.943 c 0.886,0.202 2.38,0.407 4.693,0.407 v 0 c 8.904,0 14.479,-5.025 14.41,-14.53 v 0 c 0,-10.86 -6.037,-16.024 -15.316,-16.024 v 0 c -0.061,0 -0.123,0.001 -0.184,0.001" /></g></g></g></g><g
       id="g378"><g
         id="g380"><g
           id="g386"><g
             id="g388"><path
               id="path398"
               style="fill:url(#linearGradient396);stroke:none"
               d="m 509.348,219.601 c 0,-10.388 6.458,-16.906 17.743,-16.906 v 0 c 4.486,0 8.632,0.682 12.03,2.038 v 0 l -1.359,6.993 c -2.788,-0.882 -5.642,-1.357 -9.178,-1.357 v 0 c -4.825,0 -9.039,2.035 -9.378,6.313 v 0 h 21.41 c 0.137,0.746 0.342,2.309 0.342,4.075 v 0 c 0,8.215 -4.079,16.566 -14.82,16.566 v 0 c -11.556,0 -16.79,-9.302 -16.79,-17.722 m 16.178,10.864 c 4.76,0 5.847,-4.209 5.847,-6.722 v 0 h -12.235 c 0.27,2.783 2.037,6.722 6.388,6.722" /></g></g></g></g><g
       id="g400"><g
         id="g402"><g
           id="g408"><g
             id="g410"><path
               id="path420"
               style="fill:url(#linearGradient418);stroke:none"
               d="m 556.381,230.465 h -0.27 l -0.34,6.11 h -8.906 c 0.138,-2.851 0.272,-6.043 0.272,-10.931 v 0 -22.267 h 10.334 v 16.836 c 0,0.814 0.068,1.629 0.201,2.309 v 0 c 0.681,3.19 3.265,5.228 7.072,5.228 v 0 c 1.156,0 2.041,-0.137 2.788,-0.271 v 0 9.708 c -0.747,0.136 -1.225,0.136 -2.177,0.136 v 0 c -3.194,0 -7.272,-2.037 -8.974,-6.858" /></g></g></g></g><g
       id="g422"><g
         id="g424"><g
           id="g430"><g
             id="g432"><path
               id="path442"
               style="fill:url(#linearGradient440);stroke:none"
               d="m 582.346,232.028 h -0.202 l -0.477,4.547 h -8.972 c 0.135,-2.92 0.27,-6.449 0.27,-10.591 v 0 -22.607 h 10.334 v 19.145 c 0,0.949 0.135,1.968 0.409,2.581 v 0 c 0.678,1.899 2.376,3.869 5.234,3.869 v 0 c 3.739,0 5.233,-2.92 5.233,-7.198 v 0 -18.397 h 10.334 v 19.687 c 0,9.778 -5.099,14.259 -11.899,14.259 v 0 c -5.503,0 -8.902,-3.19 -10.264,-5.295" /></g></g></g></g><g
       id="g444"><g
         id="g446"><g
           id="g452"><g
             id="g454"><path
               id="path464"
               style="fill:url(#linearGradient462);stroke:none"
               d="m 610.89,219.601 c 0,-10.388 6.458,-16.906 17.744,-16.906 v 0 c 4.486,0 8.632,0.682 12.03,2.038 v 0 l -1.359,6.993 c -2.787,-0.882 -5.641,-1.357 -9.177,-1.357 v 0 c -4.826,0 -9.04,2.035 -9.379,6.313 v 0 h 21.412 c 0.136,0.746 0.34,2.309 0.34,4.075 v 0 c 0,8.215 -4.079,16.566 -14.82,16.566 v 0 c -11.556,0 -16.791,-9.302 -16.791,-17.722 m 16.179,10.864 c 4.759,0 5.846,-4.209 5.846,-6.722 v 0 H 620.68 c 0.271,2.783 2.038,6.722 6.389,6.722" /></g></g></g></g><g
       id="g466"><g
         id="g468"><g
           id="g474"><g
             id="g476"><path
               id="path486"
               style="fill:url(#linearGradient484);stroke:none"
               d="m 668.464,250.36 c -0.138,-2.106 -1.36,-4.143 -4.147,-4.143 v 0 c -2.379,0 -3.671,1.765 -4.01,4.143 v 0 h -5.371 c 0.068,-5.433 3.059,-9.642 9.381,-9.642 v 0 c 6.186,0 9.448,3.939 9.517,9.642 v 0 z m -21.686,-30.486 c 0,-9.574 5.847,-16.227 14.073,-16.227 v 0 c 3.807,0 6.999,1.561 8.972,4.344 v 0 h 0.136 v -2.172 c 0,-6.111 -3.739,-8.759 -8.633,-8.759 v 0 c -3.874,0 -7.545,1.29 -9.651,2.511 v 0 l -2.04,-7.809 c 2.99,-1.696 7.612,-2.579 11.964,-2.579 v 0 c 4.894,0 9.856,0.952 13.527,4.075 v 0 c 3.739,3.327 5.031,8.554 5.031,14.938 v 0 18.536 c 0,4.956 0.133,7.739 0.27,9.843 v 0 h -8.972 l -0.34,-3.938 h -0.137 c -1.699,2.717 -4.553,4.686 -9.109,4.686 v 0 c -8.157,0 -15.091,-6.791 -15.091,-17.449 m 10.469,0.202 c 0,6.043 3.06,9.439 6.799,9.439 v 0 c 2.854,0 4.826,-1.834 5.573,-4.55 v 0 c 0.136,-0.543 0.204,-1.222 0.204,-1.901 v 0 -4.889 c 0,-0.881 -0.068,-1.969 -0.34,-2.716 v 0 c -0.68,-2.443 -2.788,-4.207 -5.437,-4.207 v 0 c -4.351,0 -6.799,3.869 -6.799,8.824" /></g></g></g></g><g
       id="g488"><g
         id="g490"><g
           id="g496"><g
             id="g498"><path
               id="path508"
               style="fill:url(#linearGradient506);stroke:none"
               d="m 693.502,251.037 c -3.272,-0.048 -5.397,-2.273 -5.33,-5.225 v 0 c -0.068,-2.852 2.105,-5.162 5.37,-5.162 v 0 c 3.4,0 5.573,2.31 5.573,5.162 v 0 c -0.067,2.952 -2.127,5.177 -5.395,5.225 v 0 z m -5.059,-47.66 h 10.334 v 33.2 h -10.334 z" /></g></g></g></g><g
       id="g510"><g
         id="g512"><g
           id="g518"><g
             id="g520"><path
               id="path528"
               style="fill:url(#linearGradient526);stroke:none"
               d="m 602.164,993.479 c -0.189,-0.102 -0.375,-0.232 -0.554,-0.424 v 0 c -17.865,-19.202 -46.987,-25.802 -72.325,-27.881 v 0 c -19.652,-1.612 -39.423,-0.484 -59.096,0.064 v 0 c -32.056,0.892 -71.431,2.282 -95.908,-22.333 v 0 C 358.254,926.788 352.758,903.736 350.85,881.782 v 0 c -0.178,-2.026 2.13,-2.713 3.41,-1.803 v 0 c 38.265,1.259 76.765,1.506 114.222,10.36 v 0 c 25.057,5.921 49.306,15.358 70.864,29.255 v 0 C 512.87,892.619 475.49,879.094 438.223,874.403 v 0 c -23.442,-2.949 -46.91,-2.447 -70.463,-1.77 v 0 c -18.855,0.542 -36.576,-1.807 -52.571,-12.458 v 0 c -16.626,-11.071 -28.647,-28.239 -32.795,-47.812 v 0 c -0.63,-1.377 0.325,-2.42 1.49,-2.655 v 0 c 1.016,-0.409 2.21,-0.137 2.499,1.232 v 0 c 13.575,29.676 46.699,31.375 75.114,27.172 v 0 c 25.501,-3.771 50.568,-14.507 76.406,-15.336 v 0 c 57.982,-1.865 109.589,30.359 137.352,80.553 v 0 c 4.988,9.016 8.794,18.608 12.48,28.213 v 0 c 7.557,19.681 14.879,40.014 18.38,60.871 v 0 c 0.237,1.418 -0.825,2.167 -1.946,2.167 v 0 c -0.777,0 -1.581,-0.358 -2.005,-1.101 M 377.383,922.451 c -0.22,0.248 -0.233,0.61 -0.055,0.871 v 0 c 5.441,8.044 13.789,14.102 22.786,17.964 v 0 c 9.054,3.88 18.688,5.932 28.254,6.967 v 0 c 4.788,0.52 9.569,0.917 14.345,1.062 v 0 c 4.774,0.192 9.532,0.257 14.282,0.209 v 0 c 9.499,-0.064 18.935,-0.384 28.424,-0.774 v 0 c 0.392,-0.015 0.698,-0.346 0.681,-0.737 v 0 c -0.012,-0.34 -0.264,-0.615 -0.586,-0.672 v 0 c -9.405,-1.651 -18.906,-2.417 -28.328,-3.162 v 0 l -14.09,-1.101 c -4.674,-0.437 -9.332,-0.809 -13.945,-1.405 v 0 c -9.211,-1.218 -18.326,-2.769 -26.959,-5.74 v 0 c -8.641,-2.917 -16.736,-7.3 -23.805,-13.543 v 0 c -0.136,-0.119 -0.304,-0.179 -0.471,-0.179 v 0 c -0.197,0 -0.392,0.081 -0.533,0.24" /></g></g></g></g><g
       id="g530"><g
         id="g532"><g
           id="g538"><g
             id="g540"><path
               id="path548"
               style="fill:url(#linearGradient546);stroke:none"
               d="m 334.821,1031.546 c -0.04,-0.118 -0.067,-0.249 -0.066,-0.4 v 0 c 0.14,-15.288 -9.537,-29.757 -19.426,-40.794 v 0 c -7.669,-8.56 -16.485,-16.011 -25.031,-23.664 v 0 c -13.922,-12.474 -31.139,-27.671 -31.629,-47.901 v 0 c -0.32,-13.243 6.596,-25.202 14.591,-35.257 v 0 c 0.739,-0.927 1.989,-0.294 2.166,0.605 v 0 c 15.686,15.874 31.877,31.411 44.177,50.176 v 0 c 8.23,12.55 14.705,26.266 18.257,40.788 v 0 c -0.389,-22.028 -10.782,-42.737 -24.67,-59.662 v 0 c -8.738,-10.646 -18.871,-19.841 -29.108,-28.998 v 0 c -8.195,-7.331 -14.753,-15.43 -17.249,-26.348 v 0 c -2.596,-11.351 -0.799,-23.434 5.292,-33.377 v 0 c 0.286,-0.837 1.107,-0.895 1.695,-0.527 v 0 c 0.594,0.233 0.988,0.827 0.564,1.523 v 0 c -6.155,17.998 7.181,31.997 20.887,41.61 v 0 c 12.303,8.629 27.215,14.134 38.48,24.143 v 0 c 25.28,22.458 34.2,56.781 25.822,89.15 v 0 c -1.502,5.815 -3.738,11.398 -6.027,16.943 v 0 c -4.694,11.355 -9.749,22.896 -16.628,33.124 v 0 c -0.236,0.351 -0.545,0.497 -0.854,0.497 v 0 c -0.723,0 -1.449,-0.8 -1.243,-1.631 M 268.183,911.378 c -0.193,0.017 -0.344,0.163 -0.374,0.344 v 0 c -0.922,5.586 0.182,11.496 2.442,16.738 v 0 c 2.275,5.268 5.529,10.002 9.161,14.273 v 0 c 1.817,2.14 3.682,4.225 5.645,6.201 v 0 c 1.939,1.996 3.929,3.931 5.958,5.815 v 0 c 4.045,3.781 8.166,7.428 12.339,11.068 v 0 c 0.172,0.15 0.432,0.133 0.582,-0.039 v 0 c 0.131,-0.149 0.135,-0.367 0.022,-0.519 v 0 c -3.318,-4.469 -7.031,-8.604 -10.718,-12.694 v 0 l -5.521,-6.116 c -1.802,-2.058 -3.626,-4.083 -5.337,-6.184 v 0 c -3.409,-4.209 -6.646,-8.52 -9.108,-13.238 v 0 c -2.485,-4.7 -4.154,-9.797 -4.642,-15.275 v 0 c -0.019,-0.214 -0.2,-0.376 -0.41,-0.376 v 0 c -0.013,0 -0.027,0 -0.039,0.002" /></g></g></g></g><g
       id="g550"><g
         id="g552"><g
           id="g558"><g
             id="g560"><path
               id="path568"
               style="fill:url(#linearGradient566);stroke:none"
               d="m 177.448,981.224 c 0.044,-0.078 0.1,-0.153 0.184,-0.226 v 0 c 8.235,-7.27 11.318,-19.391 12.467,-29.977 v 0 c 0.89,-8.211 0.635,-16.502 0.621,-24.745 v 0 c -0.022,-13.433 -0.172,-29.935 10.402,-39.913 v 0 c 6.924,-6.533 16.637,-8.582 25.851,-9.141 v 0 c 0.85,-0.05 1.114,0.922 0.717,1.448 v 0 c -0.947,16.008 -1.472,32.126 -5.59,47.713 v 0 c -2.753,10.426 -6.973,20.476 -13.027,29.351 v 0 c 11.586,-10.791 17.658,-26.294 20.032,-41.847 v 0 c 1.491,-9.783 1.538,-19.616 1.514,-29.484 v 0 c -0.02,-7.901 1.158,-15.295 5.792,-21.874 v 0 c 4.819,-6.841 12.139,-11.686 20.379,-13.207 v 0 c 0.584,-0.249 1.01,0.161 1.097,0.651 v 0 c 0.159,0.43 0.03,0.928 -0.544,1.034 v 0 c -12.576,5.358 -13.649,19.209 -12.202,31.152 v 0 c 1.299,10.719 5.521,21.332 5.585,32.161 v 0 c 0.143,24.297 -13.914,45.554 -35.236,56.626 v 0 c -3.83,1.991 -7.887,3.478 -11.951,4.917 v 0 c -8.325,2.948 -16.918,5.79 -25.688,7.027 v 0 c -0.049,0.007 -0.095,0.011 -0.14,0.011 v 0 c -0.884,0 -1,-1.281 -0.263,-1.677 m 31.841,-93.37 c -3.428,2.19 -6.056,5.619 -7.771,9.344 v 0 c -1.725,3.746 -2.689,7.76 -3.227,11.752 v 0 c -0.27,1.999 -0.489,3.997 -0.602,5.996 v 0 c -0.132,1.997 -0.213,3.988 -0.245,5.977 v 0 c -0.076,3.978 -0.047,7.932 0.011,11.91 v 0 c 0.004,0.164 0.137,0.296 0.302,0.294 v 0 c 0.144,-0.002 0.261,-0.104 0.289,-0.24 v 0 c 0.794,-3.92 1.22,-7.888 1.635,-11.826 v 0 l 0.615,-5.886 c 0.235,-1.952 0.439,-3.898 0.741,-5.825 v 0 c 0.61,-3.843 1.359,-7.642 2.699,-11.224 v 0 c 1.315,-3.585 3.24,-6.928 5.932,-9.819 v 0 c 0.112,-0.12 0.105,-0.309 -0.014,-0.422 v 0 c -0.058,-0.052 -0.13,-0.079 -0.203,-0.079 v 0 c -0.057,0 -0.113,0.016 -0.162,0.048" /></g></g></g></g><g
       id="g570"><g
         id="g572"><g
           id="g578"><g
             id="g580"><path
               id="path588"
               style="fill:url(#linearGradient586);stroke:none"
               d="M 4.475,988.588 C 1.488,968.866 0.005,949.062 0,929.414 v 0 -0.322 C 0.032,869.289 13.753,811.002 40.405,761.32 v 0 C 89.156,681.082 152.179,638.014 156.839,635.42 v 0 c 43.411,-29.822 93.438,-51.242 149.413,-56.33 v 0 c 57.645,-5.24 110.386,3.173 145.196,11.587 v 0 c 27.92,6.75 44.307,13.498 42.442,13.203 v 0 c 9.042,3.191 17.997,6.749 26.844,10.699 v 0 c 53.328,23.822 98.016,63.292 140.134,102.97 v 0 c 10.288,8.273 19.955,20.16 26.706,31.293 v 0 c 3.998,6.592 5.803,15.064 2.576,22.347 v 0 c -3.991,8.999 -14.054,11.206 -22.618,7.486 v 0 c -9.462,-4.11 -16.493,-12.57 -24.347,-18.974 v 0 c -8.881,-7.242 -19.202,-13.164 -29.039,-18.999 v 0 c -17.687,-10.496 -36.161,-19.857 -55.373,-27.233 v 0 c -46.48,-17.84 -102.082,-27.323 -150.055,-9.188 v 0 c -2.827,1.07 -1.703,0.588 -4.244,1.764 v 0 c -1.601,0.74 -3.189,1.504 -4.742,2.341 v 0 c -4.236,2.284 -8.063,5.084 -11.694,8.254 v 0 c -6.885,6.008 -12.815,12.849 -18.076,20.193 v 0 c 10.859,-0.452 21.889,-4.117 31.999,-6.914 v 0 c 14.698,-4.066 30.181,-7.466 45.345,-3.88 v 0 c 12.363,2.925 23.812,10.611 29.345,22.275 v 0 c 0.191,0.404 0.336,0.804 0.46,1.201 v 0 c 5.98,10.382 -6.114,18.489 -14.367,21.598 v 0 c -10.682,4.025 -22.051,5.219 -33.278,6.75 v 0 c -24.165,3.296 -46.737,12.987 -70.742,16.892 v 0 c -22.643,3.682 -45.557,0.748 -67.354,-5.958 v 0 c -20.839,-6.41 -41.615,-15.969 -58.927,-29.356 v 0 C 212.71,744.182 197.664,723.16 193.069,698.361 v 0 c -0.078,-0.424 -0.115,-0.83 -0.135,-1.225 v 0 C 111.274,774.619 67.537,889.439 85.672,1009.181 v 0 c 20.465,135.138 114.341,240.955 234.963,283.131 v 0 C 162.468,1274.952 29.427,1153.351 4.475,988.588" /></g></g></g></g><g
       id="g590"><g
         id="g592"><g
           id="g598"><g
             id="g600"><path
               id="path610"
               style="fill:url(#linearGradient608);stroke:none"
               d="m 138.541,1112.105 c 74.453,98.034 201.942,148.868 329.695,119.466 v 0 C 641.998,1191.578 750.442,1018.296 710.45,844.533 v 0 c -3.613,-15.7 -8.33,-30.859 -14.022,-45.432 v 0 c 14.961,26.347 26.418,55.27 33.562,86.312 v 0 c 5.524,24.004 8.189,48.002 8.218,71.631 v 0 0.737 c -0.166,145.497 -100.273,276.963 -248.13,310.994 v 0 c -24.123,5.552 -48.264,8.215 -72.005,8.217 v 0 c -116.285,0.01 -223.628,-63.833 -279.532,-164.887" /></g></g></g></g><g
       id="g612"><g
         id="g614"><g
           id="g620"><g
             id="g622"><path
               id="path630"
               style="fill:url(#linearGradient628);stroke:none"
               d="M 84.183,16.466 77.18,9.563 70.275,16.466 H 70.273 L 62.016,8.306 70.274,0 77.18,7.051 84.184,0 l 8.16,8.306 -8.159,8.16 z" /></g></g></g></g><g
       id="g632"><g
         id="g634"><g
           id="g640"><g
             id="g642"><path
               id="path650"
               style="fill:url(#linearGradient648);stroke:none"
               d="m 114.656,94.848 9.755,-9.802 9.756,9.802 -9.756,9.707 z" /></g></g></g></g><g
       id="g652"><g
         id="g654"><g
           id="g660"><g
             id="g662"><path
               id="path670"
               style="fill:url(#linearGradient668);stroke:none"
               d="m 150.828,31.295 8.933,-8.887 8.839,8.887 -8.839,8.837 z" /></g></g></g></g><g
       id="g672"><g
         id="g674"><g
           id="g680"><g
             id="g682"><path
               id="path690"
               style="fill:url(#linearGradient688);stroke:none"
               d="m 191.491,74.082 c 1.223,-2.125 2.092,-4.201 2.607,-6.23 v 0 c 0.515,-2.027 0.773,-3.863 0.773,-5.504 v 0 c 0,-0.517 -0.017,-1.008 -0.047,-1.475 v 0 c -0.033,-0.467 -0.097,-0.892 -0.194,-1.279 v 0 h -17.386 -1.304 -8.258 v 0.482 c 0,3.606 -0.321,7.228 -0.966,10.867 v 0 c -0.644,3.637 -1.803,7.244 -3.477,10.817 v 0 l -11.252,-7.678 c 1.224,-2.125 2.092,-4.201 2.607,-6.23 v 0 c 0.515,-2.027 0.774,-3.863 0.774,-5.504 v 0 c 0,-0.517 -0.024,-1.008 -0.073,-1.475 v 0 c -0.048,-0.467 -0.105,-0.892 -0.169,-1.279 v 0 h -10.624 -1.547 -6.614 v 0.482 c 0,3.606 -0.332,7.228 -0.991,10.867 v 0 c -0.661,3.637 -1.844,7.244 -3.55,10.817 v 0 l -11.204,-7.678 c 1.224,-2.125 2.101,-4.201 2.632,-6.23 v 0 c 0.531,-2.027 0.797,-3.863 0.797,-5.504 v 0 c 0,-1.063 -0.097,-1.98 -0.29,-2.754 v 0 H 111.033 109.489 82.492 L 78.968,45.83 91.379,43.995 c -0.451,-1.321 -1.191,-2.567 -2.221,-3.743 v 0 C 88.126,39.077 86.92,38.071 85.535,37.233 v 0 c -1.384,-0.835 -2.872,-1.455 -4.467,-1.858 v 0 c -1.594,-0.403 -3.163,-0.491 -4.709,-0.266 v 0 c -2.704,0.387 -4.974,1.256 -6.809,2.608 v 0 c -1.835,1.353 -3.325,3.011 -4.467,4.974 v 0 c -1.143,1.964 -1.973,4.121 -2.488,6.472 v 0 c -0.515,2.35 -0.779,4.724 -0.796,7.123 v 0 c -0.016,2.398 0.177,4.717 0.58,6.955 v 0 c 0.403,2.236 0.958,4.208 1.666,5.916 v 0 l -7.389,-3.961 c -0.773,-0.869 -1.505,-2.133 -2.198,-3.791 v 0 c -0.693,-1.658 -1.303,-3.397 -1.835,-5.216 v 0 C 52.092,54.37 51.674,52.6 51.368,50.877 v 0 c -0.307,-1.722 -0.427,-3.099 -0.363,-4.13 v 0 c 0.226,-4.346 1.111,-8.121 2.656,-11.323 v 0 c 1.546,-3.205 3.518,-5.853 5.917,-7.946 v 0 c 2.398,-2.091 5.103,-3.653 8.112,-4.683 v 0 c 3.011,-1.03 6.077,-1.546 9.2,-1.546 v 0 c 3.189,0 6.327,0.531 9.418,1.594 v 0 c 3.09,1.061 5.85,2.632 8.282,4.708 v 0 c 2.431,2.077 4.402,4.644 5.916,7.703 v 0 c 1.514,3.059 2.302,6.584 2.366,10.576 v 0 h 6.617 1.544 31.922 1.547 31.438 1.304 28.638 c 0.387,2.415 0.708,4.863 0.966,7.34 v 0 c 0.257,2.48 0.387,4.926 0.387,7.34 v 0 c 0,3.51 -0.332,7.068 -0.99,10.674 v 0 c -0.661,3.606 -1.812,7.131 -3.454,10.576 v 0 z" /></g></g></g></g><g
       id="g692"><g
         id="g694"><g
           id="g700"><g
             id="g702"><path
               id="path710"
               style="fill:url(#linearGradient708);stroke:none"
               d="m 192.988,93.882 -6.858,6.907 -8.306,-8.163 8.306,-8.306 6.858,7.051 7.05,-7.051 8.113,8.306 -8.113,8.163 z" /></g></g></g></g><g
       id="g712"><g
         id="g714"><g
           id="g720"><g
             id="g722"><path
               id="path730"
               style="fill:url(#linearGradient728);stroke:none"
               d="m 259.44,123.573 c -0.789,-0.435 -1.498,-1.014 -2.126,-1.738 v 0 c -0.627,-0.726 -1.109,-1.523 -1.449,-2.392 v 0 c -0.337,-0.868 -0.468,-1.722 -0.386,-2.558 v 0 c 0.08,-0.838 0.436,-1.602 1.063,-2.295 v 0 c 0.628,-0.693 1.6,-1.2 2.921,-1.521 v 0 c -1.03,-1.224 -2.181,-2.221 -3.452,-2.994 v 0 c -1.272,-0.772 -2.649,-1.481 -4.13,-2.125 v 0 c 0.708,1.353 1.086,2.512 1.135,3.477 v 0 c 0.049,0.966 -0.121,1.738 -0.506,2.318 v 0 c -0.387,0.58 -0.935,0.974 -1.642,1.183 v 0 c -0.709,0.21 -1.466,0.225 -2.269,0.049 v 0 c -0.807,-0.178 -1.618,-0.531 -2.441,-1.063 v 0 c -0.82,-0.531 -1.536,-1.231 -2.148,-2.1 v 0 c 1.899,0.61 3.284,0.933 4.152,0.966 v 0 c 0.87,0.031 1.425,-0.138 1.667,-0.508 v 0 c 0.242,-0.37 0.273,-0.885 0.096,-1.545 v 0 c -0.177,-0.66 -0.345,-1.336 -0.507,-2.029 v 0 c -0.161,-0.693 -0.209,-1.369 -0.144,-2.028 v 0 c 0.064,-0.66 0.45,-1.168 1.159,-1.522 v 0 c 0.708,-0.354 1.448,-0.482 2.222,-0.386 v 0 c 0.773,0.097 1.536,0.339 2.292,0.725 v 0 c 0.756,0.387 1.49,0.886 2.198,1.497 v 0 c 0.709,0.611 1.36,1.247 1.957,1.908 v 0 c 0.594,0.658 1.11,1.304 1.545,1.932 v 0 c 0.435,0.628 0.748,1.166 0.942,1.617 v 0 l 2.221,-0.627 0.821,3.67 -1.834,0.58 c 0.095,0.321 0.232,0.916 0.41,1.787 v 0 c 0.176,0.868 0.272,1.761 0.29,2.679 v 0 c 0.015,0.918 -0.09,1.739 -0.315,2.463 v 0 c -0.225,0.724 -0.676,1.118 -1.351,1.184 v 0 c -0.055,0.002 -0.109,0.003 -0.163,0.003 v 0 c -0.75,0 -1.493,-0.202 -2.228,-0.607 m 0.338,-6.472 c -0.37,0.177 -0.7,0.363 -0.991,0.555 v 0 c -0.289,0.195 -0.515,0.42 -0.676,0.677 v 0 c -0.16,0.258 -0.209,0.562 -0.145,0.918 v 0 c 0,0.385 0.137,0.732 0.41,1.039 v 0 c 0.275,0.304 0.638,0.441 1.087,0.409 v 0 c 0.42,0 0.79,-0.16 1.11,-0.482 v 0 0.095 c 0.161,-0.128 0.283,-0.394 0.364,-0.795 v 0 c 0.08,-0.404 0.121,-0.83 0.121,-1.279 v 0 c 0,-0.517 -0.033,-1.08 -0.097,-1.692 v 0 c -0.419,0.194 -0.814,0.378 -1.183,0.555" /></g></g></g></g><g
       id="g732"><g
         id="g734"><g
           id="g740"><g
             id="g742"><path
               id="path750"
               style="fill:url(#linearGradient748);stroke:none"
               d="m 295.996,32.549 -6.904,6.955 -8.258,-8.209 8.258,-8.258 6.904,7.001 7.004,-7.001 8.161,8.258 -8.161,8.209 z" /></g></g></g></g><g
       id="g752"><g
         id="g754"><g
           id="g760"><g
             id="g762"><path
               id="path770"
               style="fill:url(#linearGradient768);stroke:none"
               d="m 251.326,77.076 c 0.579,-0.676 1.271,-1.714 2.076,-3.114 v 0 c 0.805,-1.401 1.578,-2.94 2.319,-4.612 v 0 c 0.74,-1.676 1.383,-3.382 1.931,-5.12 v 0 c 0.548,-1.739 0.868,-3.284 0.966,-4.636 v 0 h -19.076 c -0.838,0.354 -1.448,1.015 -1.835,1.979 v 0 c -0.387,0.966 -0.579,2.174 -0.579,3.623 v 0 h -1.545 c -0.451,-1.224 -0.87,-2.487 -1.257,-3.791 v 0 c -0.385,-1.303 -0.709,-2.568 -0.966,-3.792 v 0 c -0.257,-1.223 -0.458,-2.366 -0.603,-3.428 v 0 c -0.145,-1.063 -0.218,-1.948 -0.218,-2.655 v 0 c 0,-0.774 0.121,-1.483 0.363,-2.126 v 0 c 0.242,-0.645 0.546,-1.207 0.918,-1.69 v 0 c 0.37,-0.483 0.755,-0.887 1.159,-1.206 v 0 c 0.402,-0.324 0.747,-0.55 1.038,-0.678 v 0 h 74.274 c 0.387,2.415 0.699,4.863 0.942,7.34 v 0 c 0.23,2.363 0.351,4.695 0.362,6.998 v 0 0.659 c -0.019,3.407 -0.341,6.86 -0.965,10.357 v 0 c -0.645,3.606 -1.804,7.131 -3.477,10.576 v 0 l -11.252,-7.678 c 1.222,-2.125 2.092,-4.201 2.606,-6.23 v 0 c 0.516,-2.027 0.774,-3.863 0.774,-5.504 v 0 c 0,-0.517 -0.016,-1.008 -0.048,-1.475 v 0 c -0.032,-0.467 -0.096,-0.892 -0.193,-1.279 v 0 h -19.993 -1.884 -5.845 c -0.353,2.349 -0.837,4.651 -1.448,6.906 v 0 c -0.611,2.253 -1.296,4.385 -2.052,6.399 v 0 c -0.757,2.012 -1.538,3.878 -2.342,5.601 v 0 c -0.805,1.723 -1.562,3.236 -2.269,4.54 v 0 c -0.709,1.305 -1.354,2.358 -1.933,3.163 v 0 c -0.579,0.806 -0.999,1.304 -1.256,1.497 v 0 z" /></g></g></g></g><g
       id="g772"><g
         id="g774"><g
           id="g780"><g
             id="g782"><path
               id="path790"
               style="fill:url(#linearGradient788);stroke:none"
               d="m 329.996,80.963 c -1.514,-0.596 -2.923,-1.408 -4.226,-2.438 v 0 c -1.306,-1.03 -2.48,-2.238 -3.526,-3.622 v 0 c -1.047,-1.385 -1.948,-2.882 -2.704,-4.491 v 0 c -0.757,-1.611 -1.336,-3.277 -1.739,-4.999 v 0 c -0.403,-1.723 -0.603,-3.437 -0.603,-5.143 v 0 c 0,-1.352 0.136,-2.681 0.411,-3.984 v 0 c 0.272,-1.303 0.699,-2.543 1.279,-3.719 v 0 c 0.579,-1.175 1.32,-2.269 2.221,-3.284 v 0 c 0.902,-1.013 1.995,-1.907 3.283,-2.679 v 0 c 0.322,-0.13 0.758,-0.275 1.306,-0.436 v 0 c 0.546,-0.162 1.19,-0.274 1.93,-0.338 v 0 h 10.722 c -0.708,-1.514 -1.683,-3.091 -2.922,-4.732 v 0 c -1.239,-1.642 -2.745,-3.196 -4.514,-4.66 v 0 c -1.772,-1.466 -3.801,-2.76 -6.086,-3.889 v 0 c -2.286,-1.125 -4.83,-1.899 -7.63,-2.317 v 0 l 13.521,-5.216 c 1.159,-0.45 2.349,-0.531 3.573,-0.242 v 0 c 1.224,0.29 2.472,0.862 3.743,1.714 v 0 c 1.273,0.854 2.544,1.932 3.817,3.236 v 0 c 1.271,1.304 2.535,2.746 3.789,4.324 v 0 c 1.064,1.32 2.022,2.872 2.875,4.659 v 0 c 0.853,1.787 1.57,3.702 2.149,5.747 v 0 c 0.579,2.045 1.03,4.186 1.352,6.423 v 0 c 0.321,2.238 0.483,4.467 0.483,6.688 v 0 c 0,3.123 -0.331,6.142 -0.99,9.055 v 0 c -0.66,2.914 -1.707,5.506 -3.139,7.775 v 0 c -1.435,2.27 -3.268,4.081 -5.506,5.434 v 0 c -2.238,1.352 -4.934,2.028 -8.089,2.028 v 0 c -1.674,0 -3.268,-0.298 -4.78,-0.894 M 329.151,61.26 c -0.372,0.756 -0.557,1.57 -0.557,2.439 v 0 c 0,0.772 0.113,1.537 0.339,2.294 v 0 c 0.225,0.756 0.538,1.432 0.942,2.028 v 0 c 0.401,0.595 0.885,1.087 1.448,1.473 v 0 c 0.564,0.387 1.184,0.579 1.86,0.579 v 0 c 1.448,-0.064 2.599,-0.475 3.453,-1.231 v 0 c 0.852,-0.757 1.512,-1.674 1.979,-2.753 v 0 c 0.467,-1.078 0.757,-2.205 0.869,-3.38 v 0 c 0.113,-1.176 0.136,-2.214 0.072,-3.115 v 0 h -8.691 c -0.772,0.354 -1.346,0.909 -1.714,1.666" /></g></g></g></g><g
       id="g792"><g
         id="g794"><g
           id="g800"><g
             id="g802"><path
               id="path810"
               style="fill:url(#linearGradient808);stroke:none"
               d="m 412.239,16.466 -7.002,-6.903 -6.906,6.903 h -0.002 L 390.072,8.306 398.33,0 405.237,7.051 412.24,0 l 8.161,8.306 -8.16,8.16 z" /></g></g></g></g><g
       id="g812"><g
         id="g814"><g
           id="g820"><g
             id="g822"><path
               id="path830"
               style="fill:url(#linearGradient828);stroke:none"
               d="m 573.029,135.656 c -0.903,-0.467 -1.698,-1.086 -2.39,-1.858 v 0 c -0.693,-0.773 -1.239,-1.635 -1.642,-2.584 v 0 c -0.404,-0.951 -0.548,-1.877 -0.436,-2.778 v 0 c 0.113,-0.901 0.523,-1.722 1.233,-2.462 v 0 c 0.707,-0.742 1.818,-1.288 3.331,-1.642 v 0 c -0.901,-1.063 -1.803,-1.941 -2.704,-2.632 v 0 c -0.9,-0.693 -1.906,-1.328 -3.017,-1.909 v 0 c -1.112,-0.578 -2.384,-1.158 -3.816,-1.738 v 0 c -1.433,-0.579 -3.13,-1.272 -5.095,-2.076 v 0 c -0.066,-0.033 -0.057,-0.057 0.024,-0.073 v 0 c 0.081,-0.017 0.28,-0.039 0.603,-0.072 v 0 c 0.322,-0.033 0.781,-0.064 1.377,-0.096 v 0 c 0.594,-0.034 1.361,-0.082 2.295,-0.146 v 0 c 1.383,-0.064 2.759,0.178 4.129,0.724 v 0 c 1.368,0.548 2.631,1.232 3.791,2.053 v 0 c 1.159,0.821 2.165,1.706 3.017,2.657 v 0 c 0.853,0.949 1.456,1.794 1.812,2.535 v 0 l 2.511,-0.58 0.918,3.864 -2.126,0.627 c 0.096,0.258 0.209,0.653 0.338,1.184 v 0 c 0.13,0.531 0.234,1.117 0.315,1.763 v 0 c 0.08,0.643 0.135,1.312 0.169,2.004 v 0 c 0.032,0.692 -0.01,1.32 -0.121,1.883 v 0 c -0.113,0.565 -0.314,1.03 -0.605,1.4 v 0 c -0.288,0.37 -0.691,0.572 -1.206,0.604 v 0 c -0.059,0.002 -0.118,0.003 -0.177,0.003 v 0 c -0.843,0 -1.686,-0.219 -2.528,-0.655 m -0.724,-6.447 c -0.708,0.386 -1.031,0.982 -0.966,1.787 v 0 c 0.031,0.451 0.209,0.845 0.532,1.182 v 0 c 0.322,0.339 0.756,0.476 1.304,0.412 v 0 c 0.16,0 0.354,-0.033 0.579,-0.097 v 0 c 0.224,-0.066 0.418,-0.194 0.579,-0.386 v 0 0.097 c 0.226,-0.162 0.37,-0.459 0.435,-0.894 v 0 c 0.064,-0.435 0.095,-0.893 0.095,-1.377 v 0 c 0,-0.579 -0.031,-1.191 -0.095,-1.835 v 0 c -0.935,0.354 -1.756,0.724 -2.463,1.111" /></g></g></g></g><g
       id="g832"><g
         id="g834"><g
           id="g840"><g
             id="g842"><path
               id="path850"
               style="fill:url(#linearGradient848);stroke:none"
               d="m 445.949,99.629 c 0.158,-6.568 0.32,-13.232 0.482,-19.993 v 0 c 0.161,-6.762 0.32,-13.443 0.482,-20.042 v 0 h -7.824 -1.206 -27.335 l -3.524,-13.764 12.411,-1.835 c -0.451,-1.321 -1.193,-2.567 -2.223,-3.743 v 0 c -1.03,-1.175 -2.238,-2.181 -3.622,-3.019 v 0 c -1.383,-0.835 -2.873,-1.455 -4.466,-1.858 v 0 c -1.594,-0.403 -3.163,-0.491 -4.708,-0.266 v 0 c -2.706,0.387 -4.974,1.256 -6.81,2.608 v 0 c -1.835,1.353 -3.325,3.011 -4.468,4.974 v 0 c -1.142,1.964 -1.972,4.121 -2.487,6.472 v 0 c -0.515,2.35 -0.781,4.724 -0.796,7.123 v 0 c -0.017,2.398 0.176,4.717 0.579,6.955 v 0 c 0.402,2.236 0.957,4.208 1.665,5.916 v 0 l -7.388,-3.961 c -0.772,-0.869 -1.505,-2.133 -2.198,-3.791 v 0 c -0.691,-1.658 -1.302,-3.397 -1.835,-5.216 v 0 C 380.147,54.37 379.73,52.6 379.424,50.877 v 0 c -0.307,-1.722 -0.427,-3.099 -0.363,-4.13 v 0 c 0.225,-4.346 1.11,-8.121 2.657,-11.323 v 0 c 1.545,-3.205 3.517,-5.853 5.916,-7.946 v 0 c 2.397,-2.091 5.102,-3.653 8.112,-4.683 v 0 c 3.011,-1.03 6.077,-1.546 9.202,-1.546 v 0 c 3.185,0 6.326,0.531 9.416,1.594 v 0 c 3.09,1.061 5.85,2.632 8.282,4.708 v 0 c 2.43,2.077 4.402,4.644 5.916,7.703 v 0 c 1.512,3.059 2.301,6.584 2.366,10.576 v 0 h 6.955 1.206 63.652 1.254 10.625 c 0.386,0 0.982,0.055 1.786,0.169 v 0 c 0.805,0.113 1.732,0.29 2.779,0.531 v 0 c 1.045,0.242 2.154,0.539 3.332,0.894 v 0 c 1.174,0.354 2.318,0.749 3.427,1.183 v 0 c 1.113,0.434 2.142,0.909 3.092,1.424 v 0 c 0.949,0.516 1.73,1.079 2.342,1.691 v 0 c 0.742,-1.385 1.561,-2.632 2.463,-3.742 v 0 c 0.901,-1.111 1.964,-1.827 3.187,-2.15 v 0 h 14.537 1.352 28.589 c 0.385,2.415 0.708,4.863 0.967,7.34 v 0 c 0.256,2.48 0.386,4.926 0.386,7.34 v 0 c 0,3.51 -0.331,7.068 -0.99,10.674 v 0 c -0.661,3.606 -1.811,7.131 -3.453,10.576 v 0 l -11.301,-7.678 c 1.223,-2.125 2.093,-4.201 2.607,-6.23 v 0 c 0.513,-2.027 0.773,-3.863 0.773,-5.504 v 0 c 0,-0.517 -0.016,-1.008 -0.048,-1.475 v 0 c -0.033,-0.467 -0.097,-0.892 -0.192,-1.279 v 0 h -17.338 -1.352 -9.997 c -0.323,0.064 -0.58,0.098 -0.772,0.098 v 0 c 2.029,1.641 3.581,3.685 4.659,6.133 v 0 c 1.079,2.445 1.62,5.038 1.62,7.774 v 0 c 0,1.545 -0.218,3.042 -0.653,4.492 v 0 c -0.434,1.448 -1.11,2.744 -2.028,3.887 v 0 c -0.918,1.142 -2.095,2.077 -3.526,2.801 v 0 c -1.432,0.725 -3.131,1.134 -5.095,1.231 v 0 c -1.738,0.031 -3.558,-0.08 -5.458,-0.337 v 0 c -1.899,-0.258 -3.775,-0.605 -5.625,-1.039 v 0 c -1.853,-0.435 -3.663,-0.942 -5.433,-1.521 v 0 c -1.771,-0.58 -3.413,-1.159 -4.925,-1.739 v 0 l -3.479,-15.84 c 1.062,0.096 1.989,0.073 2.777,-0.072 v 0 c 0.79,-0.144 1.505,-0.363 2.15,-0.653 v 0 c 0.643,-0.289 1.255,-0.652 1.835,-1.086 v 0 c 0.579,-0.435 1.174,-0.911 1.786,-1.424 v 0 c 0.195,-0.162 0.387,-0.315 0.581,-0.46 v 0 c 0.193,-0.144 0.402,-0.297 0.627,-0.458 v 0 c -0.677,-0.354 -1.328,-0.626 -1.956,-0.821 v 0 c -0.628,-0.192 -1.279,-0.354 -1.955,-0.484 v 0 c -0.676,-0.128 -1.395,-0.224 -2.149,-0.288 v 0 c -0.757,-0.066 -1.603,-0.13 -2.537,-0.194 v 0 h -8.017 -1.254 -5.073 c -0.964,4.088 -2.141,7.574 -3.523,10.455 v 0 c -1.386,2.882 -2.914,5.231 -4.589,7.051 v 0 c -1.674,1.819 -3.444,3.139 -5.312,3.96 v 0 c -1.867,0.821 -3.784,1.232 -5.747,1.232 v 0 c -1.804,0 -3.608,-0.298 -5.408,-0.892 v 0 c -1.804,-0.598 -3.55,-1.426 -5.24,-2.488 v 0 c -1.691,-1.063 -3.318,-2.304 -4.878,-3.72 v 0 c -1.562,-1.417 -2.986,-2.945 -4.274,-4.587 v 0 l 0.627,34.577 z m 82.845,-31.777 c -0.627,0.58 -1.287,1.151 -1.98,1.715 v 0 c -0.692,0.562 -1.385,1.094 -2.076,1.593 v 0 c -0.693,0.498 -1.296,0.942 -1.811,1.329 v 0 c 0.484,0.192 1.111,0.377 1.884,0.555 v 0 c 0.772,0.176 1.559,0.338 2.366,0.482 v 0 c 0.805,0.145 1.56,0.258 2.271,0.339 v 0 c 0.707,0.08 1.237,0.121 1.592,0.121 v 0 c 0.418,0 0.974,-0.057 1.667,-0.17 v 0 c 0.691,-0.113 1.366,-0.283 2.028,-0.506 v 0 c 0.66,-0.226 1.229,-0.484 1.714,-0.774 v 0 c 0.482,-0.289 0.724,-0.595 0.724,-0.916 v 0 c 0,-0.066 -0.516,-0.524 -1.545,-1.378 v 0 c -1.03,-0.853 -2.786,-2.214 -5.264,-4.08 v 0 c -0.419,0.548 -0.941,1.111 -1.57,1.69 m -66.016,-4.805 c 1.593,1.11 3.251,2.1 4.974,2.97 v 0 c 1.721,0.869 3.396,1.561 5.022,2.077 v 0 c 1.625,0.514 3.019,0.773 4.178,0.773 v 0 c 1.673,0 3.228,-0.701 4.66,-2.102 v 0 c 1.431,-1.4 2.664,-3.79 3.694,-7.171 v 0 h -26.561 c 1.095,1.191 2.438,2.342 4.033,3.453" /></g></g></g></g><g
       id="g852"><g
         id="g854"><g
           id="g860"><g
             id="g862"><path
               id="path870"
               style="fill:url(#linearGradient868);stroke:none"
               d="m 568.612,93.882 -6.857,6.907 -8.306,-8.163 8.306,-8.306 6.857,7.051 7.05,-7.051 8.114,8.306 -8.114,8.163 z" /></g></g></g></g><g
       id="g872"><g
         id="g874"><g
           id="g880"><g
             id="g882"><path
               id="path890"
               style="fill:url(#linearGradient888);stroke:none"
               d="m 635.063,123.573 c -0.788,-0.435 -1.496,-1.014 -2.125,-1.738 v 0 c -0.626,-0.726 -1.11,-1.523 -1.448,-2.392 v 0 c -0.338,-0.868 -0.468,-1.722 -0.386,-2.558 v 0 c 0.079,-0.838 0.435,-1.602 1.063,-2.295 v 0 c 0.627,-0.693 1.599,-1.2 2.922,-1.521 v 0 c -1.031,-1.224 -2.182,-2.221 -3.453,-2.994 v 0 c -1.273,-0.772 -2.649,-1.481 -4.129,-2.125 v 0 c 0.707,1.353 1.087,2.512 1.134,3.477 v 0 c 0.049,0.966 -0.122,1.738 -0.506,2.318 v 0 c -0.387,0.58 -0.935,0.974 -1.642,1.183 v 0 c -0.709,0.21 -1.466,0.225 -2.271,0.049 v 0 c -0.805,-0.178 -1.618,-0.531 -2.437,-1.063 v 0 c -0.823,-0.531 -1.538,-1.231 -2.15,-2.1 v 0 c 1.899,0.61 3.284,0.933 4.153,0.966 v 0 c 0.869,0.031 1.424,-0.138 1.666,-0.508 v 0 c 0.242,-0.37 0.273,-0.885 0.097,-1.545 v 0 c -0.178,-0.66 -0.347,-1.336 -0.508,-2.029 v 0 c -0.161,-0.693 -0.209,-1.369 -0.145,-2.028 v 0 c 0.065,-0.66 0.451,-1.168 1.159,-1.522 v 0 c 0.709,-0.354 1.45,-0.482 2.223,-0.386 v 0 c 0.77,0.097 1.535,0.339 2.293,0.725 v 0 c 0.755,0.387 1.489,0.886 2.197,1.497 v 0 c 0.708,0.611 1.36,1.247 1.956,1.908 v 0 c 0.597,0.658 1.11,1.304 1.546,1.932 v 0 c 0.434,0.628 0.748,1.166 0.941,1.617 v 0 l 2.223,-0.627 0.819,3.67 -1.836,0.58 c 0.098,0.321 0.234,0.916 0.412,1.787 v 0 c 0.177,0.868 0.272,1.761 0.29,2.679 v 0 c 0.016,0.918 -0.09,1.739 -0.315,2.463 v 0 c -0.225,0.724 -0.675,1.118 -1.351,1.184 v 0 c -0.054,0.002 -0.108,0.003 -0.163,0.003 v 0 c -0.751,0 -1.492,-0.202 -2.229,-0.607 m 0.339,-6.472 c -0.37,0.177 -0.7,0.363 -0.99,0.555 v 0 c -0.29,0.195 -0.515,0.42 -0.676,0.677 v 0 c -0.161,0.258 -0.21,0.562 -0.145,0.918 v 0 c 0,0.385 0.137,0.732 0.41,1.039 v 0 c 0.274,0.304 0.636,0.441 1.088,0.409 v 0 c 0.417,0 0.787,-0.16 1.11,-0.482 v 0 0.095 c 0.16,-0.128 0.282,-0.394 0.363,-0.795 v 0 c 0.08,-0.404 0.12,-0.83 0.12,-1.279 v 0 c 0,-0.517 -0.033,-1.08 -0.096,-1.692 v 0 c -0.42,0.194 -0.814,0.378 -1.184,0.555" /></g></g></g></g><g
       id="g892"><g
         id="g894"><g
           id="g900"><g
             id="g902"><path
               id="path910"
               style="fill:url(#linearGradient908);stroke:none"
               d="m 626.951,77.076 c 0.578,-0.676 1.27,-1.714 2.076,-3.114 v 0 c 0.804,-1.401 1.578,-2.94 2.317,-4.612 v 0 c 0.739,-1.676 1.385,-3.382 1.933,-5.12 v 0 c 0.547,-1.739 0.869,-3.284 0.966,-4.636 v 0 h -19.076 c -0.838,0.354 -1.45,1.015 -1.835,1.979 v 0 c -0.387,0.966 -0.579,2.174 -0.579,3.623 v 0 h -1.545 c -0.453,-1.224 -0.87,-2.487 -1.257,-3.791 v 0 c -0.386,-1.303 -0.708,-2.568 -0.966,-3.792 v 0 c -0.257,-1.223 -0.459,-2.366 -0.603,-3.428 v 0 c -0.145,-1.063 -0.218,-1.948 -0.218,-2.655 v 0 c 0,-0.774 0.121,-1.483 0.362,-2.126 v 0 c 0.243,-0.645 0.547,-1.207 0.919,-1.69 v 0 c 0.37,-0.483 0.755,-0.887 1.158,-1.206 v 0 c 0.402,-0.324 0.748,-0.55 1.038,-0.678 v 0 h 74.275 c 0.387,2.415 0.702,4.863 0.941,7.34 v 0 c 0.243,2.48 0.364,4.926 0.364,7.34 v 0 c 0,3.51 -0.323,7.068 -0.968,10.674 v 0 c -0.643,3.606 -1.802,7.131 -3.476,10.576 v 0 l -11.251,-7.678 c 1.222,-2.125 2.091,-4.201 2.605,-6.23 v 0 c 0.517,-2.027 0.774,-3.863 0.774,-5.504 v 0 c 0,-0.517 -0.016,-1.008 -0.048,-1.475 v 0 c -0.033,-0.467 -0.097,-0.892 -0.195,-1.279 v 0 h -19.991 -1.883 -5.845 c -0.355,2.349 -0.838,4.651 -1.45,6.906 v 0 c -0.609,2.253 -1.295,4.385 -2.05,6.399 v 0 c -0.758,2.012 -1.538,3.878 -2.342,5.601 v 0 c -0.806,1.723 -1.563,3.236 -2.27,4.54 v 0 c -0.71,1.305 -1.353,2.358 -1.933,3.163 v 0 c -0.579,0.806 -0.999,1.304 -1.255,1.497 v 0 z" /></g></g></g></g><g
       id="g912"><g
         id="g914"><g
           id="g920"><g
             id="g922"><path
               id="path930"
               style="fill:url(#linearGradient928);stroke:none"
               d="m 671.62,32.549 -6.905,6.955 -8.257,-8.209 8.257,-8.258 6.905,7.001 7.004,-7.001 8.161,8.258 -8.161,8.209 z" /></g></g></g></g></g></svg>