<svg width="147" height="147" viewBox="0 0 147 147" fill="none" xmlns="http://www.w3.org/2000/svg">
<g clip-path="url(#clip0_0_240)">
<path d="M127.975 86.094C119.448 84.7756 111.328 82.3129 102.785 80.9203C97.2396 80.0231 97.5141 85.4022 102.149 86.1532C106.784 86.9043 111.448 87.9607 116.039 89.0338C106.215 93.4819 95.5179 95.6693 84.7364 95.4347C77.5546 95.2374 69.6952 94.0224 63.9247 90.7383C61.0915 88.9463 58.8388 86.3711 57.4395 83.3247C63.6794 83.149 70.1985 81.7014 74.2206 77.91C79.7702 72.7608 76.0595 66.4975 69.2859 64.6482C65.4557 63.6829 61.4091 64.0808 57.8403 65.7735C54.2714 67.4663 51.403 70.3483 49.7273 73.9251C49.2842 75.0307 48.9943 76.1916 48.8657 77.3757C44.7108 76.8042 40.7038 75.442 37.0614 73.3628C26.277 67.2093 22.0556 55.9906 20.4217 45.4376C19.9227 42.5272 12.0484 40.3795 12.624 44.1502C15.306 61.5268 25.5898 78.7137 47.6975 82.6699L49.4131 82.9274C51.2403 87.7047 54.6835 91.6909 59.1444 94.1932C74.2352 103.278 95.966 102.873 114.324 96.7521L105.668 105.428C102.694 108.418 109.864 111.855 112.389 109.298L131.006 90.6381C133.132 88.5606 130.301 86.4674 127.975 86.094ZM60.8891 72.3102C63.0204 69.8804 64.7547 70.7122 66.092 74.8056L62.7797 76.292C60.7035 76.9482 58.5576 77.3591 56.3859 77.5164C56.6263 76.335 57.1669 75.2354 57.9556 74.3235C58.7443 73.4117 59.7546 72.7183 60.8891 72.3102V72.3102Z" fill="white"/>
</g>
<defs>
<clipPath id="clip0_0_240">
<rect width="121.763" height="121.763" fill="white" transform="translate(0.959229 27.5862) rotate(-12.6831)"/>
</clipPath>
</defs>
</svg>
