<svg width="27" height="18" viewBox="0 0 27 18" fill="none" xmlns="http://www.w3.org/2000/svg">
<path d="M26.908 2.45649V15.5441C26.908 16.7616 25.916 17.7479 24.6985 17.7479H2.20945C0.992 17.7479 0 16.7616 0 15.5441V2.45649C0 1.23903 0.992 0.252668 2.20945 0.252668H24.6985C25.916 0.252668 26.908 1.23903 26.908 2.45649Z" fill="#63AFFA"/>
<path d="M26.9057 2.45897V15.541C26.9057 16.7641 25.9194 17.7504 24.6963 17.7504H2.2072C1.59847 17.7504 1.04611 17.5024 0.651564 17.1022C0.251382 16.7077 0.00338197 16.1553 0.00338197 15.541C0.00338197 13.991 1.26029 12.734 2.81029 12.734H5.29029C8.07465 12.734 10.5941 11.6067 12.4203 9.78054C13.2431 8.95769 13.9252 7.99387 14.4212 6.92854C14.9172 5.88024 15.2328 4.73042 15.3343 3.52424C15.3625 3.23678 15.3737 2.94364 15.3737 2.6506C15.3737 1.326 16.4502 0.249512 17.7748 0.249512H24.6963C25.9194 0.249512 26.9057 1.24151 26.9057 2.45897Z" fill="#529FFB"/>
<path d="M26.9063 3.52198H0.00225449V6.92973H26.9063V3.52198Z" fill="#626681"/>
<path d="M26.9057 3.52424V6.92855L14.4212 6.92854C14.9172 5.88024 15.2328 4.73042 15.3343 3.52424L26.9057 3.52424Z" fill="#4D5471"/>
<path d="M24.3693 15.011C23.6991 15.011 23.1559 14.4678 23.1559 13.7979V9.86678C23.1559 9.1969 23.6991 8.65361 24.3693 8.65361C25.0394 8.65361 25.5827 9.1969 25.5827 9.86678V13.7979C25.5827 14.4678 25.0394 15.011 24.3693 15.011Z" fill="#63AFFA"/>
<path d="M7.95291 13.0021C7.95291 14.5127 6.72982 15.7414 5.21364 15.7414C3.69746 15.7414 2.46873 14.5127 2.46873 13.0021C2.46873 11.4859 3.69745 10.2572 5.21364 10.2572C6.72982 10.2572 7.95291 11.4859 7.95291 13.0021Z" fill="#FC4A32"/>
<path d="M11.3347 13.0021C11.3347 14.5127 10.1116 15.7414 8.59545 15.7414C7.07927 15.7414 5.85054 14.5127 5.85054 13.0021C5.85054 11.4859 7.07927 10.2572 8.59545 10.2572C10.1116 10.2572 11.3347 11.4859 11.3347 13.0021Z" fill="#F7CC6D"/>
<path d="M21.0777 11.9481H16.1459C15.679 11.9481 15.3005 11.5695 15.3005 11.1026C15.3005 10.6356 15.679 10.2572 16.1459 10.2572H21.0777C21.5447 10.2572 21.9232 10.6356 21.9232 11.1026C21.9232 11.5695 21.5447 11.9481 21.0777 11.9481Z" fill="#E7E7E7"/>
<path d="M7.67881 2.75375H2.74699C2.28002 2.75375 1.90154 2.37521 1.90154 1.90829C1.90154 1.44132 2.28002 1.06284 2.74699 1.06284H7.67881C8.14572 1.06284 8.52426 1.44132 8.52426 1.90829C8.52426 2.37521 8.14572 2.75375 7.67881 2.75375Z" fill="#82C8FB"/>
<path d="M11.9413 6.07188H7.00949C6.54252 6.07188 6.16404 5.69334 6.16404 5.22642C6.16404 4.75945 6.54252 4.38097 7.00949 4.38097H11.9413C12.4082 4.38097 12.7868 4.75945 12.7868 5.22642C12.7868 5.69334 12.4082 6.07188 11.9413 6.07188Z" fill="#6C728C"/>
<path d="M19.2954 14.3825H15.8851C15.5622 14.3825 15.3005 14.1208 15.3005 13.7979C15.3005 13.475 15.5622 13.2133 15.8851 13.2133H19.2954C19.6183 13.2133 19.88 13.475 19.88 13.7979C19.88 14.1208 19.6183 14.3825 19.2954 14.3825Z" fill="#E7E7E7"/>
</svg>
